<svg width="20" height="20" viewBox="0 0 20 20" fill="none" xmlns="http://www.w3.org/2000/svg">
<path fill-rule="evenodd" clip-rule="evenodd" d="M10 0.375C15.5228 0.375 20 4.85215 20 10.375C20 15.8978 15.5228 20.375 10 20.375C4.47715 20.375 0 15.8978 0 10.375C0 4.85215 4.47715 0.375 10 0.375ZM6.98067 14.8339C6.68183 15.1207 6.67208 15.5955 6.95889 15.8943C7.21964 16.166 7.63572 16.1988 7.93374 15.987L8.01933 15.9161L12.8711 11.2596C13.3426 10.807 13.3741 10.0805 12.9654 9.59139L12.8711 9.4904L8.01933 4.83389C7.72049 4.54708 7.24571 4.55683 6.95889 4.85567C6.69815 5.12735 6.6825 5.54442 6.90634 5.8335L6.98067 5.91611L11.626 10.374L6.98067 14.8339Z" fill="#323232"/>
</svg>
