<svg width="23" height="16" viewBox="0 0 23 16" fill="none" xmlns="http://www.w3.org/2000/svg">
<path d="M17.0708 7.00003C17.0608 7.00003 17.0538 7.00203 17.0458 7.00303C16.9242 5.32275 16.1546 3.75542 14.8994 2.63179C13.6442 1.50815 12.0015 0.916112 10.3181 0.980595C8.63466 1.04508 7.04211 1.76104 5.87653 2.9774C4.71094 4.19376 4.06349 5.81537 4.0708 7.50003C4.0708 8.02403 4.1408 8.53003 4.2568 9.02003C4.1938 9.01503 4.1348 9.00002 4.0708 9.00002C1.8608 9.00002 0.0708008 10.79 0.0708008 13C0.0708008 14.202 0.610801 15.267 1.4508 16H20.0438C20.671 15.5383 21.1812 14.9359 21.5332 14.2412C21.8853 13.5465 22.0694 12.7788 22.0708 12C22.0708 9.24002 19.8308 7.00003 17.0708 7.00003ZM12.0708 11V14H10.0708V11H7.0708L11.0708 6.00003L15.0708 11H12.0708Z" fill="black"/>
</svg>
