<svg width="116" height="52" viewBox="0 0 116 52" fill="none" xmlns="http://www.w3.org/2000/svg">
<path fill-rule="evenodd" clip-rule="evenodd" d="M53.7113 16.7887L57.7053 12.7946C57.8681 12.6319 58.1319 12.6319 58.2946 12.7946L62.2887 16.7887C62.4514 16.9514 62.4514 17.2152 62.2887 17.378C62.2105 17.4561 62.1046 17.5 61.9941 17.5H54.0059C53.7758 17.5 53.5892 17.3135 53.5892 17.0833C53.5892 16.9728 53.6331 16.8668 53.7113 16.7887Z" fill="white"/>
<mask id="mask0_350_2183" style="mask-type:alpha" maskUnits="userSpaceOnUse" x="53" y="12" width="10" height="6">
<path fill-rule="evenodd" clip-rule="evenodd" d="M53.7113 16.7887L57.7053 12.7946C57.8681 12.6319 58.1319 12.6319 58.2946 12.7946L62.2887 16.7887C62.4514 16.9514 62.4514 17.2152 62.2887 17.378C62.2105 17.4561 62.1046 17.5 61.9941 17.5H54.0059C53.7758 17.5 53.5892 17.3135 53.5892 17.0833C53.5892 16.9728 53.6331 16.8668 53.7113 16.7887Z" fill="white"/>
</mask>
<g mask="url(#mask0_350_2183)">
</g>
<path d="M49.5918 33.8848H45.2461V47H42.8926V33.8848H38.5566V31.873H49.5918V33.8848ZM49.9043 39.627C49.9043 37.2376 50.5716 35.3073 51.9062 33.8359C53.2474 32.3581 55.054 31.6191 57.3262 31.6191C59.4551 31.6191 61.1641 32.3353 62.4531 33.7676C63.7422 35.1999 64.3867 37.0358 64.3867 39.2754C64.3867 41.6517 63.7292 43.5755 62.4141 45.0469C61.099 46.5182 59.3216 47.2539 57.082 47.2539C54.9466 47.2539 53.2148 46.5443 51.8867 45.125C50.5651 43.7057 49.9043 41.873 49.9043 39.627ZM52.3652 39.4609C52.3652 41.1276 52.7917 42.5013 53.6445 43.582C54.4974 44.6562 55.6497 45.1934 57.1016 45.1934C58.625 45.1934 59.8099 44.6823 60.6562 43.6602C61.5026 42.6315 61.9258 41.2448 61.9258 39.5C61.9258 37.7161 61.5156 36.3034 60.6953 35.2617C59.8815 34.2201 58.7194 33.6992 57.209 33.6992C55.7376 33.6992 54.5625 34.2396 53.6836 35.3203C52.8047 36.401 52.3652 37.7812 52.3652 39.4609ZM69.5527 41.4629V47H67.209V31.873H71.7793C73.4915 31.873 74.8034 32.2702 75.7148 33.0645C76.6263 33.8522 77.082 34.998 77.082 36.502C77.082 38.0189 76.5384 39.2396 75.4512 40.1641C74.3639 41.082 73.0195 41.515 71.418 41.4629H69.5527ZM69.5527 33.8359V39.5098H71.2324C73.4915 39.5098 74.6211 38.5397 74.6211 36.5996C74.6211 34.7572 73.5371 33.8359 71.3691 33.8359H69.5527Z" fill="white"/>
</svg>
