<svg id="etmallLogo" data-name="etmallLogo" xmlns="http://www.w3.org/2000/svg" viewBox="0 0 245.14 83.84"><defs><style>.logo__outer{fill:#fff;}.logo__inner{fill:#b50005;}.logo__word{fill:#fff;}.logo__sub{fill:#231815;}</style></defs><path class="logo__sub" d="M1053.34,526.76a17.79,17.79,0,0,0-9.77,2.7v4.72a14.16,14.16,0,0,1,9.38-3.54q5.92,0,5.93,7.33l-8.63,1.21q-9.49,1.32-9.49,9.39a7.89,7.89,0,0,0,2.43,6,8.65,8.65,0,0,0,5.16,2.18v0a14.06,14.06,0,0,0,1.63.16,9.62,9.62,0,0,0,8.91-4.61v3.85h4.61V537.5Q1063.49,526.76,1053.34,526.76Zm-7.86,21.47c0-1.93.54-3.27,1.63-4a11.18,11.18,0,0,1,4.83-1.59l6.94-1v2.86a8.58,8.58,0,0,1-2.23,6.09A7.41,7.41,0,0,1,1051,553a5.81,5.81,0,0,1-4-1.34A4.38,4.38,0,0,1,1045.48,548.23Z" transform="translate(-837.44 -497.91)"/><path class="logo__sub" d="M955.84,552.16h-9.51V539.48h12.83v-3.81H946.33V524.54h14.82v-3.92H944a2.36,2.36,0,0,0-2.35,2.23h0v31.3a1.77,1.77,0,0,0,.56,1.5,2,2,0,0,0,1.19.42h18v-3.92h-5.51Z" transform="translate(-837.44 -497.91)"/><path class="logo__sub" d="M988.56,520.62H964v4h.72l.21,0h10v31.63h4.71V524.62h10a.68.68,0,0,0,.39-.11.78.78,0,0,0,.3-.34,1.57,1.57,0,0,0,.18-.62,5.8,5.8,0,0,0,.06-.9h0v0A2,2,0,0,0,988.56,520.62Z" transform="translate(-837.44 -497.91)"/><path class="logo__sub" d="M1037.33,522.81a2.36,2.36,0,0,0-2.28-2.18h-5.27L1026,530l-7.93,19.23h-.14L1008.38,525l-1.68-4.35h-7.91v35.63h4.71v-3.52h0V524.49h0l12,31h0l.29.76h4l1-2.44h0l11.82-29.34h.05v31.76h4.71V522.81Z" transform="translate(-837.44 -497.91)"/><path class="logo__sub" d="M1073.07,556.27V520a2.5,2.5,0,0,0-2.5-2.5h0a10.31,10.31,0,0,0-1.22.06,3,3,0,0,0-.77.18.79.79,0,0,0-.39.31.82.82,0,0,0-.11.42v37.85Z" transform="translate(-837.44 -497.91)"/><path class="logo__sub" d="M1082.58,556.27V520a2.5,2.5,0,0,0-2.5-2.5h0a10.13,10.13,0,0,0-1.21.06,3,3,0,0,0-.77.18.71.71,0,0,0-.5.73v37.85Z" transform="translate(-837.44 -497.91)"/><path class="logo__inner" d="M920.42,546.11a.3.3,0,0,1,0,.1c0-.12,0-.24,0-.36s-.48-3.53-.63-6a42.3,42.3,0,0,1,.6-6.09,2.4,2.4,0,0,0,0-.28,2.64,2.64,0,0,0-.27-1.16,1.43,1.43,0,0,0-.2-.36c-1.8-2.76-13.6-2.54-13.6-2.54,1.79-1.23,7.09-5,9-8.9a6,6,0,0,0-.68-5.7c-1.34-1.81-3.69-3-4.88-3.86a10.83,10.83,0,0,1-1.94-1.8,34.9,34.9,0,0,0-3.55-4.71,6,6,0,0,0-3.14-1.65c-3.21-.26-9.38,7.75-10.49,9.23-.15-4.75-.57-9.46-2.19-11.94,0,0-1.38-1.7-3.09-1.47l-.63.07h0c-.38.06-1.33.22-2.31.34a15.07,15.07,0,0,1-2.45.25h-.71a14.84,14.84,0,0,1-2.45-.25c-1-.12-1.93-.28-2.32-.34h0l-.63-.07a3.52,3.52,0,0,0-2.93,1.43c-1.61,2.47-2.16,7.46-2.32,12.21-1.1-1.48-5.54-9.69-10.26-9.54a5,5,0,0,0-4,1.73,33.91,33.91,0,0,0-3.54,4.71,11,11,0,0,1-1.95,1.8c-1.18.88-3.54,2.05-4.88,3.86a4.82,4.82,0,0,0-.77,1.43l0,.1a4.71,4.71,0,0,0-.25,1.46,4.81,4.81,0,0,0,.66,2.41,13.78,13.78,0,0,0,2.37,3.23c2.09,2.15,3.84,4.53,5.46,5.64a25.47,25.47,0,0,0-6.36.22c-3.16.49-5.84,1.93-6.37,2.65a1.82,1.82,0,0,0-.2.36,2.64,2.64,0,0,0-.27,1.16,2.4,2.4,0,0,0,0,.28,40.87,40.87,0,0,1,.6,6.09c-.15,2.47-.63,6-.63,6s0,.24,0,.36a.3.3,0,0,1,0-.1,4,4,0,0,0,1.62,3.55,18.69,18.69,0,0,0,10.47,3.26c-2,1.48-6.77,5.54-6.92,9.07a4.66,4.66,0,0,0,1.39,3.78c2,1.92,4.16,2.83,5.4,4.08a25.63,25.63,0,0,1,2.4,3.3h0a15.12,15.12,0,0,0,3.22,3.6c5.51,3.94,12.95-8,12.95-8,.17,4.94.67,8.88,2.42,11.25a2.93,2.93,0,0,0,2.32,1.13h.06a4.58,4.58,0,0,0,.68,0h0l.26,0h0l.84-.13H875c1.07-.16,2.78-.4,4.26-.47h0c1.48.07,3.19.31,4.26.47h-.23l.83.13h0l.26,0h0a4.65,4.65,0,0,0,.68,0h.07a2.92,2.92,0,0,0,2.31-1.13,19.8,19.8,0,0,0,3.44-11.06s5,7.71,9.2,8.39,7.87-6.33,8.69-7.14c2.1-2.33,7.57-4.13,7.34-8.11s-5.71-7.91-7.71-9.39c5-.14,8.57-1.19,10.79-2.7,1-.72,1.33-2.34,1.19-3.86" transform="translate(-837.44 -497.91)"/><path class="logo__outer" d="M885.21,500.4a2.8,2.8,0,0,1,2.21,1.38,22.91,22.91,0,0,1,3,11.07c1-1.4,6.61-8.45,9.73-8.44h.15a5.85,5.85,0,0,1,3,1.57,32.24,32.24,0,0,1,3.39,4.51,10.75,10.75,0,0,0,1.87,1.73c1.13.84,3.39,1.95,4.68,3.69a5.7,5.7,0,0,1,.65,5.44c-1.83,3.69-6.91,7.33-8.62,8.51h.61c2.38,0,10.94.16,12.42,2.42a1.7,1.7,0,0,1,.19.35,2.55,2.55,0,0,1,.26,1.11,2.06,2.06,0,0,1,0,.26,41.14,41.14,0,0,0-.58,5.82c.15,2.37.61,5.75.61,5.75s0,.22,0,.34a.36.36,0,0,0,0-.1,3.83,3.83,0,0,1-1.55,3.39,17.09,17.09,0,0,1-9.83,3.17c1.93,1.41,6.78,6.27,6.79,8.63a4.69,4.69,0,0,1-1.69,3.6c-1.89,1.84-4,2.71-5.18,3.9a25.59,25.59,0,0,0-2.3,3.16h0a23.29,23.29,0,0,1-3.87,4.29,1.52,1.52,0,0,1-.79.2c-3.33,0-9.84-8.32-9.84-8.32a18.1,18.1,0,0,1-3.31,10.36,2.8,2.8,0,0,1-2.22,1.08h-.17a4,4,0,0,1-.54,0h0l-.25,0h0l-.8-.13.21,0h0a39.35,39.35,0,0,0-4.08-.45h0a39.57,39.57,0,0,0-4.09.45h0l.2,0-.8.13h0l-.25,0h0a4,4,0,0,1-.54,0h-.17a2.82,2.82,0,0,1-2.22-1.08c-1.68-2.27-2.18-6-2.34-10.74,0,0-5.69,8-10.33,8a3.58,3.58,0,0,1-2.12-.67,14.65,14.65,0,0,1-3-3.13h0a23.67,23.67,0,0,0-2.3-3.16c-1.19-1.19-3.28-2.06-5.17-3.9a4.66,4.66,0,0,1-1.69-3.6c0-2.36,5.25-7.22,7.18-8.63a18.51,18.51,0,0,1-10.22-3.17,3.81,3.81,0,0,1-1.56-3.39l0,.1a1.88,1.88,0,0,1,0-.34s.46-3.38.61-5.75A39.65,39.65,0,0,0,840,534a2.11,2.11,0,0,1,0-.26,2.55,2.55,0,0,1,.25-1.11,2.37,2.37,0,0,1,.19-.35c.51-.68,3.08-1.74,6.11-2.2a46,46,0,0,1,6.6-.44H854a53.37,53.37,0,0,1-7-5.5,7.83,7.83,0,0,1-1.84-3.09,4.61,4.61,0,0,1-.63-2.3,4.67,4.67,0,0,1,.23-1.4l0-.09a4.48,4.48,0,0,1,.74-1.36c1.28-1.74,3.54-2.85,4.68-3.69a10.6,10.6,0,0,0,1.86-1.73,33.21,33.21,0,0,1,3.4-4.51,5.8,5.8,0,0,1,3-1.57h.15c3.13,0,9.2,7.26,10.24,8.65.15-4.55.92-8.91,2.47-11.28a2.81,2.81,0,0,1,2.22-1.38,1.67,1.67,0,0,1,.31,0c.14,0,.5,0,.6.06h0c.37.06,1.28.21,2.22.33a14.84,14.84,0,0,0,2.35.24h.68a14.72,14.72,0,0,0,2.34-.24c1-.12,1.85-.27,2.22-.33h0l.6-.06a1.77,1.77,0,0,1,.32,0m0-2.5h0a4.63,4.63,0,0,0-.65,0l-.18,0-.4,0h-.13c-.35.06-1.21.2-2.1.31l-.14,0a12.51,12.51,0,0,1-2,.2h-.54a12.28,12.28,0,0,1-2-.2l-.15,0c-.91-.12-1.79-.26-2.12-.31l-.13,0-.38,0-.18,0a4.58,4.58,0,0,0-.64,0,5.18,5.18,0,0,0-4.35,2.58,18.37,18.37,0,0,0-2.25,6.57c-2.47-2.52-5.69-5.14-8.33-5.14h-.35a8.08,8.08,0,0,0-4.56,2.29,21.43,21.43,0,0,0-2.82,3.59c-.27.42-.54.81-.78,1.14a8,8,0,0,1-1.38,1.26c-.24.18-.58.4-1,.63a15.39,15.39,0,0,0-4.24,3.56,7.25,7.25,0,0,0-1.11,2.07l0,.08s0,.05,0,.08a6.93,6.93,0,0,0-.35,2.14,7.15,7.15,0,0,0,.87,3.38v0a9.94,9.94,0,0,0,2.3,3.72c.52.53,1.11,1.07,1.73,1.6l-.75.11c-.62.09-6.12,1-7.74,3.19a4.11,4.11,0,0,0-.45.8,4.89,4.89,0,0,0-.48,2.14,2.92,2.92,0,0,0,0,.51.88.88,0,0,0,0,.16,36.92,36.92,0,0,1,.55,5.25c-.14,2.15-.55,5.24-.59,5.54a2.57,2.57,0,0,0-.07.4,6.34,6.34,0,0,0,2.57,5.62l.07,0a20.09,20.09,0,0,0,6,2.79c-2,2.1-4.06,4.74-4.06,7a7.17,7.17,0,0,0,2.51,5.45,21.77,21.77,0,0,0,3.41,2.6,11.75,11.75,0,0,1,1.67,1.22,11.37,11.37,0,0,1,1.26,1.69l.67,1,.09.13a16.68,16.68,0,0,0,3.64,3.75,6,6,0,0,0,3.54,1.12c3,0,6-2.16,8.36-4.4a14.28,14.28,0,0,0,2.3,6.11,5.24,5.24,0,0,0,4.13,2.09h.27a6.22,6.22,0,0,0,.86-.06h.06a2.28,2.28,0,0,0,.35-.06l.41-.06.32-.05.28-.06c1.23-.18,2.32-.3,3.19-.34s2,.16,3.19.34l.27.06.33.05.4.06a2.69,2.69,0,0,0,.36.06H884a6.33,6.33,0,0,0,.86.06h.27a5.26,5.26,0,0,0,4.13-2.08,19,19,0,0,0,3-6.14c2.51,2.58,5.63,5.11,8.19,5.11a4,4,0,0,0,2-.54l.13-.08a24,24,0,0,0,4.51-4.92l.09-.14c.24-.34.47-.68.68-1a11.46,11.46,0,0,1,1.24-1.67,11.25,11.25,0,0,1,1.7-1.24,22.74,22.74,0,0,0,3.41-2.6,7.14,7.14,0,0,0,2.5-5.45c0-2.22-1.9-4.84-3.83-6.93a19.22,19.22,0,0,0,5.78-2.81l.07,0a6.32,6.32,0,0,0,2.57-5.62,2.28,2.28,0,0,0-.06-.39c0-.29-.46-3.4-.59-5.54a35.49,35.49,0,0,1,.55-5.26.68.68,0,0,1,0-.14,4.64,4.64,0,0,0-.46-2.71,4,4,0,0,0-.38-.69c-.48-.73-1.78-2.52-8.33-3.22a19.35,19.35,0,0,0,4.08-5.19,8.14,8.14,0,0,0-.9-8.07,15.33,15.33,0,0,0-4.23-3.56c-.37-.23-.72-.45-1-.62a9,9,0,0,1-1.39-1.27c-.24-.33-.5-.72-.78-1.14a20.92,20.92,0,0,0-2.82-3.59,8,8,0,0,0-4.56-2.29h-.35c-2.57,0-5.58,2.45-8,5a21.13,21.13,0,0,0-2.57-6.44,5.18,5.18,0,0,0-4.34-2.57Z" transform="translate(-837.45 -497.9)"/><path class="logo__word" d="M858.06,553.78a19,19,0,0,1,1.35,2.54l1.26-.53a14.59,14.59,0,0,0-1.42-2.5Z" transform="translate(-837.44 -497.91)"/><path class="logo__word" d="M869.6,550.5a1.28,1.28,0,0,0-1.2-1.14H866v-.48h-1.33v.48h-3.45v3.89h-.77v1h.77v2.63h1.41V554.3h5.47v1.21h0a.22.22,0,0,1-.22.23h-1.74l.45,1.2c1.73,0,2.3,0,2.67-.4a1,1,0,0,0,.3-.81V554.3h.77v-1h-.77Zm-4.89,2.75h-2v-.9h2Zm0-2h-2v-.9h2Zm3.45,2h-2v-.9h2Zm0-2h-2v-.9h2Z" transform="translate(-837.44 -497.91)"/><path class="logo__word" d="M864.65,548.43h5.54v-1.08h-2.36v-.84h2v-1h-2v-.88h2v-1.08h-2v-.83a.55.55,0,0,0-.54-.55h-.92v1.38h-2v-.82a.55.55,0,0,0-.55-.55H863v1.37h-2v1.08h2v.88h-2v1h2v.84h-2.36v1.08h4Zm-.23-3.83h2v.88h-2Zm0,1.91h2v.84h-2Z" transform="translate(-837.44 -497.91)"/><path class="logo__word" d="M860.22,543.91a1.26,1.26,0,0,0-1.23-1.23h-3.68v10.11h1a2.32,2.32,0,0,1-.11.43,10.26,10.26,0,0,1-1.75,2.84l1.11.75a9.37,9.37,0,0,0,1.71-2.79,5.05,5.05,0,0,0,.33-1.23h2.62Zm-3.54,0h2.16v1.79h-2.16Zm0,2.92h2.16v1.8h-2.16Zm0,4.77v-1.84h2.16v1.84Z" transform="translate(-837.44 -497.91)"/><path class="logo__word" d="M886.8,545h-5.62a17.25,17.25,0,0,0,.55-2.81l-1.54-.29s0,2.15-2.13,7l1.61.31a28.89,28.89,0,0,0,1.05-2.79h.93c-.61,3-1.8,6.45-3.44,8.28l1.41.67c1.56-2,2.78-5.86,3.36-9h3.23c-.25,6.07-.53,8.33-1,8.84a.69.69,0,0,1-.55.28h-1l.54,1.45h0c1.19,0,1.93-.11,2.39-.74s.86-3.27,1.16-10.29h0A1,1,0,0,0,886.8,545Z" transform="translate(-837.44 -497.91)"/><path class="logo__word" d="M883.88,546.89c-.46,3.27-1.41,6.94-3,9l1.4.66c1.44-2.2,2.39-6.11,2.83-9.42Z" transform="translate(-837.44 -497.91)"/><path class="logo__word" d="M878.78,549.89l-1.82.33v-3.8h1.75V545H877v-2.54a.55.55,0,0,0-.55-.54h-1V545h-1.11c.07-.54.1-.86.13-1.32h0l0-.62-1.35-.26a26.61,26.61,0,0,1-1,6l1.44.28a17.88,17.88,0,0,0,.61-2.64h1.28v4.07c-1.14.21-2.51.47-3.33.6l.53,1.46,2.8-.6v5H877v-5.33l2.28-.49Z" transform="translate(-837.44 -497.91)"/><path class="logo__word" d="M893.26,549.13c.22.55.37.94.46,1.2a6.74,6.74,0,0,1-1.73.24,21.11,21.11,0,0,0,3.32-5.77l-1.42-.48a15,15,0,0,1-.93,2.08,8.42,8.42,0,0,1-1.28.1,27.24,27.24,0,0,0,2-4l-1.47-.38a22.91,22.91,0,0,1-1.93,4.44h-.3l-.23,0-.26,0,.23,1.32c.51,0,1.41-.07,2.71-.19a15.51,15.51,0,0,1-2,3h-.87l.38,1.4.58-.06a27,27,0,0,1-1.06,4.42l1.3.39a24.15,24.15,0,0,0,1-4.94c1-.12,1.79-.22,2.32-.32a.78.78,0,0,1,.07.27c0,.12,0,.21.06.29l1.28-.37a15,15,0,0,0-1-2.92Z" transform="translate(-837.44 -497.91)"/><path class="logo__word" d="M892,552.71a18.49,18.49,0,0,1,.12,2.07c0,.53,0,1.06-.05,1.6l1.41-.06a19.18,19.18,0,0,0-.33-3.69Z" transform="translate(-837.44 -497.91)"/><path class="logo__word" d="M902.59,542.6h-7.06v14.32h1.38l0-6h1v1.58a2.13,2.13,0,0,0,.39,1.49,2.08,2.08,0,0,0,1.43.38H902v-.5a.76.76,0,0,0-.81-.71h-1.34c-.4,0-.6-.24-.6-.74V551h3.37v3.83q0,.51-.57.51l-1.66-.08.44,1.48h1.55a1.55,1.55,0,0,0,1.28-.4,2.39,2.39,0,0,0,.32-1.46v-11A1.31,1.31,0,0,0,902.59,542.6Zm0,7.14h-1.93a12.76,12.76,0,0,0-.83-1.64l-1.27.26a11,11,0,0,1,.7,1.38h-2.36v-1.83h5.69Zm0-3h-1.17a9.57,9.57,0,0,0,.65-2.13l-1.33-.27a11.52,11.52,0,0,1-.66,2.4h-.68a22,22,0,0,0-.78-2.37l-1.29.22a15.68,15.68,0,0,1,.79,2.15h-1.22v-2.86h5.69Z" transform="translate(-837.44 -497.91)"/><path class="logo__word" d="M893.43,552.55a21.92,21.92,0,0,1,.73,3.44l1.23-.35a17.3,17.3,0,0,0-.88-3.29Z" transform="translate(-837.44 -497.91)"/><path class="logo__word" d="M882.78,530.24a14.28,14.28,0,0,0,6-4v4.46h1.81v-4.79h6.29v-1.46h-6.29v-1.19a.62.62,0,0,0-.61-.6h-1.2v1.79h-6.29v1.46h4.6a14.07,14.07,0,0,1-5.29,3Z" transform="translate(-837.44 -497.91)"/><path class="logo__word" d="M889,532h-2.76v-1.34a.61.61,0,0,0-.6-.6h-1V532h-3.27v1.46h2.47a6.54,6.54,0,0,1-2.74,3.29l1,1.25a8.49,8.49,0,0,0,2.55-3.13V539h1.65v-5.53H889Z" transform="translate(-837.44 -497.91)"/><path class="logo__word" d="M887.61,534.18l-.88,1a17.71,17.71,0,0,1,1.37,1.25l1-1.13C888.87,535.12,888.24,534.59,887.61,534.18Z" transform="translate(-837.44 -497.91)"/><path class="logo__word" d="M898,532h-3.34v-1.33h0a.61.61,0,0,0-.61-.61H893V532h-3.25v1.46h2.48c-.5,1.39-2,2.42-3.41,3.38l.94,1.19a8.86,8.86,0,0,0,3.24-3.16V539h1.66v-5.53H898Z" transform="translate(-837.44 -497.91)"/><path class="logo__word" d="M891.5,527.63a16,16,0,0,0,5.12,2.82l1-1.34a15.28,15.28,0,0,1-5.14-2.55Z" transform="translate(-837.44 -497.91)"/><path class="logo__word" d="M896.15,534.22l-.93,1a12.56,12.56,0,0,0,2.22,2.65l1.06-1.19A11.62,11.62,0,0,1,896.15,534.22Z" transform="translate(-837.44 -497.91)"/><path class="logo__word" d="M876.52,528.16A1.22,1.22,0,0,0,875.3,527h-4.65v-1h7.19v-1.53h-7.19v-1.23a.57.57,0,0,0-.56-.57H868.8v1.8h-7.15V526h7.15v1h-5.87v6.47h4.56a17.92,17.92,0,0,1-6.14,3.85l1.1,1.4a18.73,18.73,0,0,0,6.35-4.22V539h1.85v-5.54h5.87Zm-7.72,4h-4.18v-1.26h4.18Zm0-2.58h-4.18v-1.26h4.18Zm6,2.58h-4.12v-1.26h4.12Zm0-2.58h-4.12v-1.26h4.12Z" transform="translate(-837.44 -497.91)"/><path class="logo__word" d="M871.2,535.14a19,19,0,0,0,5.6,3.59l1.25-1.41A17.74,17.74,0,0,1,872.2,534Z" transform="translate(-837.44 -497.91)"/></svg>