<svg id="uMallLogo" data-name="uMallLogo" xmlns="http://www.w3.org/2000/svg" viewBox="0 0 298.96 133.38"><defs><style>.logo__word{fill:#494949;}</style></defs><path class="logo__word" d="M1109.47,568.2a3.52,3.52,0,0,0-2.47-2.54,5.76,5.76,0,0,0-5.65,1c-4.36,3.77-26.77,22.69-39.92,25.43-2.66.57-4.67.23-6-1-1.51-1.45-2-4.08-1.35-7.8.17-.75.31-1.45.44-2.13a26,26,0,0,1,1.2-4.62c.71-3.67,0-6.59-2-8.59-1.64-1.6-7-2.49-9.81-3-1.13-.19-1.93-.33-2.44-.46l-.75-.2.21-.52c0-.12,4.89-12.16.38-16.32a7.18,7.18,0,0,0-7.25-1.89c-4.23,1.35-7.2,5.9-7.93,12.17a11.78,11.78,0,0,0,2,8.25l.09.07a11,11,0,0,0,2,1.79l.86.61-4.19,2.71c-13.75,8.92-26.75,17.34-42.72,18-3.09.14-10.93,0-16.73-4-4.57-3-6.09-6.38-5.1-11.22l0-.16.13-.18.72-.67.15,0a27.54,27.54,0,0,0,14.2-6.61c6.7-6,8.19-12.2,7.44-15.71a5.38,5.38,0,0,0-3.7-4.26c-4-1.23-9.88,1.53-16.1,7.58a31.35,31.35,0,0,0-9.09,15.32l0,.15-.13.18a174.9,174.9,0,0,1-25.44,19.77c-8.63,5.43-15.94,8.47-22.36,9.32-4.89.58-8.46-.18-10.91-2.33-2.36-2-3.78-5.48-4.2-10.38-.55-7.3,1.07-16.93,4.83-28.62l.07-.23.25-.18c13-5,24.5-14.47,33.27-27.57,7.35-11,12.29-23.82,13.2-34.31.38-4,.37-11.16-3.9-14.34-3.05-2.27-6.42-1-8.72.49-4.86,3.12-9.33,9.44-12.27,13.93-5.43,8.24-10.71,18-16.63,30.78a237.35,237.35,0,0,0-10,24.43l-.08.23-.27.19c-10.72,3.4-22.42,3.53-34.91.42l-.69-.17.18-.69a4.79,4.79,0,0,1,.43-1.07c3.37-7.9,6.12-15.09,8.41-22a163.3,163.3,0,0,0,5.61-20.72c2.53-12.85,1.85-22.25-2-28a12.26,12.26,0,0,0-10.6-5.68c-3.61-.08-7.71,1.17-12.23,3.68-14.66,8-32.24,28.92-36.27,50a3.81,3.81,0,0,0,2.28,4.33l.58.25a2.33,2.33,0,0,0,2-.11,2.6,2.6,0,0,0,1.24-1.89c3.61-18.92,20.15-38.48,33.4-45.74,3.9-2.08,7.1-3.08,9.78-3.08a5.64,5.64,0,0,1,5.08,2.38c3.11,4.67,1.69,15.33.57,21.28a152.69,152.69,0,0,1-5.43,19.83c-2.67,8.06-5.81,15.75-8.25,21.55-.27.57-.51,1.12-.75,1.69s-.37.86-.55,1.25l-.27.59-.6-.21c-2-.69-4-1.47-6.59-2.55a2.34,2.34,0,0,0-2,0,2.77,2.77,0,0,0-1.38,1.84l-.15.67a4,4,0,0,0,2.11,4.49l.16.07c1.58.65,3.22,1.32,4.82,1.91l.65.24-.22.66a3.16,3.16,0,0,1-.39.78,278.78,278.78,0,0,1-14.83,28.09c-4.66,7.64-8,12.09-10,13.23-1.36.74-1.77,2.77-.93,4.52l.3.6a3.83,3.83,0,0,0,1.84,1.81,2.42,2.42,0,0,0,2.13-.12c4.08-2.36,9.58-11.29,11.92-15.11a287,287,0,0,0,15.27-28.88,30.3,30.3,0,0,0,1.27-2.79l.24-.61.62.18c12.1,3.48,23.7,4.1,34.46,1.83l1.13-.25-.31,1.14c-2.68,9.79-3.75,18.28-3.17,25.24.62,7.46,3.07,13,7.28,16.56,4,3.38,9.22,4.67,15.6,3.84,7.08-.95,15-4.21,24.32-10a166.84,166.84,0,0,0,21.36-16l.81-.71.32,1c3.29,10.57,14.38,16.5,28.93,15.5,16.17-1.19,43.15-18.26,51-23.47a6.44,6.44,0,0,1,4.36-1l.47.06c1.21.15,2.58.33,3.71.53a3.34,3.34,0,0,1,2.45,1.4c.88,1.35.4,3.2.17,4.09-1.33,4.34-2.42,10.48-.13,15.17a9.75,9.75,0,0,0,3.85,4.32c11.86,7.15,36-10.35,49-19.75,2.79-2,5.14-3.72,6.86-4.82C1109.33,570.62,1109.62,569.13,1109.47,568.2Zm-145-3.62c.39-2.06,8.21-8.63,10.31-9.32a1.1,1.1,0,0,1,1.28.31c.47.59.15,1.34-.48,2.29-1.14,1.73-6.28,7.85-9.77,7.85a2.86,2.86,0,0,1-.67-.08l-.83-.21Zm-62.38-19.32c2.1-5.28,4.34-10.38,6.64-15.17a241.43,241.43,0,0,1,16.11-29.89c2.95-4.41,6.83-9.8,10.72-12.34a7.44,7.44,0,0,1,1.64-.78l.67-.19.2.68a23.44,23.44,0,0,1,.25,5.71c-1,11-6.9,23.17-12.07,30.91a68.57,68.57,0,0,1-23.16,22l-1.75,1Zm132.57,17.57-.49.85-.8-.57a2.91,2.91,0,0,1-.95-2.87c.41-3.92,1.9-7.13,3.53-7.6a1.34,1.34,0,0,1,1.48.46C1038.45,554.43,1037.44,558,1034.66,562.83Z" transform="translate(-810.54 -472.89)"/><path class="logo__word" d="M1031.23,518.07a6.17,6.17,0,0,0,3,.63,5.63,5.63,0,0,0,3-.72,3.77,3.77,0,0,0,1.59-1.87,8.77,8.77,0,0,0,.44-3.11v-7.49h-1.71V513c0,1.62-.26,2.72-.8,3.29a3.52,3.52,0,0,1-2.69.86,3.71,3.71,0,0,1-1.86-.43,2.38,2.38,0,0,1-1.08-1.24,7.24,7.24,0,0,1-.31-2.48v-7.49h-1.71V513a8.64,8.64,0,0,0,.49,3.25A3.57,3.57,0,0,0,1031.23,518.07Z" transform="translate(-810.54 -472.89)"/><rect class="logo__word" x="234.35" y="38.29" width="4.87" height="1.6"/><path class="logo__word" d="M1056.93,507.44l3.74,11h1.54l3.75-10.85v10.85h1.65v-13h-2.3l-3.09,9c-.31.92-.54,1.61-.69,2.08-.13-.42-.34-1.06-.62-1.92l-3.06-9.18h-2.57v13h1.65Z" transform="translate(-810.54 -472.89)"/><path class="logo__word" d="M1075.8,514.55h5.4l1.51,3.93h1.94l-5.28-13h-1.85l-5,13h1.82Zm1.91-5.2a17,17,0,0,0,.7-2.48c.2.71.5,1.6.91,2.69l1.35,3.59h-4.38Z" transform="translate(-810.54 -472.89)"/><polygon class="logo__word" points="286.19 44.06 279.83 44.06 279.83 32.62 278.12 32.62 278.12 45.59 286.19 45.59 286.19 44.06"/><polygon class="logo__word" points="298.94 44.06 292.57 44.06 292.57 32.62 290.87 32.62 290.87 45.59 298.94 45.59 298.94 44.06"/><path class="logo__word" d="M1005.43,519.93a7.1,7.1,0,0,0,3.06-.69l0,3.2a.86.86,0,0,0,.86.85h0a.85.85,0,0,0,.85-.86l-.05-6.46-1.37,1.08a5.45,5.45,0,0,1-3.38,1.16,5.52,5.52,0,0,1-1.27-10.89l.78-.19-.13-.78a5.46,5.46,0,0,1-.07-.9,5.5,5.5,0,1,1,11,0,5.46,5.46,0,0,1-.07.9l-.13.78.78.19a5.52,5.52,0,0,1-1.27,10.89.86.86,0,1,0,0,1.72,7.24,7.24,0,0,0,2.39-14.07c0-.14,0-.27,0-.41a7.21,7.21,0,1,0-14.42,0c0,.14,0,.27,0,.41a7.24,7.24,0,0,0,2.39,14.07Z" transform="translate(-810.54 -472.89)"/></svg>