<svg width="61" height="61" viewBox="0 0 61 61" fill="none" xmlns="http://www.w3.org/2000/svg">
<rect x="0.0195312" y="0.0012207" width="60" height="60" rx="30" fill="black" fill-opacity="0.7"/>
<path fill-rule="evenodd" clip-rule="evenodd" d="M19.4485 17.0349C18.7791 16.5048 17.8039 16.549 17.1855 17.1674C16.5195 17.8334 16.5195 18.9131 17.1855 19.5791L27.6076 30.0012L17.1855 40.4234C16.5195 41.0893 16.5195 42.1691 17.1855 42.8351C17.8039 43.4535 18.7791 43.4977 19.4485 42.9676L19.5973 42.8351L30.0194 32.413L40.4415 42.8351L40.5902 42.9676C41.2596 43.4977 42.2348 43.4535 42.8532 42.8351C43.5192 42.1691 43.5192 41.0893 42.8532 40.4234L32.4311 30.0012L42.8532 19.5791C43.5192 18.9131 43.5192 17.8334 42.8532 17.1674C42.2348 16.549 41.2596 16.5048 40.5902 17.0349L40.4415 17.1674L30.0194 27.5895L19.5973 17.1674L19.4485 17.0349Z" fill="white"/>
<rect x="1.6862" y="1.66789" width="56.6667" height="56.6667" rx="28.3333" stroke="white" stroke-opacity="0.7" stroke-width="3.33333"/>
</svg>
