<svg xmlns="http://www.w3.org/2000/svg" xmlns:xlink="http://www.w3.org/1999/xlink" width="36" height="36" viewBox="0 0 24 24">
    <defs>
        <path id="a" d="M9.859 18.297c-.94 0-1.716.823-1.716 1.852 0 1.028.775 1.851 1.716 1.851.94 0 1.715-.823 1.715-1.851 0-1.029-.747-1.852-1.715-1.852zm8.106 0c-.94 0-1.715.823-1.715 1.852 0 1.028.774 1.851 1.715 1.851.94 0 1.715-.823 1.715-1.851 0-1.029-.775-1.852-1.715-1.852zm4.915-9.68a1.68 1.68 0 0 1-.025.082l-2.317 7.57s-.166 1-1.052 1H8.365c-1.052 0-1.107-1.264-1.107-1.264L5.377 4.808l-3.652-.94c-.526-.147-.83-.647-.692-1.205.111-.558.637-.764 1.162-.617l4.067 1.117c.387.117.664.47.72.881l.523 3.164H22.2a.8.8 0 0 1 .8.8v.189a.796.796 0 0 1-.12.42zm-15.079.38l.066.396 1.19 5.965h9.904s1.029-3.135 1.855-6.361H7.8z"/>
    </defs>
    <g fill="none" fill-rule="evenodd">
        <path fill-rule="nonzero" d="M0 0h24v24H0z"/>
        <use fill="#FFF" xlink:href="#a"/>
    </g>
</svg>
