<svg width="44" height="44" viewBox="0 0 44 44" fill="none" xmlns="http://www.w3.org/2000/svg">
<g clip-path="url(#clip0_1903_20771)">
<rect x="6" y="6" width="32" height="32" rx="16" fill="white" fill-opacity="0.5"/>
<path fill-rule="evenodd" clip-rule="evenodd" d="M15.6575 14.2202C15.2559 13.9021 14.6707 13.9286 14.2997 14.2997C13.9001 14.6993 13.9001 15.3471 14.2997 15.7467L20.553 22L14.2997 28.2533C13.9001 28.6529 13.9001 29.3007 14.2997 29.7003C14.6707 30.0714 15.2559 30.0979 15.6575 29.7798L15.7467 29.7003L22 23.447L28.2533 29.7003L28.3425 29.7798C28.7441 30.0979 29.3293 30.0714 29.7003 29.7003C30.0999 29.3007 30.0999 28.6529 29.7003 28.2533L23.447 22L29.7003 15.7467C30.0999 15.3471 30.0999 14.6993 29.7003 14.2997C29.3293 13.9286 28.7441 13.9021 28.3425 14.2202L28.2533 14.2997L22 20.553L15.7467 14.2997L15.6575 14.2202Z" fill="white"/>
</g>
<defs>
<clipPath id="clip0_1903_20771">
<rect width="44" height="44" fill="white"/>
</clipPath>
</defs>
</svg>
