<svg width="18" height="24" viewBox="0 0 18 24" fill="none" xmlns="http://www.w3.org/2000/svg">
<path d="M14.4112 21.5729C15.4997 20.3359 16.5883 19.0495 17.281 17.5156C17.9737 15.8828 18.1716 14.0026 17.8252 12.2214C17.4789 10.4401 16.6872 8.75781 15.5492 7.32293C15.6481 8.55993 15.2028 9.84637 14.3617 10.7865C14.8565 8.41149 14.0648 5.83856 12.4815 3.95836C10.8982 2.07817 8.72106 0.84113 6.44505 0C7.58306 1.1875 7.73149 3.06769 7.28618 4.65106C6.84087 6.23438 5.90075 7.61981 5.05962 9.05469C4.21849 10.4896 3.42681 11.9739 3.37731 13.6068C2.932 12.7656 2.43719 11.9244 2.14032 10.9844C1.84344 10.0443 1.69501 9.05469 1.94239 8.11457C1.05176 9.20312 0.556955 10.2916 0.309574 11.6771C0.0621929 13.0625 0.111641 14.4974 0.260078 15.8828C0.45801 17.4167 0.853828 19 1.69496 20.2864C2.68453 21.8203 4.26789 22.9088 5.99965 23.5026C9.06743 24.0469 12.0857 23.6016 14.4112 21.5729Z" fill="#EF3636"/>
<path d="M10.6507 23.4036C6.59347 24.987 2.58566 20.1875 4.81222 16.4766C4.81222 16.4271 4.86172 16.4271 4.86172 16.3776C4.66379 18.4063 5.15859 19.8906 6.09871 20.7318C5.60391 19.5443 5.95028 18.1589 6.54403 16.9714C7.13778 15.8334 7.97891 14.7943 8.62215 13.7057C9.2654 12.5677 9.76016 11.2813 9.46328 9.99481C10.6508 10.8854 11.4919 12.2214 11.8383 13.6563C12.1847 15.0911 11.9867 16.6745 11.3435 18.0104C12.0857 17.4662 12.6299 16.5756 12.6794 15.6354C13.4711 16.5756 13.9659 17.8125 13.9164 19.0495C13.9164 20.9792 12.3825 22.7109 10.6507 23.4036Z" fill="#FFD05A"/>
</svg>
