<svg id="etmallLogo" data-name="etmallLogo" xmlns="http://www.w3.org/2000/svg" viewBox="0 0 245.11 83.87"><defs><style>.logo__outer{fill:#b50005;}.logo__word{fill:#fff;}.logo__sub{fill:#231815;}</style></defs><path class="logo__sub" d="M1053.31,526.68a17.83,17.83,0,0,0-9.78,2.7v4.72a14.17,14.17,0,0,1,9.39-3.54q5.92,0,5.92,7.33l-8.62,1.21q-9.51,1.32-9.5,9.39a7.89,7.89,0,0,0,2.43,6,8.65,8.65,0,0,0,5.16,2.18v0a13.85,13.85,0,0,0,1.63.16,9.59,9.59,0,0,0,8.9-4.61v3.85h4.61V537.42Q1063.45,526.68,1053.31,526.68Zm-7.87,21.47c0-1.93.54-3.27,1.63-4a11.28,11.28,0,0,1,4.83-1.59l6.94-.95v2.86a8.6,8.6,0,0,1-2.23,6.09,7.41,7.41,0,0,1-5.66,2.4,5.83,5.83,0,0,1-4-1.34A4.38,4.38,0,0,1,1045.44,548.15Z" transform="translate(-837.43 -498)"/><path class="logo__sub" d="M955.81,552.08H946.3V539.39h12.82v-3.8H946.3V524.46h14.81v-3.92H943.94a2.35,2.35,0,0,0-2.34,2.22l0,0v31.3a1.79,1.79,0,0,0,.56,1.5,2,2,0,0,0,1.2.42h18v-3.92h-5.5Z" transform="translate(-837.43 -498)"/><path class="logo__sub" d="M988.52,520.54H964v4h.73a.64.64,0,0,0,.2,0h10v31.63h4.71V524.54h10a.71.71,0,0,0,.4-.11.93.93,0,0,0,.3-.34,1.84,1.84,0,0,0,.17-.62,5.8,5.8,0,0,0,.06-.9h0v0A2,2,0,0,0,988.52,520.54Z" transform="translate(-837.43 -498)"/><path class="logo__sub" d="M1037.29,522.73a2.35,2.35,0,0,0-2.27-2.18h-5.28l-3.77,9.33L1018,549.1h-.13l-9.56-24.21-1.68-4.35h-7.92v35.63h4.71v-3.52h0V524.4h0l12,31h0l.29.76h4l1-2.45h0l11.82-29.34h0v31.77h4.72V522.75Z" transform="translate(-837.43 -498)"/><path class="logo__sub" d="M1073,556.19V519.87a2.5,2.5,0,0,0-2.5-2.5h0a10.13,10.13,0,0,0-1.21.06,3,3,0,0,0-.78.18.79.79,0,0,0-.39.31.82.82,0,0,0-.11.42v37.85Z" transform="translate(-837.43 -498)"/><path class="logo__sub" d="M1082.54,556.19V519.87a2.5,2.5,0,0,0-2.5-2.5h0a10.31,10.31,0,0,0-1.22.06,3,3,0,0,0-.77.18.79.79,0,0,0-.39.31.82.82,0,0,0-.11.42v37.85Z" transform="translate(-837.43 -498)"/><g id="logoOuter" data-name="logoOuter"><path class="logo__outer" d="M921.27,546.3a.29.29,0,0,1,0,.09c0-.12,0-.23,0-.36s-.49-3.59-.65-6.1a42.83,42.83,0,0,1,.62-6.19c0-.1,0-.19,0-.28a2.78,2.78,0,0,0-.28-1.19,1.78,1.78,0,0,0-.19-.36c-1.84-2.81-13.86-2.58-13.86-2.58,1.82-1.25,7.21-5.12,9.16-9a6.06,6.06,0,0,0-.7-5.8c-1.36-1.84-3.76-3-5-3.92a10.92,10.92,0,0,1-2-1.84,35.87,35.87,0,0,0-3.61-4.79,6.23,6.23,0,0,0-3.2-1.67c-3.28-.26-9.38,8.35-10.51,9.86-.16-4.84-.76-10.09-2.4-12.61,0,0-1.42-1.73-3.15-1.5-.16,0-.53.05-.65.07h0c-.4.07-1.36.22-2.36.35a15.57,15.57,0,0,1-2.5.25l-.36,0h0l-.36,0a15.46,15.46,0,0,1-2.5-.25c-1-.13-2-.28-2.36-.35h0c-.11,0-.49,0-.64-.07a3.59,3.59,0,0,0-3,1.45c-1.65,2.52-2.2,7.58-2.36,12.42-1.13-1.51-5.65-9.85-10.46-9.7a5.07,5.07,0,0,0-4,1.75,35,35,0,0,0-3.61,4.79,11.28,11.28,0,0,1-2,1.84c-1.21.89-3.61,2.08-5,3.92a4.83,4.83,0,0,0-.78,1.45.3.3,0,0,1,0,.1,5.29,5.29,0,0,0-.25,1.49A4.9,4.9,0,0,0,843,520a13.77,13.77,0,0,0,2.41,3.28,55.92,55.92,0,0,0,7,5.84,35.61,35.61,0,0,0-7.9.12c-3.22.49-6,2-6.49,2.69a1.82,1.82,0,0,0-.2.36,2.77,2.77,0,0,0-.27,1.19c0,.09,0,.18,0,.28a43.24,43.24,0,0,1,.61,6.19c-.16,2.51-.65,6.1-.65,6.1s0,.24,0,.36,0-.06,0-.09a4.08,4.08,0,0,0,1.65,3.6c2.26,1.54,6.41,2.88,11.56,3-2,1.51-7.79,5.92-7.94,9.51a4.75,4.75,0,0,0,1.42,3.85c2,2,4.23,2.87,5.49,4.14a25.6,25.6,0,0,1,2.45,3.36h0a15.12,15.12,0,0,0,3.27,3.65c5.61,4,13.17-8.7,13.17-8.7.17,5,.7,9.58,2.49,12a3,3,0,0,0,2.36,1.15h.06a3.5,3.5,0,0,0,.69,0h0a1.2,1.2,0,0,0,.26-.05h0l.85-.13-.24,0c1.09-.17,2.84-.41,4.34-.48h0a43.14,43.14,0,0,1,4.34.48l-.24,0,.85.13h0a1.46,1.46,0,0,0,.27.05h0a3.61,3.61,0,0,0,.69,0h.07a3,3,0,0,0,2.36-1.15c1.78-2.41,3.08-7.32,3.25-12.34,0,0,5.38,8.94,9.62,9.62s8-6.43,8.85-7.25c2.14-2.37,7.71-4.2,7.49-8.24s-5.82-8-7.87-9.55c5.15-.15,8.74-1.21,11-2.75,1-.72,1.35-2.37,1.21-3.91" transform="translate(-837.43 -498)"/><path class="logo__word" d="M856.65,554.67a20.06,20.06,0,0,1,1.43,2.7l1.35-.55a15.92,15.92,0,0,0-1.51-2.67Z" transform="translate(-837.43 -498)"/><path class="logo__word" d="M868.93,551.19a1.35,1.35,0,0,0-1.29-1.21h-2.5v-.51h-1.42V550h-3.66v4.13h-.83v1.11h.83V558h1.5v-2.8h5.82v1.29h0v0a.25.25,0,0,1-.25.24h-1.84l.47,1.28c1.85,0,2.45,0,2.85-.43a1.09,1.09,0,0,0,.32-.86v-1.54h.82v-1.11h-.82Zm-5.21,2.92h-2.13v-1h2.13Zm0-2.07h-2.13v-1h2.13Zm3.67,2.07h-2.13v-1h2.13Zm0-2.07h-2.13v-1h2.13Z" transform="translate(-837.43 -498)"/><path class="logo__word" d="M863.66,549h5.89v-1.16H867v-.89h2.14v-1.1H867v-.93h2.14v-1.15H867v-.88a.58.58,0,0,0-.58-.58h-1v1.46h-2.07v-.87a.58.58,0,0,0-.59-.58h-1v1.45h-2.15v1.15h2.15v.93h-2.15v1.1h2.15v.89h-2.51V549h4.3Zm-.25-4.08h2.08v.93h-2.09Zm0,2h2.09v.89h-2.09Z" transform="translate(-837.43 -498)"/><path class="logo__word" d="M859,544.18a1.34,1.34,0,0,0-1.32-1.31h-3.91v10.75h1.06a1.49,1.49,0,0,1-.11.46,11.12,11.12,0,0,1-1.86,3l1.18.8a10.11,10.11,0,0,0,1.82-3,5.36,5.36,0,0,0,.35-1.31H859Zm-3.77,0h2.3v1.91h-2.3Zm0,3.12h2.3v1.9h-2.3Zm0,5.06v-2h2.3v2Z" transform="translate(-837.43 -498)"/><path class="logo__word" d="M887.18,545.29h-6a17.27,17.27,0,0,0,.59-3l-1.64-.32s0,2.29-2.26,7.44l1.71.33a30.62,30.62,0,0,0,1.11-3h1c-.65,3.16-1.91,6.86-3.66,8.8l1.5.71c1.66-2.14,3-6.23,3.57-9.51h3.44c-.27,6.45-.56,8.85-1,9.4a.72.72,0,0,1-.58.29h-1.11l.57,1.55h0c1.26,0,2-.12,2.54-.79s.92-3.48,1.23-10.94h0a1,1,0,0,0-1-1" transform="translate(-837.43 -498)"/><path class="logo__word" d="M884.08,547.34c-.49,3.49-1.51,7.39-3.18,9.61l1.48.7c1.54-2.34,2.54-6.49,3-10Z" transform="translate(-837.43 -498)"/><path class="logo__word" d="M878.65,550.54l-1.94.34v-4h1.86v-1.55h-1.86v-2.7a.59.59,0,0,0-.58-.58h-1.06v3.28H873.9c.07-.57.1-.92.14-1.41h0l.05-.65-1.44-.28a27.5,27.5,0,0,1-1.11,6.41l1.53.29a17.8,17.8,0,0,0,.65-2.81h1.36v4.33c-1.21.23-2.67.51-3.54.65l.57,1.55,3-.64v5.32h1.64v-5.68l2.43-.52Z" transform="translate(-837.43 -498)"/><path class="logo__word" d="M894.19,549.76c.24.58.4,1,.49,1.27a6.09,6.09,0,0,1-1.83.25,22.53,22.53,0,0,0,3.53-6.13l-1.51-.51a16.16,16.16,0,0,1-1,2.21,8.14,8.14,0,0,1-1.36.11,28.68,28.68,0,0,0,2.09-4.28l-1.57-.41a23.06,23.06,0,0,1-2,4.72l-.32,0h-.52l.25,1.4c.54,0,1.5-.08,2.88-.2a16.07,16.07,0,0,1-2.17,3.16l-.41,0h-.52l.41,1.48.61-.06a27,27,0,0,1-1.12,4.7l1.38.42a26.57,26.57,0,0,0,1-5.26c1.07-.12,1.9-.23,2.47-.34a1.19,1.19,0,0,1,.06.29c0,.12.05.23.07.3l1.36-.38a15.94,15.94,0,0,0-1.09-3.12Z" transform="translate(-837.43 -498)"/><path class="logo__word" d="M892.8,553.56a18.64,18.64,0,0,1,.13,2.2c0,.57,0,1.14,0,1.71l1.5-.07a20.7,20.7,0,0,0-.35-3.92Z" transform="translate(-837.43 -498)"/><path class="logo__word" d="M904.12,542.81h-7.5v15.24h1.46l0-6.34h1.11v1.67a2.26,2.26,0,0,0,.42,1.59,2.2,2.2,0,0,0,1.51.41h2.36v-.54a.82.82,0,0,0-.87-.75h-1.42c-.43,0-.64-.26-.64-.79v-1.59h3.58v4.07q0,.54-.6.54l-1.77-.08.47,1.57h1.65a1.67,1.67,0,0,0,1.36-.42,2.52,2.52,0,0,0,.34-1.56V544.1a1.39,1.39,0,0,0-1.48-1.29m0,7.6h-2a12.4,12.4,0,0,0-.89-1.75l-1.34.27a12,12,0,0,1,.74,1.48h-2.51v-1.95h6Zm0-3.25h-1.24a9.83,9.83,0,0,0,.69-2.27l-1.41-.28a11.62,11.62,0,0,1-.71,2.55h-.72a25.73,25.73,0,0,0-.83-2.52l-1.38.24a14.33,14.33,0,0,1,.84,2.28h-1.29v-3h6Z" transform="translate(-837.43 -498)"/><path class="logo__word" d="M894.38,553.4a22.33,22.33,0,0,1,.77,3.65l1.31-.37a17.84,17.84,0,0,0-.94-3.5Z" transform="translate(-837.43 -498)"/><path class="logo__word" d="M883,529.64a15.27,15.27,0,0,0,6.35-4.25v4.75h1.92V525h6.69v-1.55h-6.69v-1.27a.66.66,0,0,0-.65-.64H889.3v1.91h-6.7V525h4.89a14.76,14.76,0,0,1-5.62,3.23Z" transform="translate(-837.43 -498)"/><path class="logo__word" d="M889.56,531.5h-2.94v-1.43a.64.64,0,0,0-.64-.64h-1.11v2.07h-3.48v1.55H884a7,7,0,0,1-2.91,3.5l1,1.33a9,9,0,0,0,2.71-3.34v4.39h1.75v-5.88h2.94Z" transform="translate(-837.43 -498)"/><path class="logo__word" d="M888.08,533.82l-.93,1c.59.51,1.14,1,1.45,1.34l1.07-1.2c-.25-.18-.92-.75-1.59-1.19" transform="translate(-837.43 -498)"/><path class="logo__word" d="M899.15,531.5H895.6v-1.42h0a.65.65,0,0,0-.64-.65h-1.13v2.07h-3.46v1.55H893c-.53,1.48-2.14,2.57-3.63,3.59l1,1.27a9.35,9.35,0,0,0,3.44-3.37v4.39h1.77v-5.88h3.55Z" transform="translate(-837.43 -498)"/><path class="logo__word" d="M892.22,526.86a17.06,17.06,0,0,0,5.45,3l1-1.43a16.2,16.2,0,0,1-5.47-2.71Z" transform="translate(-837.43 -498)"/><path class="logo__word" d="M897.17,533.86l-1,1.12a13.48,13.48,0,0,0,2.37,2.83l1.13-1.27a12,12,0,0,1-2.5-2.68" transform="translate(-837.43 -498)"/><path class="logo__word" d="M876.29,527.42a1.31,1.31,0,0,0-1.3-1.26h-5v-1h7.64V523.5H870v-1.31a.62.62,0,0,0-.59-.61h-1.38v1.92h-7.6v1.62h7.6v1h-6.24v6.89h4.85a19.46,19.46,0,0,1-6.53,4.1l1.16,1.49a19.88,19.88,0,0,0,6.76-4.5v4.8h2v-5.89h6.25Zm-8.22,4.22h-4.44V530.3h4.44Zm0-2.74h-4.44v-1.34h4.44Zm6.35,2.74H870V530.3h4.38Zm0-2.74H870v-1.34h4.38Z" transform="translate(-837.43 -498)"/><path class="logo__word" d="M870.63,534.85a20.54,20.54,0,0,0,6,3.82l1.33-1.5a19,19,0,0,1-6.22-3.52Z" transform="translate(-837.43 -498)"/></g></svg>