<svg width="24" height="24" viewBox="0 0 24 24" fill="none" xmlns="http://www.w3.org/2000/svg">
<circle cx="12" cy="12" r="12" fill="white"/>
<path fill-rule="evenodd" clip-rule="evenodd" d="M18.1079 9.31678C18.6031 9.43659 21.1147 10.0356 21.6146 11.0931C22.4112 12.782 21.1362 14.9339 19.3829 14.6251C18.4667 14.4639 16.4646 13.3833 15.8737 13.5492C15.5317 13.6459 11.2499 15.3924 11.7714 17.4383C12.202 19.1248 11.5681 21.2306 8.64738 20.9795C7.47528 20.8781 6.66677 19.8598 6.58066 18.9382C6.41082 17.072 5.74583 15.8393 3.892 14.9823C1.53345 13.8902 1.35883 10.3236 4.6144 9.54718C5.99461 9.21771 8.97988 11.8742 9.26931 12.3765C10.6304 11.3604 11.958 10.4066 13.2257 9.3882C13.4339 9.22232 13.5941 6.26632 13.984 5.29635C14.6586 3.61905 16.5052 3.39557 17.8209 4.6904C18.914 5.76866 19.0121 7.05428 18.1079 9.31678Z" fill="#43CCFA"/>
</svg>
