<?xml version="1.0" encoding="utf-8"?>
<!-- Generator: Adobe Illustrator 15.0.0, SVG Export Plug-In . SVG Version: 6.00 Build 0)  -->
<!DOCTYPE svg PUBLIC "-//W3C//DTD SVG 1.1//EN" "http://www.w3.org/Graphics/SVG/1.1/DTD/svg11.dtd">
<svg version="1.1" id="圖層_1" xmlns="http://www.w3.org/2000/svg" xmlns:xlink="http://www.w3.org/1999/xlink" x="0px" y="0px"
	 width="226.451px" height="96.27px" viewBox="0 0 226.451 96.27" enable-background="new 0 0 226.451 96.27" xml:space="preserve">
<g>
	<defs>
		<rect id="SVGID_1_" y="0" width="226.451" height="96.27"/>
	</defs>
	<clipPath id="SVGID_2_">
		<use xlink:href="#SVGID_1_"  overflow="visible"/>
	</clipPath>
	<path clip-path="url(#SVGID_2_)" fill="#FFFFFF" d="M77.833,71.184c-0.233-2.805-0.597-7.693-0.881-11.092
		c-0.093-0.414-0.095-1.18-0.718-1.524c-0.153-0.089-0.335-0.128-0.508-0.128c-0.399,0.003-0.78,0.197-1.017,0.518l-0.03,0.039
		l-0.01,0.043c-1.379,5.107-2.799,10.105-5.522,14.764c-0.183-1.334-0.329-2.709-0.329-3.959c0-0.166,0.004-0.328,0.01-0.49
		c-0.125-0.93-0.103-2.102-1.199-2.629c-0.184-0.039-0.37-0.129-0.607-0.135c-0.219-0.018-0.483,0.152-0.575,0.426
		c-0.021,0.095-0.019,0.121-0.019,0.139c-0.002,0.313,0.178,0.598,0.459,0.75c0.254,0.525,0.306,1.1,0.306,1.723
		c0,0.371-0.017,0.756-0.017,1.149c0,0.372,0.015,0.753,0.083,1.136c0.148,1.236,0.116,2.551,0.711,3.697
		c0.244,0.436,0.719,0.686,1.204,0.688c0.036,0,0.07,0,0.105-0.002l0.073-0.004l0.057-0.043c0.898-0.654,1.199-1.715,1.586-2.533
		c1.693-3.797,3.04-7.736,4.359-11.648c0.209,2.262,0.263,4.311,0.541,6.762c0.434,3.646,1.08,8.846,1.483,13.127
		c0.023,0.193,0.038,0.393,0.038,0.6c0,0.643-0.136,1.369-0.504,2.035c-0.761,1.352-1.971,2.494-3.415,2.525
		c-0.074,0-0.148,0.002-0.22,0.002c-2.798,0.002-5.158-1.428-7.42-3.189l-0.075-0.057l-0.093,0.006
		c-0.331,0.033-0.582,0.291-0.597,0.646c-0.003,0.152,0.068,0.318,0.195,0.439c1.351,1.59,3.137,2.49,4.878,3.121
		c0.974,0.322,2.069,0.539,3.165,0.539c0.576,0,1.152-0.059,1.711-0.199c1.364-0.611,2.762-1.732,3.542-3.139l-0.22-0.121
		l0.222,0.112c0.318-0.62,0.546-1.304,0.546-2.021c0-0.143-0.008-0.285-0.027-0.43C78.776,79.901,78.028,74.061,77.833,71.184
		 M55.266,61.01l0.123-0.029c0.322-0.079,0.642-0.113,0.962-0.113c0.457,0,0.908,0.074,1.355,0.209
		c1.549,0.439,2.989,1.652,4.021,2.99l0.066,0.088l0.112,0.008c0.049,0.004,0.106,0.008,0.171,0.008c0.299,0,0.71-0.186,0.71-0.625
		c0-0.049-0.004-0.103-0.015-0.158c-0.138-0.85-1.015-1.781-1.58-2.357c-1.083-0.713-2.188-1.455-3.468-1.756
		c-0.362-0.078-0.731-0.123-1.105-0.123c-0.587,0-1.193,0.115-1.782,0.412l-0.055,0.029l-0.038,0.055
		c-0.089,0.129-0.129,0.271-0.129,0.408c0.019,0.463,0.385,0.719,0.555,0.875L55.266,61.01z M60.701,73.26
		c-0.051,0-0.098,0.002-0.14,0.006c-0.795,0.086-1.197,0.766-1.576,1.238c-0.944,1.76-1.655,3.549-2.793,5.139
		c-2.109-2.418-3.327-5.336-4.205-8.461c2.315-1.895,4.893-3.578,7.402-5.305c0.195-0.162,0.297-0.361,0.295-0.56
		c0-0.315-0.257-0.585-0.589-0.585c-0.087-0.004-0.174,0.016-0.254,0.051c-2.556,1.338-4.943,2.969-7.277,4.643
		c-0.097-0.389-0.139-0.787-0.139-1.182c0-0.471,0.061-0.941,0.163-1.387c0.11-0.54,0.394-0.836,0.8-1.068
		c0.534-0.326,1.236-0.516,1.841-0.787l0.058-0.027l0.038-0.049c0.053-0.072,0.099-0.166,0.099-0.279
		c-0.036-0.387-0.394-0.502-0.798-0.504c-0.066,0-0.13,0.004-0.197,0.012l-0.047,0.004l-0.038,0.021
		c-0.426,0.219-1.193,0.129-1.847,0.268c-1.042,0.514-1.496,1.375-1.644,2.293c-0.051,0.301-0.07,0.615-0.07,0.938
		c0,0.979,0.184,2.012,0.293,2.904c-0.966,0.74-1.737,1.115-2.722,1.998c-0.106,0.117-0.151,0.246-0.149,0.357
		c0.024,0.363,0.282,0.543,0.449,0.662l0.059,0.035h0.073c0.027,0,0.065,0.002,0.112,0.002c0.629,0,1.142-0.279,1.576-0.605
		c0.472-0.365,0.652-0.543,1.001-0.779c1.06,3.172,2.447,6.246,4.762,8.836c-0.88,1.076-1.703,2.324-2.77,2.949
		c-0.055,0.008-0.104,0.012-0.146,0.012c-0.638,0.029-1.062-0.719-1.814-1.137l-0.3-0.156l-0.059,0.338
		c-0.016,0.082-0.02,0.164-0.02,0.242c0.004,0.588,0.284,1.164,0.695,1.59c0.462,0.484,0.992,0.645,1.534,0.688
		c0.923-0.121,1.586-0.551,2.16-1.084c0.716-0.676,1.324-1.539,1.922-2.232c0.956,0.813,1.853,1.938,3.203,2.188
		c0.34,0.075,0.783,0.159,1.236,0.159c0.623,0.006,1.314-0.164,1.71-0.795l-0.211-0.133l0.234,0.084
		c0.452-1.25,0.638-2.643,0.638-4.057c0-1.826-0.308-3.697-0.763-5.359C62.092,73.715,61.444,73.262,60.701,73.26 M61.366,82.531
		c-0.15,0.229-0.215,0.336-0.373,0.37c-0.085,0.009-0.189,0.015-0.29,0.015c-1.201,0.014-2.318-1.002-3.277-1.99
		c1.363-1.92,1.954-4.041,3.183-5.84c0.086-0.139,0.363-0.31,0.483-0.295c0.07,0.016,0.075-0.012,0.136,0.137
		c0.35,1.299,0.523,2.701,0.523,4.09C61.751,80.223,61.622,81.418,61.366,82.531 M86.54,54.26c0-0.342-0.193-0.609-0.419-0.797
		c-0.149-0.094-0.278-0.119-0.39-0.119c-0.325,0.006-0.62,0.188-0.751,0.49c-0.223,0.791-0.314,1.566-0.312,2.338
		c0,2.549,0.976,5.061,1.779,7.258c0.096,0.189,0.206,0.691,0.742,0.719c0.047,0,0.091-0.002,0.138-0.01l0.031-0.008l0.033-0.014
		c0.47-0.23,0.528-0.705,0.58-1.037l0.009-0.061l-0.017-0.055c-0.566-1.762-1.346-3.379-1.498-5.242
		c1.313-0.592,2.636-1.141,4.129-1.141c0.032,0,0.072,0.002,0.117,0.002l0.056,0.002c0.052,0.021,0.153,0.121,0.198,0.225
		c-0.169,0.621-0.515,1.742-0.678,2.291c-0.202,0.633-0.772,1.24-0.908,2.078l-0.01,0.07l0.03,0.067
		c0.116,0.253,0.357,0.493,0.712,0.503c0.119,0,0.25-0.035,0.364-0.115c1.109-1.16,1.516-2.49,2.371-3.629
		c0.72-0.926,1.358-1.986,2.035-2.885c0.087,1.73,0.26,3.393,0.698,4.977l0.012,0.041l0.024,0.037
		c0.178,0.256,0.436,0.523,0.831,0.525c0.057,0.002,0.119-0.004,0.18-0.018l0.093-0.019l0.057-0.071
		c0.229-0.287,0.314-0.615,0.312-0.926c-0.01-0.717-0.375-1.395-0.364-1.921c0-0.017,0.002-0.038,0.004-0.063
		c0-0.051-0.002-0.072-0.002-0.086c-0.002-0.652-0.2-1.299-0.195-1.834c0-0.133,0.01-0.254,0.035-0.369
		c0.722-0.219,1.575-0.346,2.398-0.346c0.575,0,1.137,0.063,1.633,0.201c0.161,0.1,0.242,0.195,0.253,0.338
		c-0.737,1.184-1.635,2.373-2.708,3.367l-0.036,0.033l-0.019,0.039c-0.062,0.138-0.206,0.334-0.214,0.615
		c-0.002,0.127,0.044,0.271,0.137,0.385c0.134,0.236,0.42,0.4,0.725,0.396c0.073,0,0.151-0.009,0.229-0.027l0.066-0.014l0.051-0.047
		c1.845-1.756,3.855-3.121,5.922-4.529L105,55.875c0.163-0.109,0.24-0.234,0.263-0.453c0.002-0.072-0.024-0.174-0.103-0.25
		c-0.078-0.076-0.181-0.1-0.262-0.098h-0.015h-0.034h-0.008c-1.029,0.008-1.84,0.527-2.585,0.998c0.139-0.26,0.24-0.547,0.244-0.889
		v-0.025c-0.038-0.469-0.275-0.93-0.742-1.123c-0.844-0.343-1.8-0.468-2.763-0.468c-0.86,0-1.726,0.104-2.529,0.259
		c-0.003-0.051-0.004-0.105-0.004-0.162c0-0.133,0.008-0.279,0.008-0.429c-0.002-0.202-0.008-0.413-0.095-0.616
		c-0.132-0.289-0.435-0.52-0.846-0.527c-0.354,0.035-0.545,0.219-0.732,0.351l-0.072,0.052l-0.023,0.088
		c-0.339,1.311-1.307,2.568-2.265,3.711c-0.025-0.232-0.095-0.465-0.232-0.674c-0.342-0.533-0.899-0.648-1.379-0.643
		c-0.193,0-0.384,0.016-0.561,0.029c-1.454,0.086-2.738,0.633-3.952,1.068c0.011-0.549,0.081-1.098,0.207-1.621
		C86.533,54.379,86.54,54.317,86.54,54.26 M98.841,70.289c0.116-0.002,0.286,0.028,0.483,0.031c0.072,0,0.151-0.004,0.236-0.02
		l0.06-0.012l0.049-0.039c0.06-0.064,0.387-0.188,0.405-0.578v-0.088l-0.023-0.047c-0.256-0.488-0.759-0.479-1.001-0.572
		c-0.046-0.025-0.127-0.037-0.191-0.035c-0.098,0.002-0.166,0.016-0.21,0.023c-0.135-1.588-0.348-3.574-0.648-5.17
		c-0.424-1.105-1.406-2.156-2.695-2.385c-0.027-0.008-0.07-0.008-0.095-0.008c-0.206,0.023-0.5,0.031-0.573,0.427
		c0.005,0.168,0.107,0.278,0.21,0.351c0.333,0.207,0.893,0.721,1.16,1.021c0.559,0.543,0.58,1.381,0.647,2.275
		c-0.904-0.416-1.889-0.416-2.816-0.523c0.018-0.541,0.13-1.102,0.132-1.734c0-0.039,0-0.074-0.003-0.109
		c0.136-0.541,0.52-1.131,0.616-1.816l0.046-0.371l-0.36,0.098c-1.082,0.313-1.675,1.506-1.836,2.439
		c-0.174,1.021-0.244,2.064-0.244,3.119c0,2.477,0.392,5.001,0.773,7.432c0.191,0.65,0.283,1.643,1.226,1.914l0.235,0.061
		l0.068-0.23c0.083-0.273,0.092-0.539,0.092-0.801v-0.24c0.614,0.434,1.283,0.762,2.068,0.764c0.151,0,0.306-0.014,0.467-0.039
		c1.094-0.422,1.53-1.258,1.628-2.131c0.029-0.264,0.042-0.519,0.04-0.771c0-0.709-0.087-1.389-0.087-2.053
		c0-0.053,0.001-0.107,0.003-0.164C98.731,70.297,98.771,70.291,98.841,70.289 M96.914,67.996c0.036,0.438,0.078,0.946,0.108,1.303
		c-0.598,0.219-1.335,0.592-2.031,1C95.607,69.57,96.398,68.709,96.914,67.996 M94.027,69.539c-0.08-1.002-0.074-1.982-0.088-3.018
		c0.731,0.027,1.398,0.148,2.022,0.447C95.456,67.91,94.791,68.658,94.027,69.539 M97.075,73.498v0.004
		c-0.051,0.156-0.167,0.26-0.327,0.305c-0.003-0.002-0.018-0.004-0.038-0.004s-0.046,0.002-0.07,0.002
		c-0.867,0.006-1.708-0.629-2.317-1.395c0.005-0.002-0.006-0.063-0.003-0.123v-0.012c0.876-0.615,1.916-1.148,2.8-1.451
		c0.025,0.236,0.035,0.463,0.035,0.688C97.155,72.15,97.075,72.771,97.075,73.498 M108.002,73.635
		c-0.369,0.004-0.721,0.148-0.946,0.16l-0.038,0.002l-0.036,0.016c-1.787,0.729-3.456,1.662-5.198,2.283
		c-0.047-0.485-0.014-1.123-0.626-1.543c-0.206-0.246-0.557-0.42-0.937-0.418c-0.123,0-0.248,0.02-0.371,0.055l-0.047,0.014
		l-0.036,0.031c-1.468,1.167-2.484,2.826-3.574,4.305c-1.055,0.362-2.053,0.814-3.044,1.146c-0.101-0.787-0.059-1.588-0.497-2.361
		c-0.231-0.545-0.766-1.002-1.433-1.049l-0.107-0.008l-0.078,0.072c-0.22,0.195-0.297,0.467-0.29,0.697
		c0,0.057,0.002,0.113,0.008,0.168l0.009,0.092l0.068,0.063c0.675,0.608,0.602,1.888,0.763,2.931
		c-1.337,0.537-3.892,1.082-5.222,1.479c-0.416,0.094-0.88,0.23-1.294,0.229c-0.069,0-0.137-0.004-0.202-0.01
		c0.227-0.396,0.739-0.807,1.025-1.391l0.115-0.246l-0.253-0.094c-0.049-0.018-0.083-0.018-0.097-0.018
		c-0.009,0-0.013,0.002-0.013,0c-0.492,0.02-0.801,0.383-1.071,0.494l-0.04,0.02l-0.03,0.029c-0.428,0.461-1.475,0.879-1.507,1.922
		c0,0.025,0,0.043,0.002,0.051l0.002,0.08l0.049,0.063c0.502,0.652,1.255,0.738,1.906,0.736c0.152,0,0.301-0.004,0.445-0.006
		c2.392-0.363,4.18-0.953,6.33-1.576c0.026,0.758,0.083,1.867,0.094,2.486c0,0.52,0.089,1.125,0.668,1.416
		c0.138,0.061,0.291,0.098,0.456,0.098c0.218,0,0.471-0.064,0.649-0.271c1.133-2.039,2.149-4.018,3.452-5.928
		c1.187-0.43,2.293-1.072,3.417-1.402c0.07,1.18,0.095,3.447,0.095,5.764c0,2.812-0.032,5.709-0.046,6.881
		c-0.212,1.48,0.18,3.074-0.817,4.1c-0.118,0.215-0.237,0.402-0.243,0.654c-0.003,0.107,0.036,0.234,0.12,0.33l0.077,0.09
		l0.12-0.004c0.961-0.057,1.579-1.002,1.852-1.711c0.402-2.191,0.619-6.906,0.621-11.029c-0.002-2.314-0.068-4.436-0.216-5.809
		c1.441-0.705,4.713-2.191,6.218-2.895l-0.105-0.225l0.126,0.213c0.162-0.104,0.452-0.268,0.469-0.645v-0.099l-0.036-0.058
		C108.545,73.727,108.241,73.625,108.002,73.635 M93.448,82.988c-0.025-0.546-0.058-1.137-0.093-1.59
		c0.424-0.186,0.868-0.359,1.319-0.543C94.253,81.557,93.839,82.271,93.448,82.988 M100.253,76.779
		c-0.452,0.178-1.082,0.438-1.629,0.672c0.451-0.584,1.017-1.3,1.465-1.811c0.026,0.043,0.047,0.115,0.047,0.158
		c0,0.016-0.002,0.025-0.002,0.029l0.25,0.018l-0.246,0.047C100.203,76.234,100.226,76.459,100.253,76.779 M127.175,54.776
		c0-0.198-0.133-0.452-0.402-0.454c-0.084,0-0.167,0.027-0.233,0.072c-1.017,0.471-1.824,1.521-2.724,2.215
		c-0.237-0.25-0.555-0.588-1.052-0.602c-0.036,0-0.064,0.002-0.083,0.004l-0.113,0.014l-0.063,0.088
		c-0.109,0.15-0.152,0.322-0.152,0.473c0.014,0.406,0.241,0.723,0.351,0.98c-1.769,1.486-3.409,3.107-5.031,4.844
		c-1.114-1.494-2.079-3.154-3.316-4.656l-0.055-0.066l-0.078-0.018c-0.119-0.027-0.431-0.119-0.725-0.119
		c-0.038,0-0.066,0-0.093,0.002l-0.081,0.006l-0.061,0.055c-0.1,0.1-0.378,0.247-0.4,0.619c-0.002,0.115,0.04,0.232,0.111,0.334
		c0.895,1.293,2.473,3.535,3.592,5.215c-0.653,0.766-1.323,1.863-1.998,2.836c-0.592,0.85-1.148,1.771-1.15,2.881
		c0,0.197,0.02,0.398,0.058,0.604c0.179,0.77,0.88,1.281,1.434,1.637l0.032,0.02l0.034,0.01c0.425,0.123,0.84,0.182,1.242,0.182
		h0.02c0.709,0.004,1.366-0.174,1.968-0.453c1.279-0.563,2.06-1.256,3.036-2.273c0.457,0.439,1.211,1.172,1.825,1.756l0.058,0.057
		l0.085,0.012c0.063,0.002,0.241,0.074,0.455,0.078c0.169,0.012,0.419-0.092,0.517-0.322l0.032-0.072l-0.014-0.072
		c-0.212-1.189-1.317-1.855-1.918-2.658c1.551-2.195,2.492-4.688,2.492-7.367c0-0.914-0.109-1.848-0.338-2.797
		c0.37-0.389,1.001-1.037,1.381-1.326l-0.153-0.197h0.001l0.195,0.152c0.333-0.449,1.018-0.799,1.288-1.496
		C127.169,54.881,127.175,54.828,127.175,54.776 M116.299,70.395c-0.469-0.131-0.866-0.188-1.038-0.563
		c-0.069-0.133-0.094-0.254-0.096-0.385c-0.009-0.428,0.33-0.963,0.569-1.498c0.604-1.132,1.059-1.816,1.824-2.816
		c0.812,0.99,1.678,1.967,2.508,2.914C118.949,69.365,117.997,70,116.299,70.395 M121.173,66.646
		c-0.848-0.85-1.676-1.861-2.443-2.883c1.291-1.67,2.807-3.158,4.35-4.645c0.07,0.484,0.105,0.961,0.107,1.432
		C123.185,62.744,122.438,64.773,121.173,66.646 M143.895,63.416c-1.236,0.004-2.402,0.49-3.521,0.689
		c-0.852-0.969-1.83-1.678-2.575-2.234c-0.424-0.285-0.742-0.621-0.901-1.115c0.096-1.809,1.296-3.295,1.861-5.1
		c0.073-0.264,0.109-0.516,0.107-0.758c-0.003-0.947-0.5-1.744-1.043-2.396c-1.621-1.258-3.351-1.992-5.214-2.191
		c-0.203-0.023-0.408-0.034-0.611-0.034c-1.478-0.001-3.028,0.573-3.759,2.058c-0.061,0.055-0.095,0.188-0.097,0.317
		c-0.002,0.206,0.101,0.444,0.342,0.562c0.123,0.035,0.197,0.043,0.273,0.043c0.267,0,0.483-0.104,0.635-0.189
		c0.7-0.74,1.629-1.145,2.583-1.145c0.177,0,0.354,0.014,0.533,0.043c1.729,0.311,3.654,1.021,4.553,2.547
		c0.001,0.045,0.003,0.088,0.003,0.127c0.005,1.736-0.98,3.248-1.561,4.99c-0.106,0.307-0.155,0.606-0.155,0.889
		c0,0.715,0.318,1.314,0.749,1.824c0.66,0.807,1.668,1.48,2.418,2.17c-3.827,0.889-7.291,2.197-10.856,4.148
		c-0.344,0.258-0.763,0.604-0.775,1.157c0,0.042,0.006,0.071,0.006,0.084l0.002,0.034l0.012,0.029
		c0.196,0.475,0.671,0.428,0.788,0.48l0.099,0.029l0.095-0.049c1.096-0.6,2.573-1.363,3.308-1.725
		c2.551-1.291,5.344-2.158,8.253-2.709c0.2,0.393,0.287,0.836,0.287,1.295c0,0.721-0.212,1.479-0.496,2.1
		c-0.943,1.855-2.247,4.035-3.919,5.553c-0.966,0.871-2.073,1.498-3.279,1.721c-0.151,0.025-0.294,0.041-0.429,0.041
		c-1.149,0.01-2.172-0.963-3.006-1.918c-0.191-0.174-0.396-0.549-0.859-0.572c-0.099-0.002-0.192,0.023-0.282,0.064l-0.218,0.096
		l0.085,0.221c0.114,0.295,0.328,0.799,0.381,0.947l0.014,0.037l0.022,0.029c0.928,1.215,2.279,2.674,4.029,2.689
		c0.172,0,0.35-0.016,0.53-0.047c1.484-0.211,2.757-0.895,3.862-1.82c1.472-1.211,2.64-2.785,3.627-4.377
		c0.782-1.531,1.652-3.084,1.654-4.904c0.002-0.324-0.026-0.658-0.089-1.004c-0.101-0.252-0.208-0.459-0.256-0.602
		c1.415-0.379,2.38-0.494,3.877-0.578l-0.015-0.248l0.021,0.248c0.379-0.047,0.685-0.338,0.699-0.725
		c0.005-0.199-0.113-0.408-0.31-0.531C144.849,63.488,144.363,63.416,143.895,63.416 M46.422,77.225
		c-1.234,0.004-2.402,0.49-3.523,0.689c-0.853-0.969-1.828-1.679-2.574-2.236c-0.423-0.281-0.741-0.621-0.903-1.113
		c0.098-1.807,1.299-3.295,1.861-5.1c0.076-0.264,0.11-0.516,0.11-0.76c-0.002-0.945-0.5-1.74-1.04-2.391
		c-1.626-1.262-3.357-1.994-5.216-2.193c-0.207-0.023-0.415-0.033-0.623-0.033c-1.477-0.004-3.02,0.576-3.748,2.057
		c-0.064,0.055-0.096,0.191-0.096,0.318c-0.002,0.205,0.102,0.443,0.339,0.559c0.125,0.037,0.2,0.045,0.273,0.045
		c0.27-0.002,0.49-0.104,0.643-0.197c0.693-0.73,1.621-1.137,2.572-1.135c0.18,0,0.36,0.012,0.539,0.045
		c1.729,0.303,3.657,1.016,4.553,2.543c0.002,0.041,0.003,0.082,0.003,0.12c0.004,1.737-0.982,3.25-1.564,4.993
		c-0.106,0.307-0.155,0.605-0.155,0.887c0,0.717,0.318,1.32,0.75,1.834c0.657,0.801,1.666,1.475,2.418,2.164
		c-3.829,0.891-7.293,2.201-10.852,4.148c-0.348,0.26-0.769,0.604-0.78,1.158c0,0.029,0,0.057,0.005,0.084l0.002,0.031l0.012,0.033
		c0.198,0.469,0.668,0.428,0.788,0.48l0.1,0.031l0.093-0.052c1.1-0.601,2.577-1.368,3.311-1.726
		c2.551-1.293,5.345-2.156,8.252-2.703c0.201,0.391,0.285,0.832,0.285,1.291c0.003,0.719-0.212,1.475-0.493,2.098
		c-0.945,1.855-2.249,4.037-3.921,5.555c-0.968,0.869-2.072,1.496-3.278,1.719c-0.15,0.027-0.292,0.039-0.43,0.043
		c-1.149,0.01-2.172-0.965-3.007-1.92c-0.187-0.174-0.392-0.547-0.856-0.57c-0.096,0-0.191,0.021-0.282,0.063l-0.216,0.096
		l0.084,0.222c0.111,0.294,0.327,0.798,0.378,0.944l0.013,0.033l0.023,0.035c0.93,1.215,2.278,2.676,4.028,2.689
		c0.174,0,0.35-0.014,0.53-0.045c1.486-0.213,2.759-0.895,3.863-1.823c1.471-1.212,2.639-2.784,3.626-4.378
		c0.784-1.529,1.655-3.084,1.657-4.902c0-0.328-0.027-0.662-0.089-1.004c-0.099-0.25-0.205-0.457-0.254-0.602
		c1.415-0.379,2.378-0.494,3.874-0.578l-0.013-0.25l0.023,0.248c0.378-0.045,0.683-0.334,0.695-0.721
		c0.004-0.199-0.11-0.408-0.307-0.533C47.378,77.297,46.895,77.225,46.422,77.225 M29.705,68.58c0-0.203-0.142-0.447-0.403-0.449
		c-0.091,0-0.17,0.029-0.233,0.07c-1.021,0.473-1.827,1.52-2.725,2.215c-0.237-0.25-0.554-0.586-1.051-0.602
		c-0.045,0-0.072,0.006-0.083,0.008l-0.117,0.01l-0.063,0.096c-0.104,0.146-0.149,0.316-0.146,0.469
		c0.014,0.402,0.237,0.721,0.348,0.979c-1.769,1.484-3.409,3.109-5.034,4.846c-1.112-1.492-2.076-3.154-3.314-4.656L16.831,71.5
		l-0.078-0.021c-0.119-0.027-0.435-0.119-0.731-0.121c-0.039,0-0.068,0.003-0.09,0.003l-0.082,0.011l-0.059,0.053
		c-0.096,0.1-0.378,0.244-0.401,0.617c0,0.115,0.042,0.23,0.11,0.33c0.898,1.301,2.475,3.539,3.591,5.221
		c-0.649,0.768-1.317,1.859-1.995,2.832c-0.589,0.853-1.149,1.773-1.151,2.885c0,0.193,0.019,0.393,0.058,0.6
		c0.182,0.77,0.879,1.284,1.434,1.637l0.03,0.016l0.034,0.014c0.438,0.127,0.862,0.186,1.271,0.186c0.706,0,1.36-0.176,1.961-0.453
		c1.281-0.561,2.06-1.254,3.039-2.273c0.456,0.436,1.209,1.17,1.817,1.756l0.062,0.063l0.091,0.008c0.059,0,0.237,0.07,0.449,0.074
		c0.17,0.012,0.422-0.094,0.517-0.323l0.032-0.069l-0.013-0.076c-0.21-1.184-1.313-1.852-1.917-2.656
		c1.552-2.195,2.492-4.688,2.492-7.366c0-0.913-0.11-1.847-0.34-2.796c0.373-0.391,1.003-1.041,1.38-1.324l-0.15-0.199l0.199,0.15
		c0.326-0.449,1.015-0.799,1.282-1.497C29.695,68.699,29.707,68.639,29.705,68.58 M18.831,84.205
		c-0.47-0.133-0.868-0.188-1.04-0.561c-0.07-0.137-0.093-0.256-0.096-0.389c-0.008-0.428,0.329-0.961,0.568-1.496
		c0.602-1.131,1.057-1.818,1.824-2.818c0.809,0.99,1.675,1.967,2.51,2.916C21.478,83.172,20.526,83.809,18.831,84.205 M23.7,80.457
		c-0.847-0.848-1.676-1.859-2.447-2.885c1.295-1.671,2.811-3.158,4.353-4.645c0.071,0.486,0.106,0.965,0.106,1.436
		C25.712,76.557,24.963,78.586,23.7,80.457 M3.378,43.572c0.706,0.004,1.362-0.171,1.963-0.451c1.283-0.56,2.061-1.254,3.04-2.271
		c0.456,0.437,1.208,1.17,1.82,1.754l0.061,0.056l0.082,0.01c0.066,0.002,0.243,0.076,0.458,0.08
		c0.166,0.014,0.422-0.092,0.516-0.324l0.032-0.072l-0.013-0.073c-0.211-1.187-1.316-1.851-1.916-2.656
		c1.551-2.195,2.49-4.689,2.49-7.369c0-0.912-0.11-1.846-0.338-2.795c0.37-0.389,1.001-1.041,1.38-1.326l-0.152-0.197h0.001
		L13,28.088c0.327-0.449,1.014-0.797,1.284-1.496c0.021-0.076,0.032-0.139,0.03-0.195c0-0.202-0.142-0.448-0.405-0.45
		c-0.085-0.002-0.165,0.028-0.232,0.073c-1.019,0.47-1.824,1.517-2.723,2.215c-0.237-0.252-0.553-0.588-1.049-0.604
		c-0.047,0-0.074,0.006-0.085,0.006l-0.113,0.01l-0.066,0.095c-0.105,0.145-0.15,0.317-0.147,0.469
		c0.012,0.404,0.238,0.723,0.347,0.981c-1.768,1.486-3.408,3.109-5.033,4.845c-1.111-1.49-2.077-3.152-3.314-4.658L1.44,29.313
		l-0.08-0.018c-0.118-0.027-0.435-0.119-0.73-0.121c-0.038,0-0.067,0.004-0.09,0.006l-0.078,0.006L0.4,29.238
		c-0.094,0.098-0.379,0.247-0.4,0.62c-0.002,0.115,0.04,0.234,0.109,0.332c0.895,1.295,2.474,3.539,3.592,5.214
		c-0.652,0.77-1.319,1.864-1.995,2.834c-0.591,0.856-1.15,1.776-1.152,2.885c0,0.195,0.019,0.397,0.057,0.6
		c0.182,0.773,0.879,1.283,1.434,1.64l0.03,0.016l0.035,0.012c0.427,0.123,0.844,0.181,1.247,0.183
		C3.364,43.574,3.372,43.572,3.378,43.572 M10.215,30.744c0.071,0.487,0.106,0.963,0.106,1.434c0,2.195-0.748,4.223-2.011,6.092
		c-0.847-0.848-1.677-1.858-2.445-2.883C7.158,33.717,8.673,32.231,10.215,30.744 M2.401,41.459
		c-0.069-0.139-0.094-0.256-0.097-0.389c-0.008-0.425,0.329-0.959,0.568-1.494c0.603-1.134,1.059-1.82,1.824-2.818
		c0.81,0.988,1.676,1.969,2.508,2.914c-1.117,1.316-2.07,1.953-3.765,2.348C2.971,41.891,2.571,41.834,2.401,41.459 M14.024,41.526
		l0.002,0.033l0.013,0.033c0.195,0.467,0.666,0.428,0.79,0.48l0.099,0.028l0.091-0.049c1.101-0.602,2.575-1.363,3.308-1.725
		c2.553-1.291,5.344-2.156,8.256-2.709c0.2,0.393,0.286,0.836,0.286,1.297c0,0.721-0.213,1.477-0.497,2.096
		c-0.943,1.855-2.246,4.039-3.918,5.555c-0.968,0.869-2.073,1.498-3.277,1.718c-0.15,0.028-0.293,0.043-0.43,0.043
		c-1.151,0.008-2.174-0.965-3.009-1.92c-0.188-0.172-0.394-0.545-0.858-0.568c-0.095-0.002-0.19,0.021-0.278,0.059l-0.218,0.095
		l0.082,0.221c0.112,0.299,0.328,0.803,0.378,0.949l0.013,0.037l0.025,0.034c0.93,1.212,2.279,2.675,4.032,2.687
		c0.173,0,0.35-0.016,0.527-0.045c1.486-0.215,2.758-0.894,3.863-1.822c1.471-1.213,2.635-2.789,3.626-4.379
		c0.785-1.525,1.654-3.08,1.656-4.9c0-0.329-0.028-0.665-0.091-1.008c-0.098-0.25-0.205-0.457-0.255-0.602
		c1.417-0.375,2.38-0.494,3.877-0.578l-0.012-0.248l0.021,0.248c0.381-0.043,0.685-0.336,0.698-0.721
		c0.004-0.201-0.11-0.412-0.308-0.533c-0.53-0.219-1.012-0.291-1.482-0.291c-1.237,0.006-2.402,0.49-3.522,0.69
		c-0.856-0.971-1.832-1.676-2.578-2.237c-0.421-0.283-0.74-0.621-0.901-1.115c0.095-1.807,1.297-3.295,1.862-5.098
		c0.074-0.263,0.109-0.515,0.109-0.759c-0.001-0.948-0.501-1.743-1.043-2.397c-1.622-1.256-3.353-1.992-5.214-2.187
		c-0.205-0.026-0.412-0.034-0.616-0.034c-1.479-0.002-3.026,0.571-3.753,2.053c-0.062,0.059-0.095,0.192-0.098,0.322
		c-0.002,0.205,0.104,0.444,0.34,0.559c0.129,0.037,0.2,0.043,0.272,0.043c0.268,0,0.487-0.102,0.639-0.193
		c0.696-0.735,1.623-1.141,2.57-1.141c0.179,0,0.363,0.014,0.542,0.045c1.735,0.309,3.664,1.019,4.557,2.549
		c0.001,0.043,0.002,0.082,0.002,0.121c0.004,1.736-0.983,3.25-1.563,4.99c-0.107,0.307-0.156,0.604-0.154,0.887
		c-0.002,0.717,0.317,1.32,0.749,1.83c0.657,0.803,1.663,1.476,2.415,2.164c-3.828,0.893-7.29,2.201-10.852,4.154
		c-0.345,0.256-0.767,0.6-0.777,1.155C14.021,41.473,14.022,41.502,14.024,41.526 M147.504,19.096
		c-0.65,0.767-1.32,1.861-1.996,2.836c-0.592,0.853-1.149,1.771-1.149,2.883c-0.002,0.193,0.017,0.394,0.055,0.601
		c0.182,0.768,0.879,1.281,1.434,1.637l0.03,0.019l0.034,0.01c0.427,0.123,0.845,0.182,1.246,0.182h0.021
		c0.709,0.002,1.363-0.172,1.964-0.449c1.284-0.565,2.063-1.256,3.042-2.276c0.457,0.438,1.209,1.172,1.816,1.756l0.063,0.061
		l0.088,0.009c0.059,0,0.238,0.073,0.453,0.077c0.166,0.011,0.419-0.092,0.513-0.321l0.033-0.072l-0.012-0.074
		c-0.21-1.188-1.318-1.856-1.917-2.66c1.551-2.194,2.49-4.688,2.49-7.368c0-0.914-0.109-1.845-0.339-2.793
		c0.371-0.39,1.001-1.041,1.379-1.326l-0.15-0.199l0.198,0.152c0.327-0.451,1.016-0.8,1.284-1.498c0.022-0.08,0.03-0.138,0.03-0.195
		c0-0.203-0.143-0.449-0.404-0.449c-0.087-0.002-0.166,0.027-0.23,0.07c-1.021,0.473-1.828,1.522-2.727,2.217
		c-0.236-0.252-0.555-0.588-1.052-0.604c-0.045,0-0.071,0.006-0.082,0.006l-0.111,0.014l-0.065,0.09
		c-0.11,0.148-0.152,0.32-0.149,0.472c0.015,0.403,0.238,0.721,0.349,0.979c-1.769,1.484-3.409,3.109-5.034,4.842
		c-1.111-1.491-2.077-3.151-3.314-4.653l-0.055-0.068l-0.079-0.018c-0.113-0.027-0.429-0.119-0.726-0.121
		c-0.046,0-0.076,0.004-0.091,0.004l-0.079,0.008l-0.063,0.051c-0.096,0.101-0.379,0.246-0.401,0.617
		c0,0.119,0.045,0.236,0.113,0.334C144.811,15.176,146.388,17.416,147.504,19.096 M154.016,14.436
		c0.069,0.486,0.104,0.965,0.104,1.435c0,2.194-0.748,4.223-2.007,6.092c-0.847-0.85-1.677-1.859-2.446-2.885
		C150.96,17.41,152.476,15.92,154.016,14.436 M151.006,23.363c-1.115,1.317-2.067,1.952-3.763,2.348
		c-0.469-0.131-0.871-0.187-1.04-0.56c-0.07-0.135-0.095-0.252-0.096-0.387c-0.008-0.428,0.328-0.961,0.566-1.498
		c0.603-1.129,1.061-1.819,1.826-2.819C149.309,21.438,150.175,22.416,151.006,23.363 M157.824,25.217l0.004,0.033l0.012,0.031
		c0.197,0.475,0.674,0.428,0.792,0.481l0.097,0.029l0.091-0.051c1.104-0.599,2.577-1.361,3.312-1.722
		c2.552-1.293,5.346-2.157,8.254-2.707c0.199,0.388,0.285,0.834,0.285,1.295c0,0.72-0.213,1.478-0.493,2.097
		c-0.943,1.854-2.248,4.035-3.921,5.553c-0.969,0.867-2.073,1.494-3.278,1.721c-0.15,0.025-0.293,0.039-0.428,0.039
		c-1.15,0.01-2.175-0.961-3.011-1.92c-0.188-0.172-0.392-0.545-0.857-0.569c-0.098-0.001-0.19,0.024-0.278,0.063l-0.214,0.092
		l0.08,0.222c0.111,0.299,0.33,0.805,0.374,0.944l0.012,0.041l0.028,0.033c0.932,1.211,2.281,2.674,4.032,2.689
		c0.171,0,0.35-0.015,0.529-0.046c1.482-0.215,2.753-0.897,3.861-1.823c1.472-1.215,2.638-2.787,3.626-4.379
		c0.782-1.529,1.653-3.084,1.653-4.904c0.003-0.326-0.025-0.658-0.088-1.002c-0.099-0.25-0.204-0.457-0.255-0.601
		c1.414-0.377,2.379-0.495,3.876-0.577l-0.015-0.25l0.025,0.248c0.377-0.046,0.679-0.334,0.694-0.722
		c0.004-0.197-0.109-0.408-0.306-0.529c-0.53-0.221-1.014-0.293-1.485-0.293c-1.234,0.003-2.399,0.488-3.521,0.689
		c-0.854-0.971-1.829-1.68-2.574-2.238c-0.423-0.283-0.742-0.619-0.905-1.116c0.099-1.806,1.3-3.292,1.862-5.095
		c0.075-0.264,0.11-0.518,0.11-0.764c-0.002-0.943-0.498-1.74-1.043-2.392c-1.621-1.256-3.354-1.991-5.213-2.19
		c-0.206-0.023-0.413-0.033-0.617-0.033c-1.468-0.004-3.005,0.564-3.741,2.029c-0.084,0.11-0.108,0.233-0.11,0.346
		c-0.002,0.203,0.104,0.441,0.342,0.558c0.126,0.034,0.196,0.045,0.272,0.045c0.271-0.002,0.489-0.105,0.64-0.197
		c0.694-0.732,1.625-1.137,2.576-1.137c0.18,0,0.358,0.014,0.536,0.043c1.731,0.311,3.659,1.022,4.554,2.545
		c0.001,0.043,0.003,0.084,0.003,0.119c0.007,1.739-0.979,3.254-1.565,4.998c-0.105,0.309-0.152,0.606-0.152,0.885
		c0,0.717,0.319,1.321,0.747,1.83c0.658,0.805,1.669,1.479,2.421,2.168c-3.83,0.893-7.294,2.201-10.854,4.151
		c-0.351,0.257-0.769,0.603-0.779,1.156C157.82,25.17,157.822,25.197,157.824,25.217 M81.523,29.27l0.004,0.035l0.011,0.031
		c0.17,0.406,0.576,0.367,0.64,0.408l0.101,0.03l0.095-0.051c0.846-0.465,1.984-1.053,2.548-1.33
		c1.955-0.989,4.086-1.653,6.311-2.075c0.135,0.282,0.194,0.6,0.194,0.932c0,0.545-0.162,1.123-0.379,1.598
		c-0.722,1.422-1.726,3.097-3.008,4.262c-0.734,0.664-1.581,1.138-2.498,1.31c-0.112,0.02-0.22,0.031-0.323,0.031
		c-0.854,0.01-1.631-0.724-2.273-1.461c-0.145-0.129-0.305-0.435-0.707-0.459c-0.085,0-0.164,0.022-0.238,0.055l-0.215,0.094
		l0.082,0.222c0.089,0.229,0.253,0.62,0.291,0.727l0.011,0.037l0.027,0.033c0.722,0.938,1.764,2.082,3.151,2.094h0.03
		c0.126,0,0.256-0.012,0.389-0.035c1.155-0.164,2.149-0.699,3.004-1.414c1.141-0.945,2.044-2.16,2.808-3.389
		c0.606-1.183,1.284-2.388,1.286-3.806c0-0.258-0.021-0.52-0.072-0.79c-0.064-0.171-0.131-0.314-0.173-0.416
		c1.053-0.277,1.782-0.363,2.914-0.427l-0.015-0.25l0.026,0.248c0.317-0.043,0.572-0.278,0.584-0.612
		c0.005-0.173-0.096-0.353-0.258-0.459c-0.428-0.179-0.811-0.236-1.179-0.236c-0.957,0.004-1.848,0.371-2.693,0.527
		c-0.659-0.74-1.405-1.281-1.97-1.705c-0.322-0.214-0.555-0.462-0.673-0.82c0.073-1.363,0.989-2.506,1.429-3.91
		c0.059-0.209,0.089-0.408,0.089-0.604c-0.003-0.748-0.398-1.371-0.817-1.878c-1.267-0.985-2.613-1.557-4.059-1.711
		c-0.162-0.016-0.322-0.026-0.48-0.026c-1.151-0.004-2.37,0.449-2.947,1.617c-0.05,0.045-0.078,0.161-0.08,0.274
		c-0.002,0.176,0.089,0.379,0.295,0.48c0.116,0.032,0.177,0.037,0.238,0.037c0.221,0,0.398-0.084,0.52-0.156
		c0.539-0.564,1.244-0.873,1.964-0.873c0.132,0,0.265,0.012,0.398,0.033c1.322,0.239,2.78,0.784,3.462,1.924
		c0,0.029,0,0.057,0,0.086c0.009,1.315-0.749,2.477-1.199,3.83c-0.084,0.238-0.123,0.475-0.123,0.699
		c0,0.571,0.255,1.049,0.59,1.446c0.492,0.597,1.221,1.101,1.786,1.601c-2.912,0.69-5.558,1.696-8.274,3.184
		c-0.275,0.205-0.617,0.48-0.629,0.941C81.52,29.233,81.521,29.256,81.523,29.27 M73.552,24.545
		c-0.498,0.596-1.005,1.42-1.516,2.158c-0.455,0.658-0.895,1.377-0.897,2.256c0,0.151,0.015,0.309,0.044,0.469
		c0.15,0.627,0.701,1.025,1.133,1.301l0.029,0.019l0.034,0.01c0.333,0.098,0.659,0.144,0.973,0.144h0.021
		c0.553,0.002,1.069-0.136,1.538-0.351c0.978-0.432,1.581-0.961,2.322-1.725c0.354,0.338,0.908,0.879,1.358,1.311l0.061,0.06
		l0.088,0.01c0.034-0.002,0.175,0.055,0.356,0.059c0.141,0.015,0.37-0.082,0.449-0.281l0.033-0.071l-0.012-0.074
		c-0.17-0.932-1.006-1.447-1.465-2.041c1.187-1.693,1.906-3.613,1.906-5.678c0-0.699-0.082-1.412-0.254-2.138
		c0.289-0.301,0.757-0.784,1.035-0.993l-0.151-0.199l0.198,0.152c0.244-0.337,0.778-0.607,1-1.167
		c0.019-0.069,0.027-0.122,0.027-0.176c0-0.178-0.133-0.401-0.371-0.401c-0.077-0.002-0.151,0.026-0.21,0.065
		c-0.78,0.361-1.391,1.146-2.062,1.678c-0.18-0.192-0.427-0.432-0.816-0.446c-0.038,0-0.061,0.006-0.077,0.006l-0.108,0.012
		l-0.063,0.09c-0.09,0.125-0.129,0.269-0.126,0.396c0.013,0.317,0.168,0.555,0.256,0.738c-1.336,1.125-2.578,2.352-3.807,3.663
		c-0.836-1.133-1.572-2.389-2.514-3.534l-0.052-0.062l-0.076-0.02c-0.091-0.023-0.331-0.099-0.573-0.099
		c-0.044,0-0.073,0.004-0.086,0.007l-0.076,0.006l-0.056,0.049c-0.074,0.074-0.312,0.194-0.333,0.524
		c-0.002,0.103,0.036,0.203,0.094,0.287C71.492,21.551,72.69,23.254,73.552,24.545 M78.604,21.074
		c0.044,0.332,0.066,0.661,0.066,0.985c0,1.656-0.558,3.191-1.501,4.611c-0.625-0.631-1.238-1.377-1.807-2.135
		C76.328,23.297,77.454,22.184,78.604,21.074 M76.247,27.838c-0.839,0.979-1.552,1.451-2.824,1.748
		c-0.363-0.098-0.639-0.141-0.752-0.396c-0.051-0.096-0.066-0.178-0.068-0.272c-0.009-0.305,0.244-0.713,0.434-1.135
		c0.449-0.843,0.792-1.363,1.355-2.101C74.992,26.414,75.631,27.139,76.247,27.838 M168.396,65.721l-0.096-0.045l-0.098,0.035
		c-0.608,0.25-0.768,0.859-1.088,1.061c-2.212,1.453-4.524,2.795-6.983,3.809c-2.594,1.035-4.915,2.486-7.903,2.484h-0.064
		l-0.051,0.025c-0.169,0.07-0.273,0.268-0.263,0.414c0.018,0.322,0.225,0.52,0.325,0.65c0.388,0.328,0.846,0.416,1.295,0.416
		c0.388,0,0.781-0.066,1.139-0.133c4.384-1.359,8.523-3.256,12.406-5.637l-0.13-0.213l0.138,0.207
		c0.734-0.492,1.543-1.121,1.689-2.23c0.007-0.057,0.018-0.133,0.018-0.221C168.733,66.162,168.686,65.863,168.396,65.721
		 M152.475,65.338l0.046-0.01c1.759-0.316,3.051-1.516,4.425-2.314c0.003,0.197,0.005,0.395,0.005,0.59
		c0,1.801-0.143,3.525-0.68,5.08c-0.188,0.523-0.579,1.029-0.764,1.66c-0.022,0.063-0.027,0.129-0.027,0.188
		c0,0.172,0.094,0.453,0.393,0.463c0.152-0.002,0.265-0.076,0.363-0.172c2.092-1.926,2.359-4.607,2.359-7.223
		c-0.002-0.545-0.013-1.088-0.022-1.625c1.413-1.154,2.909-2.285,4.363-3.459c0.478-0.389,1.142-0.924,1.241-1.715
		c-0.018-0.26-0.181-0.488-0.477-0.498c-0.087,0-0.169,0.023-0.245,0.064c-1.24,0.9-3.593,2.618-4.948,3.65
		c-0.124-1.594-0.292-4.033-0.359-5.264c1.479-0.547,3.269-0.951,4.921-0.951c0.224,0,0.444,0.008,0.665,0.023
		c0.481,0.021,0.682,0.408,0.905,0.912l0.068,0.163l0.181-0.011c0.813-0.172,0.642-1.078,0.906-1.198l0.148-0.138l-0.103-0.174
		c-0.117-0.158-0.141-0.568-0.521-0.852c-0.668-0.389-1.378-0.512-2.091-0.512c-0.998,0-2.013,0.244-2.942,0.445
		c-0.798,0.146-1.537,0.418-2.229,0.58c-0.03-0.502-0.063-1.299-0.063-1.744c0.044-0.219,0.084-0.215,0.283-0.289
		c0.197-0.055,0.498-0.053,0.797-0.186c0.233-0.127,0.358-0.326,0.358-0.529c0-0.158-0.129-0.385-0.36-0.385h-0.005
		c-0.33-0.057-0.998-0.25-1.352-0.408c-0.133-0.057-0.266-0.076-0.386-0.076c-0.37,0.004-0.723,0.174-0.952,0.441l-0.039,0.045
		l-0.014,0.055c-0.106,0.438-0.143,0.889-0.143,1.344c0,0.799,0.112,1.615,0.185,2.391c-1.076,0.664-2.475,1.084-3.571,1.902
		c-0.675,0.504-1.221,1.146-1.551,2.031c-0.064,0.199-0.202,0.484-0.207,0.807c-0.002,0.156,0.043,0.334,0.165,0.479l0.103,0.117
		L151.456,59c0.338-0.092,0.607-0.355,0.749-0.676c1.121-1.398,2.659-2.264,4.262-2.832c0.091,1.529,0.308,4.118,0.432,5.611
		c-1.449,0.982-2.91,1.846-4.455,2.589l-0.044,0.021l-0.03,0.035c-0.062,0.205-0.943,0.051-1.051,0.848
		c0,0.08,0.013,0.16,0.037,0.242c0.295,0.611,0.897,0.428,1.074,0.49L152.475,65.338z M149.759,62.672
		c0-4.332,0.675-8.475,1.671-12.518l-0.002-0.003c0.143-0.608,0.925-1.103,1.356-1.851l0.085-0.156l-0.119-0.129
		c-0.249-0.283-0.586-0.381-0.884-0.377c-0.137,0-0.27,0.017-0.398,0.043c-1.25,0.332-1.441,1.646-1.711,2.386
		c-0.958,3.874-1.594,7.831-1.594,11.991c0,0.759,0.024,1.527,0.069,2.302c0.114,0.851,0.359,1.679,0.828,2.332l0.043,0.058
		l0.064,0.026c0.069,0.03,0.143,0.044,0.215,0.044c0.24-0.003,0.416-0.145,0.512-0.307l0.04-0.071l-0.007-0.077
		C149.812,65.115,149.761,63.887,149.759,62.672 M62.691,36.893l0.021,0.045l0.099,0.086c1.238,1.089,2.336,2.277,3.164,3.55
		c0.113,0.205,0.305,0.305,0.493,0.328l0.018,0.004c0.407-0.007,0.639-0.197,0.774-0.4l0.035-0.055l0.023-0.037l0.021-0.084
		c0.026-0.092,0.045-0.203,0.053-0.324c0.003-0.049,0.005-0.094,0.005-0.137c0-0.135-0.018-0.285-0.068-0.441
		c-0.623-1.315-1.546-2.338-2.549-3.254l-0.035-0.033l-0.108-0.069l-0.03-0.015c-0.086-0.086-0.369-0.461-0.824-0.631h-0.001
		c-0.078-0.029-0.137-0.049-0.213-0.057c-0.012,0-0.031-0.002-0.067-0.002c-0.603,0.008-0.916,0.52-0.939,0.926
		c-0.002,0.02-0.005,0.049-0.002,0.078c-0.003,0.149,0.029,0.301,0.096,0.449L62.691,36.893z M134.564,29.811l0.019,0.043
		l0.091,0.089c1.253,1.096,2.349,2.278,3.176,3.557c0.119,0.201,0.307,0.303,0.5,0.328l0.008,0.002l0.031,0.004l0.033-0.002
		c0.341-0.008,0.576-0.193,0.712-0.398l0.044-0.073l0.033-0.091c0.027-0.106,0.047-0.215,0.06-0.332
		c0.002-0.059,0.002-0.098,0.002-0.133c0-0.137-0.015-0.289-0.064-0.447c-0.625-1.317-1.549-2.342-2.553-3.266l-0.046-0.037
		l-0.105-0.059l-0.022-0.011c-0.088-0.092-0.382-0.483-0.854-0.645c-0.078-0.027-0.126-0.037-0.183-0.043
		c-0.014-0.002-0.038-0.004-0.073-0.004c-0.599,0.008-0.914,0.522-0.936,0.928c-0.002,0.019-0.005,0.047-0.002,0.074
		c-0.003,0.145,0.026,0.303,0.104,0.455L134.564,29.811z M135.624,28.338c0.002,0,0.003,0.002,0.004,0.002
		c0.009,0.002,0.013,0.002,0.021,0.006L135.624,28.338z M226.427,36.199c-9.268-0.48-18.551-0.789-27.836-0.908
		c-0.15-0.389-0.467-0.644-0.594-0.879c-2.441-2.119-5.307-3.572-8.414-3.922c0.644-0.656,1.606-1.255,1.718-2.338l0.004-0.054
		l-0.02-0.051c-0.172-0.449-0.571-0.619-0.927-0.664c0.235-0.609,0.386-1.311,0.386-2.059c0-0.068-0.001-0.138-0.003-0.209
		c0.201-0.021,0.423-0.058,0.637-0.15c0.188-0.084,0.45-0.24,0.464-0.576c0-0.147-0.06-0.289-0.156-0.42
		c-0.267-0.26-0.606-0.395-0.894-0.455c-0.142-2.586-0.46-5.209-1.627-7.385c-0.426-0.713-1.022-1.748-2.155-1.764
		c-0.085,0-0.171,0.006-0.259,0.02c-0.022-0.002-0.038,0-0.038,0c-0.801,0.051-0.871,0.902-1.037,1.203l-0.038,0.082l0.026,0.09
		c0.033,0.172,0.2,0.365,0.404,0.357c0.262-0.031,0.406-0.148,0.455-0.158l0.054,0.014l0.051-0.008c0.006,0,0.023-0.002,0.045-0.002
		c0.237,0,0.488,0.107,0.712,0.354c0.528,0.781,0.897,1.785,1.091,2.755c-0.997,0.026-2.608,0.553-3.624,0.977
		c-0.009-0.16-0.012-0.33-0.012-0.51c-0.006-1.808,0.434-4.517,0.955-5.779c0.488-1.115,1.188-2.07,2.275-2.82
		c0.135-0.215,0.752-0.375,0.796-0.997c0.002-0.095-0.019-0.197-0.059-0.296c-0.13-0.381-0.521-0.461-0.767-0.45
		c-0.103,0-0.199,0.008-0.283,0.016l-0.05,0.004l-0.04,0.021c-0.727,0.364-1.452,0.725-2.162,1.055
		c1.009-1.478,1.654-3.096,2.14-4.75l0.027-0.088l-0.019-0.043c0.011-0.42,0.244-0.926,0.338-1.467
		c0.014-0.109,0.026-0.214,0.026-0.326c0.002-0.285-0.077-0.59-0.29-0.843c-0.182-0.206-0.412-0.305-0.624-0.303
		c-0.234-0.002-0.459,0.117-0.564,0.336l-0.015,0.031l-0.004,0.039c-0.169,1.137-0.896,4.279-1.621,5.379
		c-0.179-0.18-0.43-0.441-0.587-0.623c-0.429-1.397-0.606-2.877-0.813-4.404c2.225-1.008,4.959-1.362,7.479-1.53h0.212
		c0.201,0,0.398-0.004,0.594-0.004c0.509,0,0.976,0.036,1.378,0.223c0.015,0.027,0.02,0.057,0.021,0.092
		c0.007,0.127-0.124,0.363-0.244,0.605c-1.354,1.725-2.791,3.246-4.463,4.565c-0.117,0.136-0.11,0.22-0.112,0.261
		c0.034,0.272,0.139,0.538,0.521,0.596c0.024,0,0.063-0.002,0.108-0.015c0.752-0.288,1.299-0.649,1.905-1.038
		c1.02-0.724,2.86-2.568,3.466-3.574c0.311-0.486,0.552-1.047,0.552-1.683c0.002-0.162-0.015-0.328-0.047-0.496l-0.012-0.061
		l-0.041-0.049C194.123,0.27,193.081,0.09,192.125,0c-2.72,0.096-5.602,0.199-8.061,1.235c-1.259,0.531-2.906,1.003-4.126,1.912
		c-0.926,0.691-1.64,1.64-1.744,3.056c0.035,0.328,0.208,0.6,0.558,0.627c0.036,0.002,0.088-0.002,0.143-0.021l0.108-0.035
		l0.042-0.106c0.521-1.264,1.726-2.133,2.855-2.664c0.205,0.988,0.281,2.102,0.566,3.125c0.236,0.965,0.732,1.893,1.767,2.453
		c-0.464,0.822-1.267,1.836-2.009,2.471c-2.311-1.402-5.286-5.639-6.381-8.055c-0.505-0.627-0.408-1.863-1.563-2.357l-0.098-0.039
		l-0.095,0.041c-0.364,0.15-0.524,0.502-0.511,0.797c0.012,0.537,0.322,1.111,0.309,1.359v0.059l0.026,0.052
		c1.698,3.326,3.851,6.67,6.906,9.157c-0.197,0.138-0.396,0.283-0.502,0.335l-0.056,0.028l-0.036,0.053
		c-0.086,0.128-0.133,0.277-0.133,0.435c0,0.176,0.066,0.367,0.211,0.514c0.175,0.277,0.505,0.373,0.77,0.365
		c0.06,0,0.119-0.002,0.179-0.006l0.065-0.006l0.057-0.037c1.096-0.746,2.168-1.596,3.289-2.209
		c-1.03,2.233-1.515,4.674-1.513,7.194c0,0.423,0.013,0.851,0.042,1.277c-0.23,0.213-0.602,0.496-0.816,0.668l-0.036,0.027
		l-0.023,0.041c-0.168,0.293-0.454,0.619-0.62,1.028c-0.018,0.025-0.02,0.064-0.022,0.115c0.043,0.314,0.206,0.556,0.576,0.611
		c0.08,0.002,0.183-0.027,0.255-0.096c0.296-0.22,0.56-0.492,0.786-0.648c0.064,0.939,0.109,2.295,0.197,3.357
		c0.004,0.182,0.006,0.379,0.006,0.575c0,0.718-0.033,1.42-0.033,2.123c0,0.683,0.033,1.367,0.168,2.064
		c0.021,0.322,0.258,0.86,0.85,0.877c0.026,0,0.05-0.002,0.069-0.002l0.057-0.004l0.052-0.027c0.632-0.434,0.399-1.113,0.494-1.389
		c1.102-0.111,2.093-0.455,3.068-0.724c-1.784,1.914-3.703,3.461-5.786,4.709c-0.778,0.453-1.476,0.875-2.342,0.984
		c-0.346,0.006-0.438-0.66-0.876-1.234c-0.146-0.104-0.235-0.114-0.306-0.114c-0.219,0.037-0.493,0.028-0.587,0.418h-0.001v0.004
		c-0.001,0.006-0.003,0.012-0.004,0.018c0,0.004,0.001,0.008,0.001,0.011c-0.006,0.079-0.006,0.151-0.006,0.219
		c-0.002,0.266,0.04,0.504,0.1,0.731c-33.293,0.605-66.522,3.859-99.134,10.754C55.191,51.197,30.792,57.949,8.546,68.701
		c-2.077,1.004-4.169,2.025-6.151,3.209c-0.246,0.146,2.893-0.242,3.344-0.352c1.807-0.436,3.952-0.834,5.571-1.801
		c12.255-7.316,26.633-11.877,40.217-15.867c42.331-12.436,87.302-16.117,131.237-16.078c11.628,0.009,23.254,0.379,34.864,0.98
		c1.849,0.096,3.986-0.713,5.727-1.225C223.775,37.443,226.746,36.217,226.427,36.199 M188.881,21.332
		c0.082,0.731,0.145,1.533,0.182,2.274c-0.894,0.261-1.883,0.349-2.837,0.574C187.068,23.248,188.004,22.26,188.881,21.332
		 M185.039,23.541c-0.029-0.543-0.085-1.224-0.124-1.697c0.755-0.377,1.612-0.684,2.476-0.897
		C186.762,21.813,185.754,22.832,185.039,23.541 M185.251,28.754c-0.021-0.803-0.038-2.057-0.043-2.664
		c1.301-0.145,2.546-0.551,3.847-0.734c-0.107,0.894-0.217,1.746-0.585,2.474C187.397,28.184,186.326,28.504,185.251,28.754
		 M183.911,35.279c1.543-0.964,2.934-2.179,4.308-3.392c2.953,0.215,5.728,1.414,8.091,3.39
		C192.177,35.238,188.044,35.24,183.911,35.279 M31.255,27.34c0.154,0.965,0.396,2.199,0.723,3.721l0.244-0.053l-0.244,0.055
		c0.366,1.593,0.522,2.326,0.661,2.564c0.051,0.061,0.093,0.164,0.101,0.344c0.034,0.273,0.011,0.578,0.415,0.656
		c0.202-0.012,0.293-0.119,0.396-0.226c0.215-0.299,0.39-0.405,0.523-0.418c0.248-0.051,0.379-0.295,0.362-0.475
		c-0.002-0.197-0.067-0.41-0.179-0.68c-0.193-0.506-0.507-1.709-0.908-3.564c-0.09-0.358-0.17-0.686-0.242-0.988
		c0.543-0.45,1.301-0.961,2.273-1.526c0.941-0.584,1.605-0.879,1.774-0.898c0.143,0.127,0.201,0.257,0.204,0.47
		c0,0.077-0.008,0.159-0.027,0.25c-0.198,0.922-0.503,1.858-0.916,2.813c-0.466,0.98-0.875,1.697-1.205,2.137
		c-0.245,0.304-0.39,0.609-0.39,0.923c-0.003,0.223,0.084,0.438,0.229,0.612c0.236,0.232,0.487,0.377,0.767,0.377
		c0.175,0.002,0.344-0.059,0.493-0.153c1.086-0.898,1.876-1.654,2.392-2.298c0.556-0.67,0.868-1.338,0.895-2.006
		c0.013-0.141,0.021-0.272,0.021-0.387c-0.017-0.223,0.02-0.48-0.263-0.605l0.002-0.004c-0.048-0.028-0.112-0.039-0.152-0.038
		c-0.468,0.11-0.457,0.454-0.632,0.989c-0.069,0.179-0.291,0.47-0.67,0.804l-0.028,0.024c0.075-0.172,0.168-0.373,0.277-0.598
		c0.451-0.91,0.756-1.818,0.906-2.709c0.061-0.332,0.094-0.633,0.094-0.908c0.009-0.73-0.254-1.316-0.804-1.59
		c-0.361-0.17-0.719-0.254-1.071-0.254s-0.697,0.086-1.025,0.254c-1.29,0.658-2.466,1.393-3.524,2.201
		c-0.047-0.422-0.078-0.769-0.094-1.045c-0.053-0.455-0.139-0.789-0.362-1.015c-0.188-0.137-0.359-0.205-0.534-0.203
		c-0.115-0.002-0.232,0.029-0.33,0.086c-0.287,0.164-0.394,0.482-0.39,0.822c0,0.037,0.002,0.074,0.004,0.109
		C31.063,25.621,31.14,26.432,31.255,27.34 M40.949,29.854c0.126,0.05,0.261,0.08,0.402,0.078c0.299,0,0.596-0.121,0.894-0.326
		c1.306-0.871,2.5-1.582,3.583-2.125c0.551-0.262,0.987-0.44,1.238-0.532c-0.012,0.077-0.029,0.164-0.049,0.264
		c-0.085,0.213-0.5,0.852-1.21,1.768c-0.79,1.005-1.605,2.445-2.45,4.314c-0.822,1.764-1.243,3.242-1.245,4.451
		c0,0.098,0.004,0.196,0.01,0.289c0.076,0.932,0.354,1.846,0.837,2.739c0.605,0.923,1.494,1.601,2.642,2.054
		c0.853,0.324,1.957,0.483,3.32,0.485c0.548-0.002,1.14-0.026,1.774-0.077c2.223-0.179,4.252-0.587,6.079-1.224
		c0.885-0.348,1.542-0.91,1.944-1.664c0.279-0.592,0.417-1.201,0.417-1.83c0-0.231-0.018-0.463-0.052-0.698
		c-0.312-3.261-0.9-6.177-1.768-8.744c-0.109-0.32-0.345-0.584-0.674-0.58c-0.053,0-0.101,0.006-0.145,0.016
		c-0.264,0.105-0.401,0.344-0.39,0.564c0,0.112,0.025,0.223,0.061,0.338c0.649,2.125,0.978,4.172,0.978,6.135v0.035
		c0.006,2.01-0.093,3.238-0.215,3.504c-0.062,0.264-0.614,0.664-1.705,0.984c-1.07,0.375-2.45,0.661-4.148,0.85
		c-0.599,0.059-1.161,0.09-1.686,0.09c-0.975,0-1.823-0.104-2.539-0.301c-1.182-0.348-1.942-0.764-2.258-1.166
		c-0.441-0.504-0.652-0.908-0.676-1.166c-0.034-0.25-0.066-0.617-0.096-1.105l-0.117-0.006h0.117
		c-0.01-0.422,0.369-1.508,1.151-3.112c0.807-1.634,1.709-3.14,2.709-4.509c1.014-1.37,1.679-2.391,2.012-3.096
		c0.169-0.395,0.258-0.76,0.258-1.104c0-0.308-0.074-0.601-0.221-0.859c-0.184-0.338-0.462-0.58-0.812-0.58
		c-0.189,0-0.369,0.07-0.537,0.18c-0.519,0.336-0.942,0.521-1.239,0.574c-0.417,0.131-1.192,0.502-2.411,1.135
		c-1.215,0.66-2.367,1.334-3.461,2.023c-0.175,0.072-0.383,0.125-0.598,0.15v0.002c-0.323,0.024-0.489,0.364-0.466,0.639
		c0,0.065,0.005,0.129,0.013,0.195C40.315,29.352,40.566,29.695,40.949,29.854 M41.363,23.744h0.041
		c0.061,0,0.128-0.004,0.202-0.011l0.078-0.024c0.487-0.226,1.742-0.953,3.811-2.201c0.985-0.598,1.743-1.045,2.274-1.34
		c0.138-0.078,0.262-0.144,0.37-0.199c-0.102,0.174-0.237,0.392-0.402,0.648c-0.501,0.807-1.024,1.51-1.571,2.125
		c-0.119,0.135-0.192,0.299-0.19,0.473c0,0.092,0.021,0.184,0.054,0.266c0.108,0.162,0.258,0.253,0.413,0.25
		c0.19-0.002,0.344-0.09,0.504-0.215c1.58-1.242,2.745-2.375,3.502-3.403c0.763-0.964,1.31-1.525,1.38-1.539
		c0.331-0.191,0.421-0.547,0.423-0.963c0-0.06-0.002-0.123-0.006-0.189c-0.019-0.455-0.434-0.746-0.879-0.715
		c-0.246,0-0.529,0.053-0.855,0.151c-1.454,0.408-3.082,1.226-4.886,2.449c-0.868,0.592-1.538,1.033-2.001,1.326
		c-0.097,0.06-0.184,0.113-0.263,0.162c0.128-0.24,0.32-0.568,0.577-0.945c0.657-1.026,1.019-2.076,1.083-3.139
		c0.006-0.121,0.01-0.238,0.01-0.355c0.002-0.954-0.303-1.745-0.921-2.297c-0.251-0.211-0.504-0.342-0.775-0.342
		c-0.217-0.002-0.421,0.092-0.58,0.246c-0.216,0.25-0.354,0.443-0.364,0.695c-0.002,0.116,0.049,0.246,0.137,0.328
		c0.442,0.498,0.668,1.098,0.67,1.831c0,0.199-0.019,0.408-0.052,0.626h-0.001c-0.175,1.049-1.019,2.567-2.558,4.491
		c-0.13,0.236-0.181,0.455-0.181,0.676c0,0.158,0.026,0.318,0.072,0.476C40.571,23.488,40.942,23.744,41.363,23.744 M174.514,50.016
		v0.002c-0.008,0.047-0.121,0.287-0.372,0.611c-0.286,0.391-0.925,1.025-1.894,1.871c-0.391,0.229-0.688,0.49-0.705,0.885
		c0,0.121,0.038,0.236,0.099,0.336c0.115,0.197,0.342,0.303,0.563,0.303h0.021c0.308-0.002,0.65-0.131,1.078-0.357
		c1.419-0.879,2.411-1.611,3.012-2.234c0.368-0.518,0.556-1.012,0.556-1.506c0-0.619-0.299-1.203-0.84-1.727
		c-0.791-0.672-1.7-1.115-2.721-1.341c-0.248-0.049-0.461-0.071-0.646-0.071c-0.41-0.006-0.781,0.129-0.924,0.479h0.001
		c-0.035,0.086-0.048,0.17-0.046,0.246c0.022,0.496,0.447,0.801,1.079,1.08c1.136,0.582,1.701,1.141,1.738,1.391
		c-0.001,0.014,0.001,0.02,0.001,0.025v0.002V50.016z M196.7,70.791c-0.448-0.172-0.824-0.262-1.149-0.262
		c-0.169,0-0.325,0.025-0.468,0.084c-0.288,0.121-0.768,0.195-1.43,0.195h-0.171c-0.087-0.01-0.197-0.012-0.309-0.012
		c-0.207,0-0.433,0.012-0.674,0.037c0.898-0.742,1.732-1.502,2.498-2.281c1.401-1.592,2.135-2.824,2.146-3.834
		c0-0.051-0.002-0.102-0.004-0.151c-0.071-0.968-0.52-1.7-1.304-2.048c-0.577-0.303-1.215-0.459-1.885-0.457
		c-0.121,0-0.243,0.005-0.363,0.014c-0.78,0.068-1.577,0.209-2.396,0.428c-0.841,0.277-1.988,0.691-3.459,1.268
		c-1.306,0.559-2.735,1.158-4.293,1.805c-0.11-0.363-0.18-0.746-0.214-1.154c-0.097-0.437-0.283-0.777-0.566-1.023
		c-0.273-0.17-0.481-0.26-0.7-0.262c-0.097-0.002-0.195,0.023-0.282,0.076c-0.303,0.17-0.382,0.521-0.384,0.936
		c0,0.094,0.006,0.189,0.014,0.287c0.391,2.537,1.043,4.675,1.973,6.418l0.222-0.115l-0.222,0.117
		c0.96,1.75,1.795,2.732,2.731,2.863c0.099,0.016,0.211,0.023,0.32,0.023c0.33,0.002,0.642-0.086,0.909-0.262
		c0.089-0.061,0.171-0.127,0.238-0.201c0.047,0.072,0.103,0.139,0.171,0.197c0.225,0.188,0.515,0.279,0.836,0.279h0.012
		c0.169,0,0.35-0.021,0.541-0.066c1.575-0.43,2.91-0.684,3.997-0.775c0.51-0.047,0.972-0.066,1.387-0.066
		c0.514,0,0.952,0.035,1.311,0.095c0.059,0.003,0.086,0.005,0.129,0.005c0.539,0.014,0.99-0.314,1.174-0.846
		c0.073-0.229,0.114-0.418,0.114-0.598C197.161,71.199,196.99,70.895,196.7,70.791 M188.512,71.533
		c-0.127-0.039-0.209-0.084-0.227-0.102c-0.143-0.094-0.26-0.143-0.393-0.143c-0.32,0.021-0.465,0.254-0.533,0.537
		c-0.009-0.08-0.044-0.17-0.117-0.234c-0.093-0.08-0.2-0.1-0.287-0.1c-0.165,0.002-0.318,0.057-0.516,0.143
		c-0.013,0.004-0.023,0.006-0.036,0.006c-0.108,0.043-0.634-0.367-1.227-1.314c-0.438-0.635-0.858-1.592-1.247-2.855
		c2.489-1.111,4.444-1.947,5.868-2.5c1.482-0.564,2.589-0.875,3.282-0.932c0.1-0.006,0.198-0.008,0.301-0.008
		c0.562-0.005,0.908,0.105,1.025,0.225c0.078,0.086,0.193,0.398,0.229,0.895c0,0.018,0.003,0.049,0.003,0.068
		c0.012,0.479-0.471,1.396-1.496,2.596C192.076,69.104,190.534,70.348,188.512,71.533 M196.834,52.529
		c-0.098,0-0.193,0.01-0.29,0.021c-0.042,0-0.098,0.004-0.147,0.004c-0.187-0.002-0.362-0.028-0.533-0.078
		c-0.137-0.039-0.283-0.051-0.461-0.051c-0.362,0-0.859,0.055-1.51,0.162c-0.92,0.168-2.072,0.484-3.46,0.945
		c0.081-0.486,0.125-0.883,0.125-1.195v-0.062c-0.022-0.911-0.294-1.634-0.84-2.099c-0.593-0.485-1.224-0.73-1.878-0.73
		c-0.078,0-0.154,0.004-0.228,0.01c-0.706,0.139-1.194,0.385-1.288,0.895c-0.006,0.029-0.008,0.07-0.008,0.107
		c0.051,0.608,0.658,0.848,1.584,1.066c0.254,0.072,0.491,0.428,0.559,1.24c-0.017,0.33-0.072,0.854-0.17,1.533
		c-1.239,0.521-2.591,1.131-4.048,1.828c-2.262,1.108-3.663,1.732-4.128,1.858c-0.114,0.022-0.245,0.034-0.37,0.034
		c-0.268,0-0.523-0.055-0.773-0.168c-0.143-0.055-0.266-0.08-0.388-0.08c-0.386-0.002-0.669,0.27-0.824,0.65
		c-0.049-0.34-0.105-0.613-0.488-0.687c-0.073,0.009-0.071,0.022-0.073,0.013c-0.308,0.025-0.475,0.346-0.519,0.676
		c-0.337,2.18-0.888,4.486-1.651,6.922c-0.811,2.449-1.402,4.14-1.765,5.053c-0.195,0.441-0.354,0.777-0.473,0.992
		c-0.009,0.016-0.017,0.031-0.024,0.047c-0.016-0.037-0.031-0.08-0.045-0.125c-0.131-0.281-0.378-1.479-0.69-3.475
		c-0.071-0.246-0.245-0.461-0.501-0.459c-0.044,0-0.09,0.006-0.137,0.021l-0.07,0.031c-0.188,0.133-0.233,0.348-0.231,0.541
		c0,0.09,0.008,0.179,0.024,0.277c0.011,1.336,0.1,2.545,0.264,3.59h-0.002c0.188,1.1,0.319,1.723,0.714,2.023
		c0.468,0.354,0.749,0.697,0.852,0.988c0.145,0.295,0.414,0.484,0.712,0.484h0.021c0.167,0,0.337-0.043,0.514-0.121
		c0.457-0.213,0.709-0.654,0.698-1.172c0-0.094-0.007-0.188-0.018-0.283c-0.004-0.018-0.004-0.029-0.004-0.029
		c-0.003-0.248,0.159-0.92,0.494-1.918c0.394-1.08,0.9-3.309,1.539-6.721c0.509-2.668,0.801-4.547,0.876-5.676
		c0.116,0.211,0.308,0.387,0.551,0.516c0.367,0.209,0.817,0.314,1.325,0.311c0.259,0,0.536-0.021,0.83-0.072
		c0.547-0.135,1.399-0.506,2.623-1.131c1.168-0.627,2.727-1.34,4.678-2.141c-0.035,0.15-0.063,0.305-0.087,0.462
		c-0.596,2.226-1.21,4.041-1.834,5.419c-0.135,0.357-0.209,0.622-0.209,0.854c0,0.113,0.019,0.223,0.081,0.324
		c0.116,0.199,0.35,0.278,0.573,0.275c0.078,0,0.163-0.008,0.251-0.021c0.478-0.113,0.796-0.51,1.01-1.084
		c0.754-1.379,1.444-3.318,2.063-5.789c0.097-0.467,0.194-0.904,0.296-1.318c1.327-0.51,2.349-0.828,3.027-0.953
		c0.884-0.207,1.569-0.305,2.049-0.305c0.063,0,0.121,0.002,0.177,0.006c0.529,0.053,1.021,0.145,1.461,0.273
		c0.488,0.151,0.894,0.235,1.232,0.235c0.352,0.003,0.673-0.099,0.84-0.382c0.078-0.135,0.118-0.291,0.116-0.452
		c-0.002-0.339-0.151-0.692-0.415-1.095C197.999,52.811,197.455,52.525,196.834,52.529 M179.55,53.223
		c-0.435,0.5-0.683,0.826-0.702,1.186c0,0.084,0.021,0.174,0.075,0.25c0.118,0.159,0.272,0.295,0.492,0.299
		c0.092,0,0.188-0.027,0.266-0.076c0.028-0.008,0.08-0.014,0.113-0.014l0.012-0.002c0.091,0.057,0.167,0.082,0.253,0.08
		c0.286-0.016,0.493-0.186,0.791-0.453c2.67-2.533,4.94-4.621,6.81-6.263c1.882-1.702,2.854-2.735,2.9-3.518
		c0-0.01,0-0.029-0.002-0.055c-0.009-0.527-0.276-0.978-0.744-1.197c-0.276-0.139-0.582-0.209-0.906-0.207
		c-0.197,0-0.401,0.025-0.613,0.078c-0.363,0.121-0.639,0.379-0.635,0.731c0.002,0.234,0.108,0.449,0.273,0.673
		c-0.009-0.009-0.006,0.006-0.004,0.026c0.038,0.205-0.531,0.988-1.767,1.992l0.001,0.002c-1.468,1.219-2.802,2.439-4.001,3.666
		C180.899,51.695,180.032,52.623,179.55,53.223 M171.609,64.441c0.322-0.125,0.535-0.43,0.583-0.79c0.223-1.72,0.527-2.8,0.8-3.125
		c0.171-0.245,0.235-0.554,0.235-0.94c0.002-0.102-0.002-0.213-0.011-0.328c-0.058-0.623-0.198-1.08-0.526-1.361
		c-0.723-0.73-1.762-1.359-3.092-1.879c-0.101-0.039-0.199-0.049-0.294-0.049c-0.21,0-0.435,0.057-0.694,0.15l0.084,0.234
		l-0.09-0.232c-0.305,0.104-0.523,0.393-0.51,0.711c0,0.107,0.019,0.215,0.053,0.326c0.175,0.455,0.473,0.783,0.874,0.955
		c0.71,0.309,1.217,0.592,1.499,0.838c0.313,0.25,0.419,0.457,0.415,0.461c-0.017,0.307-0.109,0.789-0.278,1.387
		c-0.205,0.672-0.306,1.543-0.316,2.625c0.04,0.443,0.12,0.768,0.417,0.945c0.138,0.086,0.309,0.146,0.491,0.146
		C171.37,64.516,171.492,64.488,171.609,64.441 M96.772,28.133l0.044,0.031c0.26,0.192,0.564,0.328,0.898,0.35
		c0.038,0.004,0.076,0.004,0.119,0.004c0.122,0,0.247-0.018,0.377-0.051l0.032-0.01l0.017-0.008c0.898-0.435,1.792-0.939,2.65-1.406
		c0.112-0.062,0.247-0.062,0.36,0c0.111,0.061,0.183,0.172,0.192,0.301c0.091,1.182,0.198,2.764,0.272,3.689v0.014l0.006,0.025
		c0.02,0.082,0.024,0.159,0.024,0.209c0,0-0.004,0.008-0.002,0.016c0.002,0.033,0.002,0.057,0.002,0.066
		c-0.085,0.649-0.547,0.901-0.645,1.745c-0.002,0.054-0.002,0.087-0.002,0.107l-0.002,0.051l0.035,0.07
		c0.08,0.191,0.352,0.422,0.618,0.488c0,0.002,0.091,0.028,0.159,0.032h0.053c0.293,0,0.561-0.141,0.758-0.395
		c1.791-2.23,3.438-4.51,4.872-6.861c0.087-0.143,0.254-0.213,0.415-0.17c0.161,0.041,0.273,0.181,0.281,0.347
		c0.002,0.045,0.009,0.098,0.012,0.133v0.014l0.039,0.082c0.07,0.197,0.41,0.385,0.57,0.371c0.03,0.002,0.056,0.002,0.081,0.002
		c0.091,0,0.182-0.014,0.283-0.031l0.035-0.01l0.041-0.023c2.236-1.414,4.378-3.092,6.481-4.778
		c0.133-0.107,0.328-0.109,0.463-0.002c0.137,0.106,0.183,0.291,0.114,0.449c-1.496,3.333-3.102,6.614-4.826,9.84
		c-0.176,0.422-0.415,1.268-0.574,1.809l-0.012,0.041l0.002,0.004c0.078,0.392,0.243,0.338,0.368,0.377h0.061
		c0.137-0.004,0.199-0.01,0.338-0.102l0.034-0.027l0.028-0.041c1.115-1.75,2.11-3.574,3.068-5.406
		c0.064-0.125,0.192-0.202,0.328-0.202c0.014,0,0.028,0.002,0.041,0.002c0.155,0.016,0.282,0.123,0.324,0.272
		c0.237,0.851,0.319,1.807,0.417,2.744c0.198,1.338,0.458,2.662,1.463,3.6c0.692,0.523,1.416,0.988,2.293,1.052
		c0.063,0.004,0.122,0.006,0.187,0.006c0.25-0.002,0.51-0.035,0.772-0.107c2.368-0.737,4.358-2.117,6.304-3.547l0.022-0.018
		l0.029-0.027c0.609-0.637,1.479-1.269,2.166-2.035c0.485-0.535,0.899-1.186,0.959-1.996c0.003-0.059,0.005-0.121,0.005-0.19
		c0-0.078-0.005-0.16-0.005-0.189c-0.49-2.443-1.524-4.526-3.143-6.309l0.006-0.006l-0.042-0.029
		c-0.543-0.322-0.995-0.838-1.74-0.914c-0.029-0.002-0.056-0.004-0.074-0.004c-0.197,0-0.412,0.051-0.599,0.156l-0.309,0.172
		l0.262,0.237c0.652,0.591,1.331,1.168,1.975,1.867c0.924,1.342,1.774,2.775,2.162,4.459l0.006,0.125
		c0,0.006,0.003,0.033-0.004,0.082c-0.044,0.697-0.317,1.289-0.748,1.803c-0.809,1-2.083,1.734-3.087,2.585
		c-1.492,0.967-2.986,2.084-4.816,2.247c-0.03,0-0.03-0.002-0.03,0c-0.028-0.002-0.038-0.002-0.056-0.002
		c-0.721-0.047-1.4-0.506-1.833-1.186c-0.429-0.932-0.607-2.125-0.787-3.309c-0.212-1.246-0.428-2.513-1.06-3.64
		c-0.063-0.108-0.066-0.236-0.014-0.346c0.826-1.721,2.082-4.262,2.735-5.799c0.285-0.771,1.031-1.154,1.185-2.158l0.008-0.078
		l-0.03-0.066c-0.164-0.342-0.434-0.58-0.814-0.612c-0.02-0.004-0.038-0.004-0.048-0.004c-0.172,0-0.379,0.08-0.539,0.235
		c-3.037,2.465-6.142,4.873-9.346,7.058c-0.173,0.184-0.354,0.26-0.523,0.389c-0.143,0.1-0.338,0.092-0.469-0.027
		c-0.13-0.118-0.163-0.311-0.074-0.463c1.095-1.928,2.042-3.906,2.803-5.948l0.01-0.015l0.007-0.033
		c0.006-0.108,0.021-0.151,0.027-0.221c0-0.025,0.002-0.064,0.002-0.111c-0.011-0.166-0.013-0.313-0.228-0.477h0.002l-0.034-0.017
		c-0.051-0.024-0.131-0.042-0.129-0.04c-0.35,0.026-0.517,0.075-0.653,0.506c-1.578,3.639-3.806,7.18-6.371,10.475
		c-0.095,0.121-0.251,0.174-0.4,0.131c-0.145-0.041-0.253-0.168-0.27-0.321c-0.104-0.964-0.166-1.955-0.166-2.916
		c0-0.146,0-0.294,0.006-0.445c0.006-0.115,0.063-0.223,0.16-0.291c0.976-0.676,1.949-1.392,2.868-2.162l0.019-0.016l0.03-0.033
		c0.171-0.207,0.316-0.439,0.34-0.74c0-0.018,0.002-0.045,0.002-0.076c0-0.104-0.017-0.211-0.055-0.326l-0.015-0.053l-0.029-0.031
		c-0.164-0.133-0.142-0.19-0.233-0.262c-0.081-0.076-0.188-0.162-0.425-0.207l-0.021-0.002c-0.089,0-0.186,0.027-0.256,0.066
		l-0.08,0.045l-0.029,0.065c-0.321,0.748-0.987,1.215-1.674,1.664c-0.118,0.076-0.272,0.078-0.395,0.006
		c-0.122-0.073-0.193-0.209-0.182-0.35c0.034-0.434,0.067-0.842,0.089-1.076l0.004-0.053v-0.008l0.029-0.146
		c0.067-0.154,0.18-0.311,0.241-0.703c0-0.022,0.002-0.049,0.002-0.082c0-0.026-0.002-0.061-0.002-0.088l-0.004-0.035l-0.014-0.039
		c-0.072-0.266-0.427-0.416-0.575-0.424c-0.024,0.002-0.046,0.002-0.07,0c-0.03-0.004-0.055-0.004-0.076-0.004
		c-0.058,0-0.105,0.002-0.156,0.01l-0.07,0.003l-0.061,0.051c-0.715,0.533-0.94,1.33-0.987,2.088
		c-0.015,0.199-0.019,0.395-0.019,0.592c0,0.348,0.013,0.691,0.013,1.025c0,0.182-0.005,0.362-0.016,0.516v0.029
		c0,0.135-0.073,0.26-0.189,0.328c-1.332,0.745-2.518,1.655-3.963,2.022l-0.056,0.014c-0.247,0.22-0.36,0.193-0.453,0.601
		l-0.002,0.022c0,0.087,0.036,0.205,0.078,0.273L96.772,28.133z M111.767,12.414l0.016,0.016c0.961,0.933,2.106,1.306,3.298,1.49
		c1.417,0.207,2.833,0.172,4.119,0.572l0.006,0.002l0.01,0.002l-0.001,0.004c0.282,0.063,0.21,0.106,0.389,0.211
		c0.214,0.135,0.373,0.262,0.63,0.334l0.046,0.01h0.063c0.013,0.002,0.026,0.002,0.051,0.002c0.205,0.006,0.544-0.153,0.716-0.383
		l0.083-0.1l-0.024-0.129c-0.013-0.341-0.166-0.576-0.361-0.8l-0.031-0.034l-0.028-0.015c-0.97-0.547-2.024-0.787-3.065-0.906
		c-1.419-0.204-2.842-0.284-4.076-0.762l-0.035-0.012l-0.031-0.004v-0.006c-0.336-0.08-0.234-0.136-0.397-0.228
		c-0.111-0.098-0.255-0.229-0.409-0.358c-0.148-0.101-0.283-0.177-0.485-0.195c-0.027-0.002-0.045-0.004-0.045-0.004
		c-0.218-0.002-0.457,0.131-0.642,0.34l-0.032,0.031l-0.01,0.024c-0.036,0.078-0.049,0.154-0.053,0.217v0.003
		c0.019,0.403,0.147,0.444,0.282,0.653L111.767,12.414z M98.295,18.672l-0.149,0.344l0.198-0.319
		c0.156,0.102,0.141,0.067,0.263,0.151l0.07,0.043l0.082-0.002c1.223-0.035,2.464-0.096,3.684-0.096
		c0.604,0,1.203,0.012,1.791,0.057c0.401,0.027,0.79,0.066,1.162,0.115c0.185,0.006,0.356,0.197,0.381,0.309
		c0.04,0.115,0.049,0.214,0.053,0.373c0,0.035-0.004,0.064-0.006,0.078h-0.002l-0.006,0.062l-0.044,0.203l0.198,0.078
		c0.049,0.02,0.089,0.028,0.118,0.03h0.011c0.217-0.008,0.355-0.051,0.478-0.143l-0.072-0.047c-0.082-0.054-0.141-0.14-0.158-0.238
		l-0.002-0.004c-0.029-0.148,0.032-0.299,0.154-0.383c0.122-0.086,0.284-0.09,0.411-0.009l0.116,0.072
		c0.074-0.162,0.126-0.336,0.141-0.528v-0.099c0-0.133-0.022-0.274-0.075-0.41l-0.018-0.043c-0.253-0.285-0.429-0.567-0.891-0.684
		c-0.285-0.058-0.77-0.18-1.141-0.228c-0.334-0.034-0.642-0.061-0.956-0.084c-0.607-0.041-1.227-0.067-1.853-0.067
		c-1.123,0-2.261,0.073-3.351,0.25l-0.047,0.01l-0.023,0.014c-0.264,0.138-0.485,0.297-0.632,0.576
		c-0.049,0.119-0.057,0.182-0.062,0.246l-0.002,0.021c-0.01,0.084,0.088,0.27,0.166,0.336
		C98.293,18.672,98.293,18.672,98.295,18.672"/>
</g>
</svg>
