<svg id="uMallLogo" data-name="uMallLogo" xmlns="http://www.w3.org/2000/svg" viewBox="0 0 440.58 152"><defs><style>.logo__bg{fill:#ffeced;}.logo__word{fill:#494949;}</style></defs><path class="logo__bg" d="M1178.78,543.92a1.54,1.54,0,0,0-.94-.36c-2.79.36-5.46-.47-8.18-.76-.35,0-.69-.13-1-.19a3.52,3.52,0,0,1,.72-1c.91-.64.57-1.55.54-2.35,0-.29-.54-.84-.79-.82-4.25.48-8.38-1-12.61-.79a14.11,14.11,0,0,1-7.11-1.51c-3.27-1.63-6.82-2-10.26-2.82-1.88-.42-3.93,0-5.89-.1s-3.73-.6-5.6-.68c-3.23-.13-6.47.15-9.67-.71-1.14-.3-1.5-.34-.89-1.55.24-.47-.29-1.33-.47-2-.37.19-.74.36-1.09.56-1,.55-2,1.08-3,1.69-1.46.92-3,.56-4.48.26-.54-2.46-1.69-.92-2.83-.51-3,1.06-3,1-6,0a1.53,1.53,0,0,1-.84-.82c-.2-.54.07-.8,1.34-1.63a15.72,15.72,0,0,1,5.83-1.93c3.1.18,6.25-.55,9.31.67a8.67,8.67,0,0,0,2.93.05c.86,0,1.73,0,2.59,0s2,.38,2.66-.69c.68,1,1.7.66,2.63.7.12,0,.31,0,.36,0,1-1.3,2.52-.43,3.76-.74s2.39-.94,3.76-.73c1.8.27,3.59-.71,5.21-.57,2.09.18,3-2.08,4.94-1.64.07,0,.27-.16.26-.21s-.1-.44-.23-.5a4.77,4.77,0,0,0-1.9-.71,38,38,0,0,1-7.82-.73c-2.09-.34-4.22,0-6.37-.68-1.54-.53-3.41,0-5.13-.13s-3.23-.55-4.86-.68c-1.47-.13-3.22.46-4.36-.15-1.54-.83-2.61.26-3.88.12-.25,0-.57.1-.73,0-1.87-1.3-4-.59-6-.69s-3.94,0-5.9,0c-.21,0-.41-.2-.61-.3.15-.14.29-.38.46-.41,1-.15,2-1.49,2.9-.56,1.1,1.14,1.65-.1,2.45-.18s2,.29,2.64-.76c.9-1.45,2.31-1.51,3.83-1.48,2.19,0,4.49.3,6.56-.23,1-.27,2.07-.28,3.09-.49s2-.54,3-.71a1.85,1.85,0,0,1,1.37.2c1.51,1.31,2.33.12,3.35-.74.78-.68.18-.93-.2-1.33s-.46-.52-.69-.78a4.46,4.46,0,0,1,1-.31c5.1-.55,10.1,1.05,15.19.73.12,0,.32-.05.36,0,1.06,1.64,2.89.34,4.35,1.14s3.32.32,5,.31c1.4,0,2.75.67,4.2,0,1.19-.51,2.23.6,3.37.68,2,.13,4-.18,6,.72.61.28,1.83.35,2.13,0,1.18-1.42,2.67-1.3,4.23-1.53a3.18,3.18,0,0,0,2-2.19c.19-1.33-1.43-.15-2-.85-.62-.87-1.55-.48-2.36-.52-1.1-.06-2.55.42-3.25-.11-1.29-1-2.67-.2-3.8-.7a9.58,9.58,0,0,0-4.14-.68c-.61,0-1.47.19-1.77-.12-1-1-2.06-.51-3.1-.59s-1.79-1.67-2.73-.07c-1.07-1.43-2.78-.14-4-1,1.23-.4,2.46-.83,3.7-1.2.34-.1.76.07,1.1,0a24,24,0,0,0,3.21-1.15,1.58,1.58,0,0,0,.67-1.14c0-.17-.67-.65-1-.6a7,7,0,0,1-4-1,3.25,3.25,0,0,0-.91-.46,48.63,48.63,0,0,0-6.33-.7,53.66,53.66,0,0,1-6.35-.74c-3.08-.34-6.19.15-9.3-.7-2-.54-4.3.25-6.32-.82-4.11.35-8.11-1.22-12.24-.76a28.39,28.39,0,0,1-3.69,0,1.84,1.84,0,0,1-.63-.25,3.74,3.74,0,0,1,.59-.77,1.87,1.87,0,0,1,.91-.43c3.22-.34,6.54.73,9.66-.75.78,1.13,2,.05,2.55.34,1.12.63,2.23,0,3.16.43,3,1.37,6.21.43,9.31.68.87.07,2.62-1.56,2.47-2.22-.18-.85-.8-1.26-1.74-1.53-.61-.18-1.15-.7-1.93-.66a6.36,6.36,0,0,1-2.69-.62c-2.09-.85-4.56-.69-6.47-2.22-.23-.18-.7-.08-1.06-.09a25.24,25.24,0,0,1-5.63-.63c-2.12-.55-4.43-.15-6.7-.74s-4.44-.19-6.7-.74-4.45-.19-6.71-.74-4.44-.25-6.7-.72c-2.65-.55-5.43-.35-8.18-.72-4.15-.56-8.4,0-12.61-.8-3.27-.61-6.65.18-10-.67-2.67-.67-5.65-.34-8.45-.08s-5.44-.92-8.19-.76c-1.38.07-2.74.5-4.12.69-2.17.31-4.24-.34-6.35-.68a28.74,28.74,0,0,0-4.05-.05c-1.21,0-2.83.38-3.54-.24-1.52-1.33-2.42.33-3.6.24a2.17,2.17,0,0,1-1-.24,4.39,4.39,0,0,0-4.17-.34c-1.36.55-2.36.82-3.57,0-.93.84-1.68.31-2.68-.06s-2.42-.09-3.65-.09c-2.46,0-4.93.06-7.38,0-1.15,0-2.27.22-3.48-.57a3,3,0,0,0-3.41.34,1.27,1.27,0,0,1-1,.24,10,10,0,0,0-2.28-.66,19,19,0,0,0-2.65.66c-.72.11-1.69.32-2.17,0-1.57-1.16-3.28-.7-4.9-.63s-3.41-.78-4.91.59a1,1,0,0,1-.95-.13c-.69-.82-1.61-.58-2.38-.48-2.11.27-4.37-.87-6.33.67-1.31-1.43-3.12-.89-4.47-.58-1.53.35-2.82-.19-4.22-.17-8.49.09-17,0-25.46.05a5,5,0,0,0-2.13.19,7.22,7.22,0,0,1-5.92.19c-1-.4-1.1.68-1.74.36a4.4,4.4,0,0,0-1.9-.69c-.9,0-1.76.6-2.66.65-3.95.22-7.9,0-11.89.65-4.36.72-8.87-.07-13.34.75-4,.73-8.13-.1-12.25.73-3.85.77-7.89.6-11.85.84-.24,0-.57-.1-.72,0-1.5,1.16-3.26.81-4.87.67s-3.24.67-4.87.77a24,24,0,0,1-4.79,0c-1.31-.18-2.4.78-3.87.15s-2.82,1.08-4.45.66a2.45,2.45,0,0,0-1.36.24c-3.06,1.23-6.35,1.37-9.53,1.89a74.78,74.78,0,0,0-8.15,1.76c-1.09.3-2.08,1-3.17,1.22-7.48,1.8-11,2.66-17.11,5.92-.41.22-.76.64-1.18.71-2.52.39-4.89,1.38-7.49,1.59s-4.83,1.45-7.37,1.75a3.18,3.18,0,0,0-1,.37c-.77.33-.77.89-.24,1.37a2.85,2.85,0,0,0,1.49.8,11.09,11.09,0,0,0,4.16-.58,11.62,11.62,0,0,1,5.12-.06c1.77.26,3.2-.77,4.87-.83,3-.12,5.95-.46,8.92-.7a2,2,0,0,0,.7-.11,13.52,13.52,0,0,1,6.44-1.36c2.28.13,4.37-1.07,6.71-.8a7.76,7.76,0,0,0,4.89-.61,9.9,9.9,0,0,1,3.72-.79c3.22-.3,6.44-.51,9.66-.75.24,0,.59.1.72,0,1.12-1,2.5-.84,3.76-.67,1.52.19,2.74-.69,4.13-.78,2.37-.14,4.81.4,7.08-.74,4.24.35,8.35-1.18,12.61-.79a39.25,39.25,0,0,0,8.11,0c1.48-.17,3.11-1.22,4.41-.48a3.9,3.9,0,0,0,1.32.45c-1.65.34-3.32.55-5,.89a63.6,63.6,0,0,0-7.86,2.07c-1,.36-2,1.13-3.06,1.44a90.16,90.16,0,0,0-9.42,3.12,7.26,7.26,0,0,1-2.37,0c-1-.2-2,.12-3.13-.52-.74-.43-2.15.36-3.27.51-2.23.28-4.48.46-6.7.77a4.09,4.09,0,0,0-1.54.72c-.14.09-.27.2-.4.3-1.25-.4-2.61,1.32-4.11.86a2,2,0,0,0-1.31.27c-3,1.45-6.12,1.62-9.2,2.25a63.45,63.45,0,0,0-7.85,2.07c-1.05.36-2,1.13-3.06,1.44-7.21,2.12-10.62,3.14-16.48,7a5,5,0,0,0-.57.48,26.19,26.19,0,0,1-3,.1c-2.21,0-4.43-.06-6.64,0A10,10,0,0,0,779.8,520c-1.29,1-2.19,2.71-4.27,2.18-.92,1.18-2.56,1.16-3.57,2a30.32,30.32,0,0,1-7.67,4.69,16.63,16.63,0,0,0-6,4.36c-1.31,1.52-2.68,3.11-4.74,3.63-1,.24-.65.82-.75,1.35s-.26,1.07-.4,1.6c-.47-.89-1.43-.05-1.5-.14-.89-1-1.14.11-1.63.39a3.66,3.66,0,0,1,.93.54,1.26,1.26,0,0,1,.36.92c-.12.43-.64.78-.66,1.18a5.14,5.14,0,0,0,.44,1.57c.5-.29,1.17-.47,1.45-.9a12.67,12.67,0,0,0,.59-2c.12-.32.49-.53.75-.79a4.74,4.74,0,0,1,.41.85c.62,2.47,2.81,3.51,4.76,4a21.51,21.51,0,0,0,5.16,1c1.11,0,2.22.06,3.32,0,.29,0,.61-.52.77-.87.33-.72.38-.58.79,0,.86,1.25,1.35,1.24,2.18.24.44-.53.58-.56.72-.09.41,1.5,1.68,1.41,2.79,1.68.27.06.72.34.76.29,1-1.41,3.33-1.07,3.87-3.05.09-.31.48-.56.77-.78,1-.77,1.77-.43,2.17.89a3.93,3.93,0,0,0,.34.92c1.81-.31,2.46,1.28,3.58,2.1.52.37,1.2.37,1.24-.57s.8-.67,1.33-.73c.91-.09.9.52.91,1.17a2.49,2.49,0,0,0,.3,1c.09.21.31.36.41.57.77,1.67.53,2.11-1.2,2.46-2.13.42-4.53.45-6.16,2a8,8,0,0,1-3.79,1.58c-1.37.37-2.57,1-3.86,1.4-2.34.74-4.18,2.31-6.4,3.26a111.86,111.86,0,0,0-10.56,5.68c-.41.23-.69.7-1.06,1s-.61.58-.86.53c-1.37-.22-1.84,1-2.71,1.54s-2,.69-2.72,1.37a4.85,4.85,0,0,1-3.82,1.6,3.6,3.6,0,0,0-3.36,3.19c-.17,1,.3,1.39,1.21,1.07,1.29-.44,2.55-1,3.86-1.34a23,23,0,0,1,4.49-.72c1.43-.06,2.59-1.24,4.13-.82a2.5,2.5,0,0,0,1.71-.26c3.09-1.81,6.67-.88,9.94-1.83,2.23-.66,4.69-.54,7-.84.42-.06.77-.51,1.19-.68a5.21,5.21,0,0,1,1.71-.45c.73,1.4-.87.94-1.3,1.47a1.32,1.32,0,0,1-.92.4c-1.8-.09-3,1.09-4.41,1.86-2.12,1.13-3.81,2.86-6.25,3.64-1.55.49-3.44-.38-4.67,1.15-4.07-.13-7.42,2.47-11.32,3-.16,0-.3.27-.44.42a2.78,2.78,0,0,0,.52.51,2.82,2.82,0,0,0,1.25.5c1.89-.08,3.74.23,5.64-.62,1.55-.68,3.84,0,5.1-1,1.8-1.3,3.55.49,5.08-.61,3.19.14,6.26-1.2,9.67-1.07.14-.12.27-.22.2,0,.3-.26.46-.14.45-.11a3.61,3.61,0,0,1-.33.44l-.16-.16c-.43,1.64-1.76.83-2.48,1.21a28.63,28.63,0,0,1-7,2.56,21.92,21.92,0,0,0-5,2.21c-1.65.8-3.49,1-4.86,2.58a9.81,9.81,0,0,1-6.32,3.26c-3.1.22-6.12,1.4-9.28.88a1.72,1.72,0,0,0-1.06.09c-.4.25-1,.69-1,1a1.43,1.43,0,0,0,1,1c1,.16,2-.07,2.92.12,4.66,1,5,1,9.73,0a8.57,8.57,0,0,1,3.31,0A5.67,5.67,0,0,1,759,595a2.43,2.43,0,0,1,.52,1.59c0,1-.83.55-1.32.74s-.59.52-.87.8c.22.21.43.61.67.62,3.84.2,7.62,1.19,11.5.78.85-.09,1.72,0,2.58,0,2.5,0,5,.1,7.47-.66,1.13-.35,2.07-1,3.13-1.36a2.87,2.87,0,0,1,2.39,0c.92.79,1.85.39,2.76.54,3.28.54,6.42-.78,9.66-.71.59,0,1.47-.53,1.74.46,0,.12-.92.57-1.45.75-1.73.6-3.44,1.5-5.21,1.63-3.09.22-5.73,1.62-8.57,2.53-2,.62-3.63,1.95-5.82,2a6.05,6.05,0,0,0-2.46,1.12c-3.26,1.9-6.24,4.13-10.1,5.08-3,.75-6.13,1.17-9.17,1.85-.45.1-.89.23-1.33.35a8.35,8.35,0,0,0,1,1,4.24,4.24,0,0,0,1.51.8c1,.2,2-.11,3.09.65.54.39,1.92-.53,2.94-.59,2.49-.15,5,.3,7.44-.77,5.09.38,10.08-1.28,15.19-.76.83.09,2,.25,2.46-.19,1-1,2.29,0,3-.75s1.41.33,2.25-.4c.62-.55,2.12-.11,3.22-.11,1.6,0,3.42.48,4.75-.11,2.56-1.13,5.17-.34,7.73-.9s5.29-.36,7.94-.46c1.11,0,2.45.38,3.27-.1,1.17-.68,2.28-.52,3.44-.66s2.49-.63,3.75-.69c4.09-.2,8.17.23,12.26-.7,2.76-.63,5.77.56,8.55-.77.32-.15.88.18,1.33.28a6,6,0,0,0,2,.39,41.8,41.8,0,0,0,5.87-1c2.21-.73,4.32-.18,6.44-.47.9,1.27,1.76-.27,2.72,0s2.5.48,3.25,0c2.38-1.65,5.27.43,7.52-1.28,1.24,1.22,2.79.38,4.17.63.88-1.53,2.67-.26,3.93-1.32.74-.62,2.72-.37,3.8.18a4.75,4.75,0,0,0,3.84.28c1.68-.71,3.28-.46,4.92-.63a11.85,11.85,0,0,0,2-.56c.28-.08,7.87-.21,8.21-.24,2.72-.25,5.41.57,8.21-.51,2-.77,4.51.24,6.65-.87a.86.86,0,0,1,.72,0c1.91,1.35,3.79.76,5.68,0,2.89-1.2,5.93-.66,8.92-.71,1,0,4.9-.07,5.56-.26,1.78-.51,3.34-2,5.51-.58,1,.68,2.47-.44,3.7-.57s2.95.95,4.07.53c1.91-.72,3.76-.53,5.65-.61a21.91,21.91,0,0,1,4,0c1.3.2,2.42-.65,3.86-.17,1,.32,2.36-.62,3.56-1a2.29,2.29,0,0,1,.78,0c1.07.11,2.13.25,3.19.31s2.33.42,2.88-.07c1.15-1,2,.68,2.76.06a4.13,4.13,0,0,1,3.4-.67,21.39,21.39,0,0,0,4.93,0c3.92-.26,7.87-.19,11.81-.06s7.85-1.18,11.87-.81c2.81.26,5.66,0,8.48.09,1.27.07,2.59-1.15,3.32-.67,1.66,1.1,3.32.56,4.93.59,5.9.11,11.81,0,17.71,0,.86,0,1.89-.28,2.53.09a1.78,1.78,0,0,0,2.14.17,5,5,0,0,1,3.84,0,5.49,5.49,0,0,0,2.75.48c1.64-.06,3.39.49,4.86-.71,2.35.34,4.8-.66,7.12.66.65.37,1.79-.18,2.51.14,1,.44,1.44-1.22,2.51-.33.34.28,1.4-.33,2.14-.46.92-.16,1.86-.24,2.79-.39.21,0,.4-.35.59-.34.91,0,.88-.54.91-1.18s-.41-.81-1-1.12a11.7,11.7,0,0,0-3.86-1.31,42.71,42.71,0,0,1-4.5-.77,23.6,23.6,0,0,0-4-.07c-1.4-.07-2.78.25-4.18-.64-.86-.55-2.15.36-3.42,0s-2.93-.08-4.4-.08c-.74,0-1.75.3-2.16-.06-1.32-1.18-2.8-.44-4.18-.68s-2.74-.58-4.12-.71-2.71,0-4.06,0l-4.05,0c-1.16-1.86-2.29.71-3.46,0-.19-.11-.5,0-.73,0s-.55-.23-.55-.36a1.55,1.55,0,0,1,.25-1c.3-.35.72-.79,1.11-.82,1.89-.14,3.84.25,5.6-.77,1.69,1,3.7.44,5.48,1,.25.08.71.19.75.11.93-1.76,2.14-.51,3.31-.43,2.45.15,4.92.08,7.38,0a2.23,2.23,0,0,0,1.51-.72c.67-.88,1.08-.55,1.61.09s1.07,1.09,1.76.28c1.44-1.7,3.25-1.11,5-.88.36,1.39,1.25-1,1.94.28.25.46,1.8.23,2.76.23.45,0,1.28-.21,1.28-.33,0-1.61,1.94-1.12,2.39-2.28.32-.85,1.11-1.54,1.34-2.39.36-1.33,1.15-1.62,2.38-1.64a9.73,9.73,0,0,0,4.18-.58c1.14-.5,3.26-.81,3.8,1.44.23.95.93.68,1.43.61a12.56,12.56,0,0,0,2.28-.72c.27-.11.65-.34.71-.58a32.2,32.2,0,0,0,.72-3.75c0-.23-.5-.67-.83-.77s-.53.44-.85.55c-.64.21-2-.48-1.92-1.06a2.23,2.23,0,0,1,.84-1.45c.44-.29,1.44-.48,1.65-.24,1,1.17,2.3.6,3.44.66,2,.09,4.1-.44,5.86.15a13.9,13.9,0,0,0,4.91.57c1.51,0,3,.7,4.56.07s3,.77,4.48.66c4-.27,8,.87,11.88-.68.32-.12.92-.16,1.06,0,1,1.23,2.3.74,3.42.66,2.59-.21,5.26.75,7.82-.51.2-.1,1.17,1.07,1.64.11.22-.48.65-1.7-.92-1.86-.47,0-.83-1.24-1.22-1.92-.16-.29-.26-.89-.39-.89-2.21,0-3.89-1.32-5.73-2.24a.86.86,0,0,0-.72,0c-1.41.92-2.8-.19-4.2,0a5.05,5.05,0,0,1-3-.7,10.78,10.78,0,0,0-6.38-1.5,11.34,11.34,0,0,1-7.43-1.66,6.09,6.09,0,0,0-1.2-.53c-.84,1.49-2.53.18-3.65,1.17-.66.59-1.84.27-3-.21-2.82-1.19-3.1-3.55-3.41-6-.13-1,.3-1.11,1.36-.64.91.4,2.21,1.29,2.71,1,1.43-.9,2.85-.41,4.24-.49,1.91-.1,1.89,0,2,1.88a17,17,0,0,0,.3,1.71,4.11,4.11,0,0,1,.46-1.51c.64-.79,1.81-1.74,2.52-1.25,1.3.89,2.13-.23,3.09-.36,1.39-.19,1.29-.46,2.38.46.89.76,1.55-.3,2.27-.6.27-.11.36-.64.54-1a5.44,5.44,0,0,0,.26,1,9.58,9.58,0,0,0,.59,1.09,11.1,11.1,0,0,0,.86-.82c.23-.26.37-.59.59-.86.79-.94.65-.15.94.39.58,1.06,1.72.55,2.57.45.41,0,.88-.82,1-1.35.08-.29-.36-.87-.71-1.12-1.35-.94-3.06-1.41-3.84-3.08a1,1,0,0,0-.94-.17c-.91,1.12-1.54.61-2.37-.16a3.27,3.27,0,0,0-1.93-.62c-1.47-.08-3,.1-4.42-.06s-3.53-.15-4.68-1-2.44-.78-3.6-1.22c-1.52-.59-3-.44-4.51-.7a31.91,31.91,0,0,1-4.93-1.44c-.89-.31-.16-.73.12-.92a2,2,0,0,1,1.24-.5c1.36.18,2.51-.52,3.76-.72s2.76-.34,4.15-.65,3.37-1.86,4.64.54c.08.16.79.2,1,0,1.07-.75,2-.48,3.13,0a2.38,2.38,0,0,0,2.85-1A2.18,2.18,0,0,1,1123,545c.6.16,1.48.66,1.76.44.79-.67,1.63-.3,2.42-.46.55-.11,1.31-.18,1.58-.55a2.55,2.55,0,0,1,2.61-.9,3.24,3.24,0,0,0,3.25-1.13c.21-.28.86-.34,1.3-.33a4.39,4.39,0,0,0,3.67-1.8c1.09-1.44,2.55-1.22,4-1.14,1,.05.48.92.59,1.44.77.15,1.15-1.58,2.16-.44.57.65,1.31,1.12.31,2.07s1,1.51.56,2.5c0,0,.16.17.25.26.14-.17.36-.32.39-.5.06-.35,0-.74,0-1.1.3-2.07,1.54-2.69,3.12-1.45.83.65,1.26,1.24,2.4.3.59-.49,1.89-.24,2.84-.09.24,0,.45,1,.43,1.5,0,.23-.94.64-1,.61-1.34-1.84-2.24.32-3.35.42-.31,0-.54.93-.8,1.44a8.25,8.25,0,0,1,1.31.39c.9.4,1.65-1,2.44-.28,1.59,1.46,3.2.45,4.8.19.54-.09,1-.6,1.57-.63,1.45-.07,3,.23,3.28-1.9a2,2,0,0,1,1.62-.29c1.06.51-.47.78-.24,1.23s.49.89.76.89c3.56.06,7.13,0,10.7,0a1.9,1.9,0,0,0,1-.29c.3-.18.69-.47.74-.77S1179.06,544.12,1178.78,543.92Zm-34.71-39.4c.22,0,.44.3.65.46l-1.72.45-.26-.68A6.86,6.86,0,0,1,1144.07,504.52ZM823.75,574a2.16,2.16,0,0,0-2.57.32,6.39,6.39,0,0,1-4,.88c-2-.08-3.92,0-5.87,0-1.25,0-2.5-.26-3.75-.4a14.34,14.34,0,0,1,3.63-.92c2.6-.67,5.38-.6,8.09-.88.8-.08,1.57-.36,2.37-.46a16.3,16.3,0,0,1,3.19-.21c.36,0,.68.64,1.18,1.16C825.18,573.72,824.26,574.29,823.75,574Zm267.44,1.78c-.06,0-.16-.15-.24-.23a2.42,2.42,0,0,1,.49-.23c.06,0,.16.15.25.23A2.78,2.78,0,0,1,1091.19,575.82Zm5.64-10.82a.74.74,0,0,1-.56.41c-2.18-.19-4.59-3-4.57-5.3a4.07,4.07,0,0,1,.25-1,9.41,9.41,0,0,0,.48,1.07,19.54,19.54,0,0,0,1.36,2c.13.17.5.16.76.24,0-.24,0-.55.1-.69.73-.78-1.34-1.38-.19-1.88.38-.17,1.51.7,1.89,1.33a5.1,5.1,0,0,1,.5,2A10.5,10.5,0,0,1,1096.83,565Z" transform="translate(-739.65 -463.72)"/><path class="logo__bg" d="M776.48,578.57h0l.17.16s0-.11,0-.17A1.33,1.33,0,0,0,776.48,578.57Z" transform="translate(-739.65 -463.72)"/><path class="logo__bg" d="M1177.84,539.13c-.1,0-.25,0-.37,0-1.5-.12-3.26.58-3,1.18.57,1.22,1.77,1.07,2.58,1a6.48,6.48,0,0,1,.66,0,2.29,2.29,0,0,0,2.51-1.06C1179.43,539.89,1178.64,539.5,1177.84,539.13Z" transform="translate(-739.65 -463.72)"/><path class="logo__bg" d="M1142.62,542.07c-1.08,1.16.34,2.26.09,3.4.17,0,.39.1.51,0,1-.55,1.27-1.66.9-3.07a8.06,8.06,0,0,1,0-1.84,9.55,9.55,0,0,1-.75.91A5.93,5.93,0,0,1,1142.62,542.07Z" transform="translate(-739.65 -463.72)"/><path class="logo__bg" d="M1135.49,564.05c.17-.09.42-.14.5-.28.36-.68.67-1.38.92-1.92-.22-.62-.33-.94-.45-1.25-.16.33-.24.78-.51,1a1.8,1.8,0,0,0-.7,1.86A2.86,2.86,0,0,0,1135.49,564.05Z" transform="translate(-739.65 -463.72)"/><path class="logo__bg" d="M1132.29,558.45c.24.19.53.57.72.52s.62-.42,1.14-.81c-.58-.33-1-.66-1.09-.58A3.27,3.27,0,0,0,1132.29,558.45Z" transform="translate(-739.65 -463.72)"/><path class="logo__bg" d="M741.8,575.92c.14.08.51-.26,1.1-.58-.52-.39-.8-.73-1.15-.81-.18,0-.47.33-.71.52A3.58,3.58,0,0,0,741.8,575.92Z" transform="translate(-739.65 -463.72)"/><path class="logo__bg" d="M1145.76,576a2,2,0,0,0-.89.73c0,.07.35.66.53.66a4.33,4.33,0,0,0,1.31-.54C1146.19,576.37,1145.89,576,1145.76,576Z" transform="translate(-739.65 -463.72)"/><path class="logo__bg" d="M1080.86,584.2c-.08.08,0,.33,0,.49s.19.07.51.18a6.81,6.81,0,0,0,.92-.7c.16-.17.17-.49.25-.74-.22,0-.51-.17-.65-.08A5.07,5.07,0,0,0,1080.86,584.2Z" transform="translate(-739.65 -463.72)"/><path class="logo__bg" d="M1135.23,558.3a5.83,5.83,0,0,0-.88.67c.27.41.4.59.52.78l1-1.25C1135.63,558.42,1135.36,558.23,1135.23,558.3Z" transform="translate(-739.65 -463.72)"/><path class="logo__bg" d="M1097.45,580.41a2.76,2.76,0,0,0-.57,1s.28.21.43.31l1-1C1098,580.62,1097.56,580.32,1097.45,580.41Z" transform="translate(-739.65 -463.72)"/><path class="logo__bg" d="M1141.15,541.33c.06,1.1.91.63,1.47.74C1142.56,541,1141.71,541.44,1141.15,541.33Z" transform="translate(-739.65 -463.72)"/><path class="logo__bg" d="M1130.1,545.57a3.66,3.66,0,0,0,.34.92l.43-.65-.43-.82C1130.32,545.2,1130.08,545.4,1130.1,545.57Z" transform="translate(-739.65 -463.72)"/><path class="logo__bg" d="M1147.08,576c0,.17.14.4.22.6l.64-.27c-.23-.57-.32-.77-.4-1C1147.38,575.55,1147.14,575.74,1147.08,576Z" transform="translate(-739.65 -463.72)"/><path class="logo__bg" d="M1135.24,580a3.66,3.66,0,0,0,.92.34c.17,0,.37-.22.56-.34l-.83-.43Z" transform="translate(-739.65 -463.72)"/><path class="logo__bg" d="M1140.48,540.9c.11.14.22.29.34.43h.33a2.13,2.13,0,0,0-.23-.56S1140.63,540.85,1140.48,540.9Z" transform="translate(-739.65 -463.72)"/><path class="logo__bg" d="M1131.69,544.52a2.78,2.78,0,0,0,.23.5l.26-.27-.26-.47C1131.84,544.36,1131.67,544.46,1131.69,544.52Z" transform="translate(-739.65 -463.72)"/><path class="logo__bg" d="M740.16,575a2.78,2.78,0,0,0-.23-.5l-.26.27.26.47C740,575.14,740.17,575,740.16,575Z" transform="translate(-739.65 -463.72)"/><path class="logo__word" d="M1083.9,552.62a3.27,3.27,0,0,0-2.29-2.37,5.37,5.37,0,0,0-5.28.92c-4.07,3.52-25,21.17-37.23,23.72-2.48.53-4.35.22-5.56-.94-1.41-1.36-1.83-3.8-1.26-7.27.16-.7.29-1.36.41-2a24.41,24.41,0,0,1,1.12-4.31c.67-3.42,0-6.15-1.9-8-1.53-1.49-6.49-2.33-9.15-2.78-1-.17-1.81-.3-2.28-.43l-.7-.18.2-.48c0-.11,4.56-11.35.36-15.23a6.73,6.73,0,0,0-6.77-1.76c-4,1.26-6.71,5.5-7.39,11.36a10.9,10.9,0,0,0,1.86,7.68l.07.07a10.29,10.29,0,0,0,1.82,1.67l.8.58-3.9,2.52c-12.83,8.32-25,16.17-39.85,16.79-2.88.13-10.19,0-15.6-3.77-4.26-2.82-5.68-5.95-4.75-10.47l0-.14.12-.17.68-.63.14,0a25.58,25.58,0,0,0,13.24-6.17c6.25-5.57,7.64-11.37,6.93-14.65a5,5,0,0,0-3.44-4c-3.75-1.14-9.22,1.43-15,7.07a29.29,29.29,0,0,0-8.48,14.29l0,.14-.13.17a163.83,163.83,0,0,1-23.72,18.44c-8.05,5.06-14.87,7.9-20.86,8.69-4.56.54-7.89-.17-10.18-2.17s-3.52-5.11-3.91-9.68c-.52-6.81,1-15.79,4.5-26.7l.07-.21.23-.17c12.16-4.62,22.85-13.5,31-25.72,6.86-10.25,11.46-22.21,12.32-32,.35-3.73.34-10.41-3.64-13.38-2.85-2.11-6-.92-8.13.46-4.54,2.91-8.71,8.8-11.45,13a218.45,218.45,0,0,0-15.51,28.71,222.45,222.45,0,0,0-9.35,22.79l-.07.21-.25.17c-10,3.18-20.92,3.3-32.56.4l-.65-.16.17-.65a4.28,4.28,0,0,1,.4-1c3.14-7.37,5.71-14.07,7.85-20.48a153.82,153.82,0,0,0,5.23-19.32c2.35-12,1.72-20.76-1.88-26.08a11.44,11.44,0,0,0-9.9-5.29c-3.36-.08-7.19,1.09-11.4,3.42-13.67,7.5-30.07,27-33.83,46.61a3.55,3.55,0,0,0,2.13,4l.54.23a2.19,2.19,0,0,0,1.91-.09,2.49,2.49,0,0,0,1.15-1.77c3.37-17.65,18.8-35.89,31.16-42.66,3.64-1.94,6.62-2.88,9.12-2.88a5.26,5.26,0,0,1,4.74,2.23c2.9,4.35,1.58,14.3.53,19.84a141.8,141.8,0,0,1-5.07,18.5c-2.48,7.52-5.41,14.69-7.68,20.1-.27.53-.48,1-.71,1.58s-.34.79-.51,1.16l-.25.55-.57-.2c-1.84-.64-3.73-1.37-6.14-2.37a2.17,2.17,0,0,0-1.86,0,2.6,2.6,0,0,0-1.3,1.72l-.13.62a3.71,3.71,0,0,0,2,4.19l.16.06c1.47.61,3,1.23,4.49,1.78l.6.22-.2.62a3.09,3.09,0,0,1-.36.73A257.47,257.47,0,0,1,825,568.14c-4.34,7.12-7.48,11.27-9.32,12.33-1.26.7-1.65,2.59-.87,4.22l.28.57a3.57,3.57,0,0,0,1.72,1.68,2.28,2.28,0,0,0,2-.11c3.8-2.2,8.93-10.53,11.11-14.09a266,266,0,0,0,14.24-26.94,27.87,27.87,0,0,0,1.19-2.61l.22-.56.58.16c11.29,3.26,22.1,3.83,32.14,1.71l1.06-.23-.29,1.06c-2.5,9.14-3.5,17.06-3,23.55.57,7,2.86,12.15,6.79,15.44,3.71,3.15,8.6,4.36,14.55,3.58,6.61-.88,14-3.92,22.68-9.29a154.9,154.9,0,0,0,19.92-14.93l.76-.66.3,1c3.06,9.85,13.41,15.39,27,14.45,15.09-1.1,40.25-17,47.6-21.88a6,6,0,0,1,4.06-.94l.44.06c1.13.14,2.41.31,3.46.49a3.14,3.14,0,0,1,2.29,1.31c.82,1.26.37,3,.16,3.81-1.24,4.05-2.26,9.78-.12,14.16a9.1,9.1,0,0,0,3.58,4c11.06,6.67,33.62-9.65,45.74-18.42,2.6-1.88,4.8-3.47,6.4-4.5C1083.78,554.87,1084.05,553.48,1083.9,552.62Zm-135.24-3.37c.37-1.93,7.67-8.06,9.62-8.7a1,1,0,0,1,1.19.29c.44.55.14,1.25-.44,2.13-1.07,1.62-5.86,7.32-9.12,7.32a2.45,2.45,0,0,1-.62-.07l-.77-.2Zm-58.18-18c2-4.92,4-9.68,6.2-14.15a223.07,223.07,0,0,1,15-27.87c2.75-4.12,6.36-9.14,10-11.51a6.65,6.65,0,0,1,1.53-.73l.63-.18.18.63a21.77,21.77,0,0,1,.24,5.33c-1,10.25-6.44,21.61-11.26,28.83a64,64,0,0,1-21.6,20.48l-1.63.91Zm123.65,16.39-.46.8-.74-.54a2.68,2.68,0,0,1-.88-2.68c.38-3.66,1.76-6.64,3.29-7.09a1.26,1.26,0,0,1,1.38.44C1017.67,539.77,1016.73,543.08,1014.13,547.61Z" transform="translate(-739.65 -463.72)"/><path class="logo__word" d="M1015.72,516.45a5.44,5.44,0,0,0,2.59.55,4.9,4.9,0,0,0,2.63-.63,3.24,3.24,0,0,0,1.38-1.63,7.66,7.66,0,0,0,.39-2.71V505.5h-1.49V512a4.37,4.37,0,0,1-.7,2.88,3.1,3.1,0,0,1-2.34.75,3.27,3.27,0,0,1-1.63-.38,2.07,2.07,0,0,1-.94-1.08,6.38,6.38,0,0,1-.27-2.17V505.5h-1.49V512a7.48,7.48,0,0,0,.43,2.83A3.14,3.14,0,0,0,1015.72,516.45Z" transform="translate(-739.65 -463.72)"/><rect class="logo__word" x="287.97" y="46.72" width="4.25" height="1.4"/><path class="logo__word" d="M1038.11,507.18l3.26,9.62h1.34l3.28-9.45v9.45h1.43V505.5h-2l-2.7,7.87c-.27.79-.47,1.4-.6,1.81-.11-.37-.29-.93-.53-1.68l-2.67-8h-2.24v11.3h1.43Z" transform="translate(-739.65 -463.72)"/><path class="logo__word" d="M1054.56,513.38h4.71l1.31,3.42h1.7l-4.61-11.3h-1.61l-4.32,11.3h1.58Zm1.67-4.53a14.51,14.51,0,0,0,.6-2.16c.18.61.44,1.39.8,2.34l1.18,3.13H1055Z" transform="translate(-739.65 -463.72)"/><polygon class="logo__word" points="333.16 51.75 327.61 51.75 327.61 41.78 326.12 41.78 326.12 53.08 333.16 53.08 333.16 51.75"/><polygon class="logo__word" points="344.27 51.75 338.72 51.75 338.72 41.78 337.23 41.78 337.23 53.08 344.27 53.08 344.27 51.75"/><path class="logo__word" d="M993.23,518.07a6.25,6.25,0,0,0,2.67-.6l0,2.79a.75.75,0,0,0,.75.74h0a.75.75,0,0,0,.74-.75l0-5.63-1.2.94a4.74,4.74,0,0,1-2.94,1,4.82,4.82,0,0,1-1.1-9.5l.67-.16-.11-.68a5.12,5.12,0,0,1-.06-.78,4.8,4.8,0,1,1,9.59,0,4.11,4.11,0,0,1-.07.78l-.11.68.68.16a4.82,4.82,0,0,1-1.11,9.5.75.75,0,0,0,0,1.5,6.31,6.31,0,0,0,2.09-12.26c0-.12,0-.24,0-.36a6.29,6.29,0,1,0-12.58,0c0,.12,0,.24,0,.36a6.31,6.31,0,0,0,2.09,12.26Z" transform="translate(-739.65 -463.72)"/></svg>