<svg width="47" height="47" viewBox="0 0 47 47" fill="none" xmlns="http://www.w3.org/2000/svg">
<g clip-path="url(#clip0)">
<path d="M45.2699 39.0999L34.5899 28.4199C32.9999 30.8899 30.8899 32.9999 28.4199 34.5899L39.0999 45.2699C40.8099 46.9799 43.5699 46.9799 45.2699 45.2699C46.9699 43.5599 46.9699 40.7999 45.2699 39.0999Z" fill="white"/>
<path d="M34.91 17.46C34.91 7.81 27.09 0 17.45 0C7.82 0 0 7.81 0 17.46C0 27.1 7.82 34.91 17.45 34.91C27.09 34.91 34.91 27.09 34.91 17.46ZM17.45 30.55C10.23 30.55 4.36 24.68 4.36 17.46C4.36 10.24 10.23 4.37 17.45 4.37C24.67 4.37 30.54 10.24 30.54 17.46C30.55 24.67 24.67 30.55 17.45 30.55Z" fill="white"/>
<path d="M7.27002 17.46H10.18C10.18 13.45 13.44 10.19 17.45 10.19V7.27002C11.84 7.27002 7.27002 11.84 7.27002 17.46Z" fill="white"/>
</g>
<defs>
<clipPath id="clip0">
<rect width="46.54" height="46.54" fill="white"/>
</clipPath>
</defs>
</svg>
