<svg width="24" height="24" viewBox="0 0 24 24" fill="none" xmlns="http://www.w3.org/2000/svg">
<circle cx="12" cy="12" r="12" fill="white"/>
<path fill-rule="evenodd" clip-rule="evenodd" d="M8.3494 15.0219C7.85606 15.9786 7.47682 16.9054 6.9281 17.7247C6.44483 18.4463 5.85248 19.4443 4.7819 18.9296C3.78011 18.4496 4.17277 17.4003 4.39259 16.5926C4.66779 15.5797 5.08898 14.6065 5.3927 13.7674C4.42951 12.4284 1.11371 9.47739 2.85384 7.74286C3.31697 7.28109 4.84063 7.50784 5.584 8.1947C6.16124 8.72929 6.60089 9.41946 7.05563 10.0716C7.31405 10.4423 7.48018 10.8759 7.77719 11.4552C8.28563 10.8279 8.71857 10.3364 9.10284 9.81172C10.8816 7.38371 15.6891 5.79649 18.5149 6.67202C22.267 7.83555 23.0859 12.8653 19.8104 15.0914C17.9159 16.3774 15.4861 16.1242 13.3214 15.9107C12.9321 15.871 8.24201 15.2305 8.3494 15.0219ZM18.8455 10.9272C18.8287 10.1047 18.0971 9.44925 17.2413 9.49229C16.3872 9.53532 15.7378 10.151 15.7311 10.9256C15.7244 11.7631 16.4979 12.4549 17.4007 12.4185C18.2095 12.3854 18.8606 11.7151 18.8455 10.9272Z" fill="#EB67AA"/>
</svg>
