<svg width="117" height="40" viewBox="0 0 117 40" fill="none" xmlns="http://www.w3.org/2000/svg">
<path d="M40 23.0384C40 23.0527 39.9905 23.067 39.9857 23.0861C39.9809 23.0288 39.9809 22.9716 39.9714 22.9144C39.9714 22.9144 39.7377 21.2021 39.6614 20.0002C39.6089 19.1512 39.9523 17.0478 39.9523 17.0478C39.9571 17.0049 39.9666 16.962 39.9666 16.9143C39.9666 16.7092 39.9189 16.5232 39.8378 16.3515C39.8092 16.2943 39.7854 16.2323 39.7425 16.1798C39.1892 15.431 37.7965 14.8348 35.6741 14.706C34.4721 14.6297 33.6566 14.6631 32.8314 14.7012L32.8028 14.6917C34.1335 13.776 35.3736 12.7839 36.1653 12.0255C36.1844 12.0065 36.1987 11.9922 36.213 11.9731C36.3275 11.8634 36.4324 11.7585 36.5183 11.6678C36.8521 11.3053 37.1574 10.8904 37.3529 10.485C37.5532 10.1416 37.6725 9.74572 37.6725 9.31646C37.6725 9.06844 37.6248 8.83474 37.5532 8.61057C37.5485 8.59626 37.5437 8.57718 37.5389 8.56288C37.4531 8.31009 37.3291 8.07638 37.1669 7.8713C36.5135 6.98893 35.3688 6.42613 34.7917 6.00164C34.3195 5.65347 34.0238 5.33868 33.8473 5.12405C33.3704 4.49925 32.9268 3.63119 32.1255 2.83946C32.1255 2.83946 31.3815 2.10018 30.5993 2.04295C29.0349 1.91894 27.5659 3.57396 26.86 4.4754C26.4927 4.94758 25.8393 5.81086 25.3051 6.52629C25.2288 4.21785 24.8616 1.90463 24.0746 0.707481C24.0746 0.707481 23.6215 -0.0985669 22.7916 0.0159015C22.72 0.0254406 22.5388 0.0349796 22.4863 0.0445186C22.4863 0.0445186 22.4863 0.0445186 22.4816 0.0445186C22.2908 0.0779053 21.8329 0.149448 21.356 0.211452C20.9744 0.282994 20.5785 0.32592 20.1636 0.335459H20.011L19.8393 0.33069C19.4291 0.321151 19.0284 0.278225 18.6469 0.206682C18.1699 0.144679 17.7073 0.0731357 17.5213 0.0397491C17.5213 0.0397491 17.5213 0.0397491 17.5165 0.0397491C17.4593 0.0302101 17.2828 0.0206711 17.2113 0.011132C16.3814 -0.103336 15.9283 0.702712 15.9283 0.702712C15.1413 1.90463 14.774 4.21785 14.6977 6.52152C14.1588 5.80609 13.5101 4.94281 13.1429 4.47063C12.437 3.56919 10.968 1.91417 9.40356 2.03818C8.62613 2.10018 7.87731 2.83469 7.87731 2.83469C7.07603 3.62643 6.63247 4.49448 6.15552 5.11928C5.98382 5.32914 5.68334 5.6487 5.21115 5.99688C4.63404 6.42136 3.48936 6.98893 2.83593 7.86653C2.67377 8.07162 2.54976 8.30532 2.46391 8.55811C2.45914 8.57241 2.45437 8.59149 2.4496 8.6058C2.37806 8.82997 2.33037 9.06367 2.33037 9.31169C2.33037 9.74095 2.45437 10.1368 2.64992 10.4802C2.85024 10.8809 3.15549 11.3006 3.48459 11.6631C3.57044 11.7537 3.67537 11.8586 3.78984 11.9683C3.80892 11.9874 3.82322 12.0017 3.83753 12.0208C4.62927 12.7839 5.86935 13.7712 7.20004 14.6869L7.17142 14.6965C6.3463 14.6583 5.53071 14.6249 4.32879 14.7012C2.20636 14.8348 0.813659 15.431 0.260396 16.175C0.21747 16.2275 0.193622 16.2895 0.165005 16.3467C0.0839235 16.5184 0.0362284 16.7092 0.0362284 16.9095C0.0362284 16.9572 0.0457674 17.0002 0.0505369 17.0431C0.0505369 17.0431 0.398712 19.1464 0.341477 19.9954C0.265165 21.1926 0.0314589 22.9096 0.0314589 22.9096C0.0219198 22.9668 0.0219198 23.024 0.0171503 23.0813C0.0123808 23.067 0.00761128 23.0527 0.00761128 23.0336C-0.0591619 23.7681 0.322399 24.4024 0.799351 24.7506C1.87726 25.4851 3.83753 25.9335 6.29383 26.005C5.32085 26.7204 4.31925 27.4883 3.48459 28.3802C3.48459 28.3802 2.34467 29.5392 2.34467 30.7364C2.34467 31.4756 2.68331 32.1243 3.20319 32.5631C4.16186 33.4931 5.22069 33.9367 5.82642 34.5424C6.22229 34.9335 6.55616 35.5202 6.99495 36.1402C6.99495 36.1402 7.739 37.2038 8.52597 37.7285C10.0141 38.5965 11.5737 37.3612 12.3988 36.4455C12.7375 36.0687 13.1953 35.5393 13.6818 34.8954C14.2446 34.1561 14.7025 33.5027 14.7025 33.5027C14.7836 35.897 15.1794 38.3008 16.0284 39.4503C16.3432 39.8748 16.7963 39.9845 17.154 39.9988C17.1636 39.9988 17.1731 39.9988 17.1826 39.9988C17.3114 40.0035 17.4259 39.994 17.5117 39.9797H17.5165H17.5213C17.5737 39.9749 17.6167 39.9654 17.6501 39.9558C17.7645 39.9368 17.9267 39.9129 18.0555 39.8938C18.0364 39.8986 17.9935 39.9034 17.941 39.9034C18.4609 39.8223 19.2908 39.7078 20.011 39.6744C20.7312 39.7078 21.5611 39.8223 22.0809 39.9034C22.0237 39.9034 21.9855 39.8986 21.9665 39.8938C22.0952 39.9129 22.2574 39.9368 22.3719 39.9558C22.4005 39.9606 22.4482 39.9701 22.5006 39.9797H22.5054C22.5102 39.9797 22.5102 39.9797 22.5102 39.9797C22.596 39.9892 22.7153 39.9988 22.8393 39.9988C22.8488 39.9988 22.8584 39.9988 22.8679 39.9988C23.2256 39.9845 23.6787 39.8748 23.9935 39.4503C24.8425 38.3008 25.2384 35.897 25.3194 33.5027C25.3194 33.5027 25.7773 34.1561 26.3401 34.8954C26.8266 35.5393 27.2845 36.0687 27.6231 36.4455C28.4482 37.366 30.0079 38.5965 31.496 37.7285C32.2782 37.2038 33.027 36.1402 33.027 36.1402C33.4658 35.5154 33.7949 34.9288 34.1955 34.5424C34.8012 33.9367 35.8601 33.4979 36.8187 32.5631C37.3386 32.1243 37.6773 31.4756 37.6773 30.7364C37.6773 29.5392 36.5373 28.3802 36.5373 28.3802C35.7027 27.4883 34.7058 26.7252 33.7281 26.005C36.1844 25.9335 38.1447 25.4851 39.2226 24.7506C39.6852 24.4072 40.0668 23.7776 40 23.0384Z" fill="#D7000F"/>
<path fill-rule="evenodd" clip-rule="evenodd" d="M19.286 10.3085V11.2004H15.0984V11.7728H17.8122C18.1986 11.7728 18.5133 12.078 18.5229 12.4643V15.5502H15.0984V18.7839H14.0157V16.1512C13.0093 17.2005 11.6262 18.0971 10.3098 18.617L9.66588 17.8014C10.9537 17.3579 12.3273 16.4373 13.2478 15.5502H10.5864V11.7728H14.0109V11.2004H9.84236V10.3085H14.0109V9.25922H14.7645C14.9457 9.25922 15.0936 9.40707 15.0936 9.58831V9.83156V10.3085H19.286ZM11.5737 14.7775H14.0109V14.043H11.5737V14.7775ZM11.5737 13.2751H14.0109V12.5406H11.5737V13.2751ZM15.0936 14.7775H17.4974V14.043H15.0936V14.7775ZM15.0936 13.2751H17.4974V12.5406H15.0936V13.2751ZM26.0826 10.3037V9.61216C26.0778 9.41661 25.9204 9.25922 25.7296 9.25922H25.0333V10.3037H21.3607V11.1527H24.046C23.2304 11.9206 22.1239 12.5645 20.9601 12.927L21.5515 13.6758C22.8918 13.2179 24.1271 12.3689 25.0333 11.3435V13.9524H26.0873V11.1527H29.7599V10.3037H26.0826ZM25.1716 15.5502V14.7012H23.5643V13.9143C23.5595 13.7235 23.4069 13.5661 23.2113 13.5661H22.596V14.7012H20.693V15.5502H22.1382C21.9188 16.3324 21.2463 16.9715 20.5356 17.4676C20.5404 17.4723 21.1127 18.2021 21.1127 18.2021C21.5515 17.8491 22.3576 17.086 22.596 16.3706V18.7744H23.5595V15.5502H25.1716ZM25.2384 16.6234L24.6517 17.2863C24.48 17.1003 24.1748 16.8284 23.8552 16.5518L24.3655 15.9747C24.6439 16.1555 24.925 16.3773 25.1029 16.5177C25.1597 16.5626 25.206 16.5991 25.2384 16.6234ZM30.4324 14.7012H28.4864V13.919C28.4864 13.7235 28.329 13.5661 28.1335 13.5661H27.5182V14.7012H25.6199V15.5502H27.0698C26.7789 16.361 25.8965 16.9668 25.0762 17.5248L25.6247 18.2212C26.4117 17.7204 27.2272 17.0192 27.5134 16.3753V18.7792H28.4816V15.5502H30.4324V14.7012ZM27.1939 11.5247C28.0238 12.1734 29.054 12.6837 30.1987 13.0128L29.6215 13.795L29.5797 13.7805C29.1475 13.63 27.8204 13.1682 26.6358 12.1495L27.1939 11.5247ZM29.3497 15.9938L28.806 16.609C29.4117 17.5677 30.1033 18.1591 30.1033 18.1591L30.7233 17.4628C30.2416 17.1241 29.7599 16.5518 29.3497 15.9938ZM19.4052 17.811C18.1938 17.4008 16.906 16.6854 15.995 15.8793L15.4084 16.5375C16.3527 17.4151 17.5356 18.1687 18.6755 18.6313L19.4052 17.811ZM18.9187 26.5964V28.3707V28.3755H19.4005V29.048H18.9092V29.9732C18.9092 30.2213 18.8424 30.3834 18.7232 30.4979C18.4847 30.7268 18.127 30.7602 17.0252 30.7554L16.7438 29.9828H17.8456C17.9219 29.9828 17.9887 29.9208 17.9887 29.8397V29.8302V29.048H14.5117V30.7364H13.6198V29.0384H13.1286V28.3659H13.6198V25.8619H15.809V25.5519H16.6532V25.8619H18.1556C18.561 25.8858 18.8806 26.1958 18.9187 26.5964ZM14.5403 28.3707H15.8138V27.7888H14.5403V28.3707ZM14.5403 27.1163H15.8138V26.5344H14.5403V27.1163ZM16.7295 28.3707H18.003V27.7888H16.7295V28.3707ZM16.7295 27.1163H18.003V26.5344H16.7295V27.1163ZM11.588 28.7141C11.9934 29.3103 12.4417 30.35 12.4417 30.35L13.2478 30.0114C13.2478 30.0114 12.6993 28.7999 12.3464 28.3993L11.588 28.7141ZM17.1254 25.2657H16.6532V25.2705H15.7709H15.3798H13.2049V24.5694H14.6977V24.0304H13.4147V23.3627H14.6977V22.7999H13.4147V22.0988H14.6977V21.2164H15.2748C15.4656 21.2212 15.623 21.3738 15.623 21.5693V22.0988H16.8631V21.2116H17.4402C17.631 21.2164 17.7884 21.369 17.7884 21.5646V22.0988H19.0666V22.7999H17.7884V23.3579H19.0666V24.0256H17.7884V24.5646H19.286V25.2657H17.1254ZM16.8631 22.7999H15.623V23.3627H16.8679L16.8631 22.7999ZM16.8679 24.0304H15.623V24.5694H16.8679V24.0304ZM12.9569 22.3516C12.9473 21.9175 12.6039 21.5741 12.1699 21.555H9.83282V28.075H10.4672L10.4662 28.0829C10.461 28.1253 10.4498 28.2175 10.4052 28.3516C10.3098 28.633 9.74697 29.7395 9.28909 30.1831L9.99498 30.6648C10.4195 30.2069 10.8201 29.5249 11.0824 28.8667C11.1874 28.5996 11.2732 28.2658 11.2923 28.0702H12.9569V22.3516ZM10.7104 22.3372H12.084V23.4915H10.7104V22.3372ZM10.7104 24.2212H12.084V25.3802H10.7104V24.2212ZM10.7104 27.2928V26.1099H12.084V27.2928H10.7104ZM29.9745 23.1767C30.3084 23.1814 30.5754 23.4533 30.5754 23.7872C30.3894 28.2228 30.2177 29.8206 29.8457 30.2928C29.5452 30.6887 29.0826 30.7697 28.3242 30.7602V30.7554L27.9808 29.8349H28.6438C28.8012 29.8349 28.9204 29.7491 28.9872 29.6584C29.2638 29.3341 29.4403 27.908 29.5977 24.0733H27.542C27.1748 26.0241 26.4021 28.4518 25.4101 29.7252L24.5182 29.3055C25.5627 28.1513 26.3115 25.9573 26.7026 24.0733H26.1064C25.7868 25.0654 25.4434 25.8333 25.4434 25.8333L24.418 25.6377C25.7487 22.5757 25.7725 21.2164 25.7725 21.2164L26.7503 21.4024C26.6978 22.0129 26.5547 22.5996 26.4021 23.1767H29.9745ZM27.108 30.5217C28.0238 29.129 28.6247 26.6632 28.9109 24.5694L28.1191 24.3977C27.8282 26.4676 27.2225 28.7856 26.2209 30.1068L27.108 30.5217ZM21.9283 24.102C21.8329 24.6838 21.6898 25.3659 21.542 25.7713L20.6262 25.5948C21.0364 24.1115 21.2129 23.1099 21.2892 21.7935L22.1477 21.9557L22.1191 22.3468C22.1 22.6377 22.0809 22.8428 22.038 23.1815H22.7391V21.2307H23.3687C23.5595 21.2355 23.7121 21.3833 23.7169 21.5741V23.1815H24.8282V24.0924H23.7169V26.4915L24.8759 26.2864L25.162 27.0686L23.7169 27.3786V30.7507H22.7391V27.5933L20.9649 27.9748L20.6262 27.0543C21.0275 26.9923 21.6296 26.8801 22.2149 26.771C22.395 26.7374 22.5734 26.7041 22.7439 26.6727V24.102H21.9283Z" fill="white"/>
<path fill-rule="evenodd" clip-rule="evenodd" d="M112.33 27.8222V10.5136C112.33 9.85541 111.796 9.32123 111.137 9.32123H111.133C110.904 9.32123 110.708 9.33077 110.555 9.34984C110.398 9.36892 110.279 9.39754 110.188 9.4357C110.098 9.47385 110.036 9.52155 110.002 9.57878C109.969 9.63602 109.95 9.70279 109.95 9.7791V27.8222H112.33ZM51.9 25.8667H56.4358V25.8571H58.6059H59.0638V27.7268H58.6059H56.4405H50.4929C50.2926 27.7268 50.1018 27.66 49.9254 27.5265C49.7489 27.3929 49.6583 27.1544 49.6583 26.8158V11.892L49.663 11.8872C49.6964 11.2958 50.1782 10.8284 50.7791 10.8284H56.0256H58.5105H58.9636V12.698H58.5105H56.0256H51.9V18.0017H56.1114H57.5709H58.0145V18.927V18.9413V18.9556V19.8189H57.5709H56.1114H51.9V25.8667ZM98.2644 15.0446C99.6094 14.1861 101.164 13.7569 102.924 13.7569C106.148 13.7569 107.761 15.4644 107.77 18.8746V27.7983H105.571V25.9621C104.56 27.4979 103.144 28.2324 101.326 28.1608C101.055 28.1513 100.797 28.1227 100.549 28.0845V28.075C99.5331 27.9653 98.7128 27.6219 98.0879 27.0352C97.3153 26.3102 96.929 25.3516 96.929 24.1544C96.929 21.5932 98.4361 20.1003 101.455 19.6806L105.567 19.1035C105.567 16.7712 104.622 15.6074 102.738 15.6074C101.088 15.6074 99.5951 16.1702 98.2644 17.2959V15.0446ZM99.9481 22.0701C99.4282 22.4326 99.1706 23.0717 99.1706 23.9923C99.1706 24.66 99.4091 25.2085 99.8908 25.633C100.368 26.0575 101.002 26.2673 101.799 26.2673C102.886 26.2673 103.788 25.8858 104.498 25.1226C105.209 24.3595 105.562 23.3913 105.562 22.2228V20.8539L102.252 21.3118C101.236 21.4549 100.468 21.7077 99.9481 22.0701ZM72.0321 10.8284H61.1003H60.7808H60.3372V12.7219H60.6806C60.714 12.7314 60.7474 12.7362 60.7808 12.7362H65.536V26.1815V27.3929V27.8126H67.7824V27.3929V26.1815V12.7362H72.5377C72.6044 12.7362 72.6712 12.7171 72.7284 12.6837C72.7857 12.6503 72.8334 12.5931 72.8715 12.5216C72.9097 12.4452 72.9383 12.3499 72.9574 12.2258C72.9764 12.1018 72.986 11.9588 72.986 11.7966V11.7871C72.986 11.2576 72.5615 10.8284 72.0321 10.8284ZM94.2056 10.8332C94.7827 10.8475 95.2453 11.3006 95.2882 11.8729L95.3073 11.8824V26.1385V27.3929V27.8126H93.0609V26.1385V12.6694H93.037L87.3995 26.6584L86.932 27.8222H85.0195L84.8812 27.4597L79.1864 12.6694H79.172V26.1385V27.8174H76.9256V27.3977V26.1385V12.2258V11.8491V10.8284H77.8652H79.2436H80.5075H80.6935L81.4948 12.9031L86.0497 24.4406H86.1165L89.8939 15.2736L91.692 10.8284H92.0927H92.0974H92.8796H93.3661H94.2008L94.2056 10.8332ZM116.861 10.5136V27.8222H114.481V9.7791C114.481 9.70279 114.5 9.63602 114.533 9.57878C114.567 9.52155 114.629 9.47385 114.719 9.4357C114.81 9.39754 114.929 9.36892 115.087 9.34984C115.239 9.33077 115.435 9.32123 115.664 9.32123H115.668C116.327 9.32123 116.861 9.85541 116.861 10.5136Z" fill="black"/>
</svg>
