<svg width="16" height="16" viewBox="0 0 16 16" fill="none" xmlns="http://www.w3.org/2000/svg">
<path fill-rule="evenodd" clip-rule="evenodd" d="M8.00004 14.6667C5.89217 14.6667 3.33337 9.37916 3.33337 6.00001C3.33337 3.42593 5.42596 1.33334 8.00004 1.33334C10.5741 1.33334 12.6667 3.42593 12.6667 6.00001C12.6667 9.37916 10.1079 14.6667 8.00004 14.6667ZM8.00004 13.6667C9.33617 13.6667 11.6667 8.94068 11.6667 6.00001C11.6667 3.97821 10.0218 2.33334 8.00004 2.33334C5.97824 2.33334 4.33337 3.97821 4.33337 6.00001C4.33337 8.94068 6.66391 13.6667 8.00004 13.6667ZM9.33337 6.00001C9.33337 6.73668 8.73671 7.33334 8.00004 7.33334C7.26337 7.33334 6.66671 6.73668 6.66671 6.00001C6.66671 5.26334 7.26337 4.66668 8.00004 4.66668C8.73671 4.66668 9.33337 5.26334 9.33337 6.00001Z" fill="#FFEAC1"/>
</svg>
