<svg width="20" height="21" viewBox="0 0 20 21" fill="none" xmlns="http://www.w3.org/2000/svg">
<path fill-rule="evenodd" clip-rule="evenodd" d="M10.0001 2.16675C14.6025 2.16675 18.3334 5.89771 18.3334 10.5001C18.3334 15.1025 14.6025 18.8334 10.0001 18.8334C5.39771 18.8334 1.66675 15.1025 1.66675 10.5001C1.66675 5.89771 5.39771 2.16675 10.0001 2.16675ZM14.1667 10.5417C14.5119 10.5417 14.7917 10.8216 14.7917 11.1667C14.7917 11.5119 14.5119 11.7917 14.1667 11.7917H10.0001C9.6549 11.7917 9.37508 11.5119 9.37508 11.1667V5.33341C9.37508 4.98824 9.6549 4.70841 10.0001 4.70841C10.3453 4.70841 10.6251 4.98824 10.6251 5.33341V10.5417H14.1667Z" fill="#323232"/>
</svg>
