<svg width="120" height="50" viewBox="0 0 120 50" fill="none" xmlns="http://www.w3.org/2000/svg">
<rect x="0.0329285" y="0.810791" width="113" height="46" rx="23" fill="#43CCFA"/>
<circle cx="23.0329" cy="23.8108" r="18" fill="white"/>
<path fill-rule="evenodd" clip-rule="evenodd" d="M32.1948 19.7859C32.9376 19.9657 36.705 20.8642 37.4549 22.4505C38.6498 24.9837 36.7373 28.2116 34.1073 27.7485C32.733 27.5066 29.7298 25.8857 28.8436 26.1345C28.3305 26.2797 21.9079 28.8993 22.6901 31.9682C23.3359 34.498 22.3851 37.6567 18.004 37.28C16.2459 37.128 15.0331 35.6004 14.904 34.218C14.6492 31.4187 13.6517 29.5698 10.871 28.2842C7.33314 26.646 7.07122 21.2962 11.9546 20.1315C14.0249 19.6373 18.5028 23.6221 18.9369 24.3755C20.9785 22.8514 22.9699 21.4206 24.8716 19.8931C25.1838 19.6443 25.4242 15.2103 26.009 13.7553C27.0208 11.2394 29.7908 10.9041 31.7643 12.8464C33.404 14.4638 33.5511 16.3922 32.1948 19.7859Z" fill="#43CCFA"/>
<path d="M61.5029 14.7668V21.8388H55.5489V24.2308H61.5029V32.1868H54.3009V34.6048H70.6809V32.1868H63.9209V24.2308H69.6929V21.8388H63.9209V14.7668H70.3169V12.3748H55.0289V14.7668H61.5029ZM49.5689 11.8028L47.8009 13.4928C49.9069 14.8188 51.5449 16.0668 52.6889 17.2368L54.4049 15.4948C53.0789 14.2728 51.4669 13.0508 49.5689 11.8028ZM48.8409 18.0168L47.0989 19.7068C49.1789 21.0588 50.7909 22.3068 51.9349 23.5028L53.6509 21.7868C52.3509 20.5388 50.7389 19.2648 48.8409 18.0168ZM51.5709 25.0108C50.4009 28.1308 49.0229 31.1988 47.4109 34.2148L49.6989 35.2288C51.1809 32.3168 52.5329 29.1708 53.7289 25.8428L51.5709 25.0108ZM95.3549 12.3748H84.2789V32.6808H82.4849V35.0468H96.9669V32.6808H95.3549V12.3748ZM86.6189 32.6808V28.2868H93.0149V32.6808H86.6189ZM86.6189 26.0248V21.4748H93.0149V26.0248H86.6189ZM86.6189 19.2128V14.6628H93.0149V19.2128H86.6189ZM74.2169 29.0408C74.0609 31.1208 73.7229 32.9668 73.1769 34.5788L75.3869 35.2808C75.8549 33.5388 76.1669 31.5628 76.3229 29.3268L74.2169 29.0408ZM79.1829 28.7288L77.1809 29.1708C77.4929 30.6788 77.7789 32.4208 78.0389 34.3968L80.2229 33.8768C79.9109 32.0308 79.5729 30.3148 79.1829 28.7288ZM81.7049 21.9688L79.8329 22.5928C80.0669 23.2168 80.3009 23.8408 80.5349 24.4908C79.3389 24.8548 78.1169 25.1668 76.9209 25.4008C78.4289 23.5548 80.2749 20.6168 82.4589 16.5608L80.2749 15.7288C79.7029 16.8728 79.1309 17.9388 78.6109 18.9268C77.7269 19.0828 76.8689 19.2128 76.0109 19.3168C77.2069 17.5488 78.4029 15.2608 79.5729 12.4528L77.2849 11.5688C76.4269 14.1688 75.4129 16.5348 74.2689 18.6668C73.9569 19.0828 73.6449 19.3688 73.2809 19.5248L73.8529 21.6308C75.0749 21.4748 76.2449 21.2928 77.3889 21.1108C76.2449 23.0348 75.3089 24.3868 74.5289 25.1928C74.2689 25.4528 73.9309 25.6608 73.5149 25.8428L74.1129 27.9488C76.3229 27.6628 78.6629 27.1428 81.1069 26.3628L81.4709 27.7928L83.4469 27.2728C82.9269 25.2708 82.3549 23.5028 81.7049 21.9688ZM82.1729 28.0268L80.3269 28.6248C80.7689 29.8468 81.1329 31.1468 81.3929 32.4988L83.3949 31.9788C83.0309 30.4708 82.6409 29.1708 82.1729 28.0268Z" fill="white"/>
</svg>
