<svg id="uMallLogo" data-name="uMallLogo" xmlns="http://www.w3.org/2000/svg" viewBox="0 0 298.96 133.38"><defs><style>.logo__word{fill:#494949;}</style></defs><path class="logo__word" d="M1109.47,568.2a3.52,3.52,0,0,0-2.47-2.54,5.76,5.76,0,0,0-5.65,1c-4.36,3.77-26.77,22.69-39.92,25.43-2.66.57-4.67.23-6-1-1.51-1.45-2-4.08-1.35-7.8.17-.75.31-1.45.44-2.13a26,26,0,0,1,1.2-4.62c.71-3.67,0-6.59-2-8.59-1.64-1.6-7-2.49-9.81-3-1.13-.19-1.93-.33-2.44-.46l-.75-.2.21-.52c0-.12,4.89-12.16.38-16.32a7.18,7.18,0,0,0-7.25-1.89c-4.23,1.35-7.2,5.9-7.93,12.17a11.78,11.78,0,0,0,2,8.25l.09.07a11,11,0,0,0,2,1.79l.86.61-4.19,2.71c-13.75,8.92-26.75,17.34-42.72,18-3.09.14-10.93,0-16.73-4-4.57-3-6.09-6.38-5.1-11.22l0-.16.13-.18.72-.67.15,0a27.54,27.54,0,0,0,14.2-6.61c6.71-6,8.19-12.2,7.44-15.71a5.38,5.38,0,0,0-3.7-4.26c-4-1.23-9.88,1.53-16.1,7.58a31.35,31.35,0,0,0-9.09,15.32l0,.15-.13.18a174.9,174.9,0,0,1-25.44,19.77c-8.63,5.43-15.94,8.47-22.36,9.32-4.89.58-8.46-.18-10.91-2.33-2.36-2-3.78-5.48-4.2-10.38-.55-7.3,1.07-16.93,4.83-28.62l.07-.23.25-.18c13-5,24.5-14.47,33.27-27.57,7.35-11,12.29-23.82,13.2-34.31.38-4,.37-11.16-3.9-14.34-3.05-2.27-6.42-1-8.72.49-4.86,3.12-9.33,9.44-12.27,13.93-5.43,8.24-10.71,18-16.63,30.78a237.35,237.35,0,0,0-10,24.43l-.08.23-.27.19c-10.72,3.4-22.42,3.53-34.91.42l-.69-.17.18-.69a4.79,4.79,0,0,1,.43-1.07c3.37-7.9,6.12-15.09,8.41-22a163.3,163.3,0,0,0,5.61-20.72c2.53-12.85,1.85-22.25-2-28a12.26,12.26,0,0,0-10.6-5.68c-3.61-.08-7.71,1.17-12.23,3.68-14.66,8-32.24,28.92-36.27,50a3.81,3.81,0,0,0,2.28,4.33l.58.25a2.33,2.33,0,0,0,2-.11,2.6,2.6,0,0,0,1.24-1.89c3.61-18.92,20.15-38.48,33.4-45.74,3.9-2.08,7.1-3.08,9.78-3.08a5.64,5.64,0,0,1,5.08,2.38c3.11,4.67,1.69,15.33.57,21.28a152.69,152.69,0,0,1-5.43,19.83c-2.67,8.06-5.81,15.75-8.25,21.55-.27.57-.51,1.12-.75,1.69s-.37.86-.55,1.25l-.27.59-.6-.21c-2-.69-4-1.47-6.59-2.55a2.34,2.34,0,0,0-2,0,2.77,2.77,0,0,0-1.38,1.84l-.15.67a4,4,0,0,0,2.11,4.49l.16.07c1.58.65,3.22,1.32,4.82,1.91l.65.24-.22.66a3.16,3.16,0,0,1-.39.78,278.78,278.78,0,0,1-14.83,28.09c-4.66,7.64-8,12.09-10,13.23-1.36.74-1.77,2.77-.93,4.52l.3.6a3.83,3.83,0,0,0,1.84,1.81,2.42,2.42,0,0,0,2.13-.12c4.08-2.36,9.58-11.29,11.92-15.11a287,287,0,0,0,15.27-28.88,30.3,30.3,0,0,0,1.27-2.79l.24-.61.62.18c12.1,3.48,23.7,4.1,34.46,1.83l1.13-.25-.31,1.14c-2.68,9.79-3.75,18.28-3.17,25.24.62,7.46,3.07,13,7.28,16.56,4,3.38,9.22,4.67,15.6,3.84,7.08-.95,15-4.21,24.32-10a166.84,166.84,0,0,0,21.36-16l.81-.71.32,1c3.29,10.57,14.38,16.5,28.93,15.5,16.17-1.19,43.15-18.26,51-23.47a6.44,6.44,0,0,1,4.36-1l.47.06c1.21.15,2.58.33,3.71.53a3.34,3.34,0,0,1,2.45,1.4c.88,1.35.4,3.2.17,4.09-1.33,4.34-2.42,10.48-.13,15.17a9.75,9.75,0,0,0,3.85,4.32c11.86,7.15,36-10.35,49-19.75,2.79-2,5.14-3.72,6.86-4.82C1109.33,570.62,1109.62,569.13,1109.47,568.2Zm-145-3.62c.39-2.06,8.21-8.63,10.31-9.32a1.1,1.1,0,0,1,1.28.31c.47.59.15,1.34-.48,2.29-1.14,1.73-6.28,7.85-9.77,7.85a2.86,2.86,0,0,1-.67-.08l-.83-.21Zm-62.38-19.32c2.1-5.28,4.34-10.38,6.64-15.17a241.43,241.43,0,0,1,16.11-29.89c2.95-4.41,6.83-9.8,10.72-12.34a7.44,7.44,0,0,1,1.64-.78l.67-.19.2.68a23.44,23.44,0,0,1,.25,5.71c-1,11-6.9,23.17-12.07,30.91a68.57,68.57,0,0,1-23.16,22l-1.75,1Zm132.57,17.57-.49.85-.8-.57a2.91,2.91,0,0,1-.95-2.87c.41-3.92,1.9-7.13,3.53-7.6a1.34,1.34,0,0,1,1.48.46C1038.45,554.43,1037.44,558,1034.66,562.83Z" transform="translate(-810.54 -472.89)"/><path class="logo__word" d="M1054.92,508.77a21.23,21.23,0,0,0,4.27-2.33,19.17,19.17,0,0,0,3.56-3.21v5.14c0,.61.31.91.94.91a.8.8,0,0,0,.91-.91v-5.24a18.26,18.26,0,0,0,3.71,3.2,21.23,21.23,0,0,0,4.45,2.32,1,1,0,0,0,1.25-.31c.27-.34.36-.61.27-.82a1.21,1.21,0,0,0-.8-.52,19,19,0,0,1-7.17-4.3h6.56a.84.84,0,0,0,0-1.68h-8.27v-1.93a.8.8,0,0,0-.91-.91c-.63,0-.94.3-.94.91V501h-8a.84.84,0,1,0,0,1.68h6.26a16.22,16.22,0,0,1-3.13,2.57,19.52,19.52,0,0,1-3.76,1.9c-.78.28-.94.71-.46,1.3A1,1,0,0,0,1054.92,508.77Z" transform="translate(-810.54 -472.89)"/><path class="logo__word" d="M1052.94,519.67c.18.06.42,0,.71-.24a15.84,15.84,0,0,0,3.51-4.61v5.72a.89.89,0,1,0,1.78,0v-5c.72.62,1.39,1.22,2,1.8.22.22.42.31.59.25a1.13,1.13,0,0,0,.54-.44,1.46,1.46,0,0,0,.35-.57c0-.14-.08-.29-.28-.46-1-.78-2.05-1.54-3.2-2.29v-.61h2.84a.84.84,0,1,0,0-1.68h-2.84v-2.16a.89.89,0,1,0-1.78,0v2.16h-3.71a.84.84,0,0,0,0,1.68h3a15.51,15.51,0,0,1-3.74,4.68,1.09,1.09,0,0,0-.42.56,1.12,1.12,0,0,0,.14.69A1.07,1.07,0,0,0,1052.94,519.67Z" transform="translate(-810.54 -472.89)"/><path class="logo__word" d="M1072.43,511.49h-2.64v-2.16a.89.89,0,0,0-1.78,0v2.16h-3.48a.84.84,0,1,0,0,1.68h2.41a15.05,15.05,0,0,1-4.39,5.26c-.31.21-.48.4-.5.59a1,1,0,0,0,.29.69.74.74,0,0,0,1.22.12,16.8,16.8,0,0,0,4.45-5.51v6.22a.89.89,0,0,0,1.78,0v-6.35a20,20,0,0,0,4,5.49.85.85,0,0,0,.66.28,1.51,1.51,0,0,0,1-1.16c0-.19-.15-.4-.44-.62a17.48,17.48,0,0,1-4.17-5h3.48a.84.84,0,1,0,0-1.68Z" transform="translate(-810.54 -472.89)"/><path class="logo__word" d="M1102.94,511.49h-2.65v-2.16a.89.89,0,0,0-1.78,0v2.16H1095a.84.84,0,1,0,0,1.68h2.42a15.18,15.18,0,0,1-4.4,5.26c-.31.21-.47.4-.5.59a1.23,1.23,0,0,0,.87,1.07,1,1,0,0,0,.64-.26,16.67,16.67,0,0,0,4.45-5.51v6.22a.89.89,0,0,0,1.78,0v-6.35a20,20,0,0,0,4,5.49.87.87,0,0,0,.66.28,1.15,1.15,0,0,0,.61-.43,1.17,1.17,0,0,0,.35-.73,1,1,0,0,0-.45-.62,17.81,17.81,0,0,1-4.17-5h3.49a.84.84,0,0,0,0-1.68Z" transform="translate(-810.54 -472.89)"/><path class="logo__word" d="M1085.42,508.77a21,21,0,0,0,4.27-2.33,19.17,19.17,0,0,0,3.56-3.21v5.14c0,.61.31.91.94.91a.81.81,0,0,0,.92-.91v-5.24a17.73,17.73,0,0,0,3.71,3.2,20.76,20.76,0,0,0,4.45,2.32,1,1,0,0,0,1.24-.31c.27-.34.36-.61.27-.82a1.18,1.18,0,0,0-.8-.52,19,19,0,0,1-7.17-4.3h6.56a.84.84,0,0,0,0-1.68h-8.26v-1.93a.81.81,0,0,0-.92-.91c-.63,0-.94.3-.94.91V501h-8a.84.84,0,0,0,0,1.68h6.26a16.22,16.22,0,0,1-3.13,2.57,19.52,19.52,0,0,1-3.76,1.9c-.78.28-.93.71-.46,1.3A1,1,0,0,0,1085.42,508.77Z" transform="translate(-810.54 -472.89)"/><path class="logo__word" d="M1083.44,519.67c.19.06.42,0,.71-.24a15.5,15.5,0,0,0,3.51-4.61v5.72a.89.89,0,1,0,1.78,0v-5q1.1.93,2,1.8c.22.22.41.31.58.25a1.14,1.14,0,0,0,.55-.44,1.53,1.53,0,0,0,.34-.57c0-.14-.08-.29-.28-.46-1-.78-2.05-1.54-3.2-2.29v-.61h2.84a.84.84,0,1,0,0-1.68h-2.84v-2.16a.89.89,0,1,0-1.78,0v2.16H1084a.84.84,0,0,0,0,1.68h3a15.49,15.49,0,0,1-3.73,4.68,1,1,0,0,0-.42.56,1,1,0,0,0,.14.69A1,1,0,0,0,1083.44,519.67Z" transform="translate(-810.54 -472.89)"/><path class="logo__word" d="M1026.82,518.59a7.23,7.23,0,0,0,3-.68l0,3.17a.84.84,0,0,0,.85.84h0a.86.86,0,0,0,.85-.86l-.06-6.4-1.36,1.07a5.48,5.48,0,1,1-4.62-9.65l.77-.18-.13-.78a6.8,6.8,0,0,1-.07-.89,5.48,5.48,0,1,1,10.95,0,5.42,5.42,0,0,1-.07.89l-.13.78.77.18a5.47,5.47,0,0,1-1.26,10.8.85.85,0,0,0-.85.85.86.86,0,0,0,.85.86,7.18,7.18,0,0,0,2.38-14c0-.14,0-.28,0-.41a7.18,7.18,0,1,0-14.35,0c0,.13,0,.27,0,.41a7.18,7.18,0,0,0,2.38,14Z" transform="translate(-810.54 -472.89)"/></svg>