<svg width="24" height="24" viewBox="0 0 24 24" fill="none" xmlns="http://www.w3.org/2000/svg">
<g filter="url(#filter0_d_801_16715)">
<path d="M12.2154 1C6.25919 1 1.43065 5.82841 1.43065 11.7847C1.43065 13.7527 1.95791 15.5974 2.87857 17.1856C2.3066 18.5265 1.71812 19.9062 1.11499 21.3201L1 21.5897L1.28449 21.5181C2.73402 21.1529 4.21646 20.7793 5.72584 20.3991C7.53152 21.7616 9.77901 22.5695 12.2153 22.5695C18.1715 22.5695 23 17.7411 23 11.7847C23 5.82841 18.1716 1 12.2154 1ZM13.1956 16.9149H10.3915V14.4476H13.1956V16.9149ZM15.4806 10.6679C15.265 11.0305 14.8244 11.4734 14.1591 11.9965C13.6955 12.3637 13.403 12.6586 13.2815 12.8811C13.1599 13.1038 13.099 13.394 13.099 13.752H10.4807V13.4901C10.4807 13.0443 10.5312 12.6824 10.6322 12.4044C10.7333 12.1264 10.8837 11.8725 11.0836 11.6427C11.2833 11.4129 11.7323 11.0085 12.4307 10.4295C12.8027 10.1261 12.9889 9.84818 12.9889 9.59523C12.9889 9.34228 12.9144 9.1462 12.7652 9.00588C12.6161 8.86581 12.3901 8.79565 12.0875 8.79565C11.7618 8.79565 11.4922 8.90381 11.279 9.12025C11.0656 9.33657 10.9292 9.71382 10.8695 10.2521L8.19574 9.92083C8.28751 8.93994 8.6444 8.15017 9.26628 7.55188C9.88817 6.95371 10.842 6.65445 12.1272 6.65445C13.1278 6.65445 13.9357 6.86331 14.5508 7.28092C15.3861 7.84544 15.804 8.59808 15.804 9.53885C15.804 9.92914 15.6962 10.3054 15.4805 10.6679H15.4806Z" fill="white"/>
</g>
<defs>
<filter id="filter0_d_801_16715" x="0" y="0" width="25" height="25" filterUnits="userSpaceOnUse" color-interpolation-filters="sRGB">
<feFlood flood-opacity="0" result="BackgroundImageFix"/>
<feColorMatrix in="SourceAlpha" type="matrix" values="0 0 0 0 0 0 0 0 0 0 0 0 0 0 0 0 0 0 127 0" result="hardAlpha"/>
<feOffset dx="1" dy="1"/>
<feColorMatrix type="matrix" values="0 0 0 0 0.701961 0 0 0 0 0.254902 0 0 0 0 0.207843 0 0 0 0.4 0"/>
<feBlend mode="normal" in2="BackgroundImageFix" result="effect1_dropShadow_801_16715"/>
<feBlend mode="normal" in="SourceGraphic" in2="effect1_dropShadow_801_16715" result="shape"/>
</filter>
</defs>
</svg>
