<svg width="25" height="24" viewBox="0 0 25 24" fill="none" xmlns="http://www.w3.org/2000/svg">
<path fill-rule="evenodd" clip-rule="evenodd" d="M10.5 2.00016C10.5002 1.79161 10.4352 1.58822 10.314 1.41845C10.1929 1.24868 10.0217 1.12103 9.82445 1.05337C9.62718 0.985702 9.41369 0.981404 9.21386 1.04108C9.01403 1.10075 8.83786 1.22141 8.70999 1.38616L1.70999 10.3862C1.57344 10.5617 1.4993 10.7778 1.4993 11.0002C1.4993 11.2226 1.57344 11.4386 1.70999 11.6142L8.70999 20.6142C8.83786 20.7789 9.01403 20.8996 9.21386 20.9592C9.41369 21.0189 9.62718 21.0146 9.82445 20.947C10.0217 20.8793 10.1929 20.7516 10.314 20.5819C10.4352 20.4121 10.5002 20.2087 10.5 20.0002V16.0102C15.879 16.1222 18.463 17.1432 19.761 18.2532C20.995 19.3082 21.221 20.5492 21.456 21.8492L21.517 22.1842C21.5619 22.4239 21.6928 22.6389 21.8851 22.7888C22.0775 22.9388 22.318 23.0133 22.5614 22.9983C22.8048 22.9833 23.0343 22.8798 23.2068 22.7075C23.3793 22.5351 23.4829 22.3056 23.498 22.0622C23.669 19.3142 23.412 15.3322 21.471 12.0012C19.587 8.76816 16.194 6.28216 10.5 6.02216V2.00016Z" fill="#616161"/>
</svg>
