<?xml version="1.0" encoding="utf-8"?>
<!-- Generator: Adobe Illustrator 25.2.1, SVG Export Plug-In . SVG Version: 6.00 Build 0)  -->
<svg version="1.1" id="圖層_1" xmlns="http://www.w3.org/2000/svg" xmlns:xlink="http://www.w3.org/1999/xlink" x="0px" y="0px"
	 viewBox="0 0 24 24" style="enable-background:new 0 0 24 24;" xml:space="preserve">
<style type="text/css">
	.st0{fill:#FFFFFF;}
	.st1{fill:#EB67AA;}
</style>
<circle class="st0" cx="12" cy="12" r="12"/>
<g>
	<g>
		<path class="st1" d="M7,13.1c-0.8,0-1.4-0.2-2.1-0.4l-0.2,0c-0.2-0.1-0.3-0.3-0.2-0.4c0.1-0.2,0.3-0.3,0.4-0.2L5.1,12
			c0.6,0.2,1.2,0.4,1.9,0.4c2.4,0,4.6-1.1,6-2.9c0.1-0.2,0.3-0.2,0.5-0.1c0.2,0.1,0.2,0.3,0.1,0.5C12,11.9,9.6,13.1,7,13.1z"/>
	</g>
	<g>
		<path class="st1" d="M19.1,12.6c-2.4,0-4.6-1-6.2-2.7c-0.1-0.1-0.1-0.4,0-0.5c0.1-0.1,0.4-0.1,0.5,0c1.4,1.6,3.4,2.4,5.6,2.4
			c0.1,0,0.1,0,0.2,0l0,0c0.2,0,0.4,0.1,0.4,0.3c0,0.2-0.1,0.4-0.3,0.4l0,0C19.3,12.6,19.2,12.6,19.1,12.6z"/>
	</g>
	<g>
		<path class="st1" d="M12.1,19c-0.8,0-1.5-0.3-2-0.7c-0.1-0.1-0.2-0.4,0-0.5c0.1-0.1,0.4-0.2,0.5,0c0.3,0.3,0.9,0.5,1.5,0.5
			c0.6,0,1.2-0.2,1.5-0.5c0.1-0.1,0.4-0.1,0.5,0c0.1,0.1,0.1,0.4,0,0.5C13.7,18.7,12.9,19,12.1,19z"/>
	</g>
	<g>
		<path class="st1" d="M12,21.3c-3,0-5.7-1.9-6.8-4.7c-0.1-0.2,0-0.4,0.2-0.5c0.2-0.1,0.4,0,0.5,0.2c1,2.5,3.4,4.2,6.1,4.2
			c2.7,0,5.2-1.7,6.1-4.2c0.1-0.2,0.3-0.3,0.5-0.2c0.2,0.1,0.3,0.3,0.2,0.5C17.8,19.4,15,21.3,12,21.3z"/>
	</g>
	<g>
		<g>
			<path class="st1" d="M4.8,12.6c-0.2,0-0.4-0.2-0.4-0.4l0,0c0,0,0,0,0,0c0-4.2,3.4-7.7,7.7-7.7s7.7,3.4,7.7,7.7c0,0,0,0,0,0
				c0,0.2-0.2,0.4-0.4,0.4c-0.2,0-0.4-0.2-0.4-0.4c0,0,0,0,0,0c0-3.8-3.1-6.9-6.9-6.9s-6.9,3.1-6.9,6.9l0,0.1
				C5.2,12.5,5,12.6,4.8,12.6C4.8,12.6,4.8,12.6,4.8,12.6z"/>
		</g>
		<g>
			<path class="st1" d="M5.6,16.9C5.6,16.9,5.6,16.9,5.6,16.9c-2.3-0.1-3.1-1.8-3.1-2.9c0-1.2,0.8-2.1,1.9-2.1c0.2,0,0.4,0,0.5,0.1
				c0.2,0.1,0.3,0.2,0.3,0.4c-0.1,0.2-0.2,0.3-0.4,0.3c-0.1,0-0.2,0-0.4,0c-0.8,0-1.1,0.7-1.1,1.4c0,0.6,0.4,2.1,2.4,2.2
				c0.2,0,0.4,0.2,0.3,0.4C5.9,16.7,5.8,16.9,5.6,16.9z"/>
		</g>
		<g>
			<path class="st1" d="M18.5,16.9c-0.2,0-0.3-0.1-0.4-0.3c0-0.2,0.1-0.4,0.3-0.4c1.8-0.1,2.3-1.5,2.3-2.2c0-0.7-0.4-1.4-1.1-1.4
				c-0.1,0-0.1,0-0.2,0c-0.2,0-0.4-0.1-0.4-0.3c0-0.2,0.1-0.4,0.3-0.4c0.1,0,0.2,0,0.3,0c1.1,0,1.9,0.9,1.9,2.1
				C21.5,15,20.7,16.7,18.5,16.9C18.5,16.9,18.5,16.9,18.5,16.9z"/>
		</g>
	</g>
	<g>
		<path class="st1" d="M12.9,5.3C12.9,5.3,12.9,5.3,12.9,5.3c-0.2,0-0.3-0.1-0.4-0.3c0,0-0.4-1.6-1.3-1.6c-0.2,0-0.4-0.2-0.4-0.4
			c0-0.2,0.2-0.4,0.4-0.4c1,0,1.5,0.8,1.8,1.4c0.3-0.4,0.7-0.7,1.3-0.7c0.2,0,0.4,0.2,0.4,0.4c0,0.2-0.2,0.4-0.4,0.4c-0.6,0-1,1-1,1
			C13.2,5.2,13,5.3,12.9,5.3z"/>
	</g>
	<g>
		<g>
			<path class="st1" d="M15.4,15.5c-0.3,0-0.5-0.2-0.5-0.5v-0.7c0-0.3,0.2-0.5,0.5-0.5s0.5,0.2,0.5,0.5v0.7
				C16,15.2,15.7,15.5,15.4,15.5z"/>
		</g>
		<g>
			<path class="st1" d="M8.7,15.5c-0.3,0-0.5-0.2-0.5-0.5v-0.7c0-0.3,0.2-0.5,0.5-0.5c0.3,0,0.5,0.2,0.5,0.5v0.7
				C9.2,15.2,9,15.5,8.7,15.5z"/>
		</g>
	</g>
</g>
</svg>
