<svg width="22" height="12" viewBox="0 0 22 12" fill="none" xmlns="http://www.w3.org/2000/svg">
<path d="M0.00283616 1.62885C0.00212092 1.24893 0.129713 0.880752 0.363464 0.588217C0.495092 0.423571 0.656752 0.287473 0.839178 0.187716C1.0216 0.0879579 1.22121 0.0265016 1.42658 0.00686634C1.63194 -0.0127689 1.83903 0.00980315 2.03597 0.0732891C2.23291 0.136775 2.41584 0.239926 2.57428 0.376838L10.9785 7.66127L19.3984 0.636998C19.5588 0.501934 19.7433 0.401071 19.9414 0.340207C20.1395 0.279344 20.3472 0.259679 20.5527 0.282344C20.7581 0.305009 20.9572 0.369556 21.1386 0.472276C21.3199 0.574996 21.4798 0.713864 21.6092 0.880896C21.7519 1.04913 21.8596 1.24615 21.9255 1.45958C21.9913 1.67301 22.0139 1.89825 21.9918 2.12116C21.9697 2.34407 21.9034 2.55984 21.7971 2.75493C21.6908 2.95002 21.5468 3.12022 21.374 3.25484L11.9663 11.1084C11.6857 11.3475 11.3338 11.4783 10.9707 11.4783C10.6075 11.4783 10.2556 11.3475 9.97501 11.1084L0.567301 2.97842C0.37755 2.81531 0.227554 2.6081 0.12948 2.37362C0.0314063 2.13913 -0.011982 1.88398 0.00283616 1.62885Z" fill="#007AA3"/>
</svg>
