<?xml version="1.0" encoding="utf-8"?>
<!-- Generator: Adobe Illustrator 25.2.1, SVG Export Plug-In . SVG Version: 6.00 Build 0)  -->
<svg version="1.1" id="圖層_1" xmlns="http://www.w3.org/2000/svg" xmlns:xlink="http://www.w3.org/1999/xlink" x="0px" y="0px"
	 viewBox="0 0 24 24" style="enable-background:new 0 0 24 24;" xml:space="preserve">
<style type="text/css">
	.st0{fill:#FFFFFF;}
	.st1{fill:#43CCFA;}
</style>
<circle class="st0" cx="12" cy="12" r="12"/>
<g>
	<g>
		<path class="st1" d="M12.1,19.8c-0.8,0-1.5-0.2-1.9-0.7c-0.1-0.1-0.2-0.4,0-0.5c0.1-0.1,0.4-0.2,0.5,0c0.3,0.3,0.9,0.5,1.5,0.5
			c0.6,0,1.2-0.2,1.5-0.5c0.1-0.1,0.4-0.1,0.5,0c0.1,0.1,0.1,0.4,0,0.5C13.6,19.6,12.9,19.8,12.1,19.8z"/>
	</g>
	<g>
		<path class="st1" d="M12,22.1c-2.9,0-5.6-1.8-6.6-4.6c-0.1-0.2,0-0.4,0.2-0.5c0.2-0.1,0.4,0,0.5,0.2c0.9,2.5,3.3,4.1,6,4.1
			c2.6,0,5-1.7,6-4.1c0.1-0.2,0.3-0.3,0.5-0.2c0.2,0.1,0.3,0.3,0.2,0.5C17.6,20.3,15,22.1,12,22.1z"/>
	</g>
	<g>
		<g>
			<path class="st1" d="M5,13.6c-0.2,0-0.3-0.2-0.4-0.3l0,0c0,0,0,0,0,0c0-4.1,3.4-7.5,7.5-7.5c4.1,0,7.5,3.4,7.5,7.5c0,0,0,0,0,0
				c0,0.2-0.2,0.3-0.4,0.3c-0.2,0-0.4-0.2-0.4-0.4c0,0,0,0,0,0c0-3.7-3-6.8-6.8-6.8c-3.7,0-6.8,3-6.8,6.8l0,0.1
				C5.3,13.5,5.2,13.6,5,13.6C5,13.6,5,13.6,5,13.6z"/>
		</g>
		<g>
			<path class="st1" d="M5.7,17.8C5.7,17.8,5.7,17.8,5.7,17.8c-2.2-0.1-3-1.8-3-2.9c0-1.2,0.7-2,1.8-2c0.2,0,0.4,0,0.5,0.1
				c0.2,0.1,0.3,0.2,0.2,0.4c-0.1,0.2-0.2,0.3-0.4,0.2c-0.1,0-0.2,0-0.3,0c-0.8,0-1.1,0.7-1.1,1.3c0,0.6,0.4,2.1,2.3,2.2
				c0.2,0,0.3,0.2,0.3,0.4C6.1,17.6,5.9,17.8,5.7,17.8z"/>
		</g>
		<g>
			<path class="st1" d="M18.4,17.7c-0.2,0-0.3-0.1-0.3-0.3c0-0.2,0.1-0.4,0.3-0.4c1.8-0.1,2.2-1.5,2.2-2.2c0-0.7-0.3-1.3-1.1-1.3
				c-0.1,0-0.1,0-0.2,0c-0.2,0-0.4-0.1-0.4-0.3c0-0.2,0.1-0.4,0.3-0.4c0.1,0,0.2,0,0.3,0c1.1,0,1.8,0.8,1.8,2
				C21.3,16,20.5,17.6,18.4,17.7C18.4,17.7,18.4,17.7,18.4,17.7z"/>
		</g>
	</g>
	<g>
		<g>
			<path class="st1" d="M15.4,16.4c-0.3,0-0.5-0.2-0.5-0.5v-0.7c0-0.3,0.2-0.5,0.5-0.5c0.3,0,0.5,0.2,0.5,0.5v0.7
				C15.9,16.1,15.6,16.4,15.4,16.4z"/>
		</g>
		<g>
			<path class="st1" d="M8.7,16.4c-0.3,0-0.5-0.2-0.5-0.5v-0.7c0-0.3,0.2-0.5,0.5-0.5c0.3,0,0.5,0.2,0.5,0.5v0.7
				C9.3,16.1,9,16.4,8.7,16.4z"/>
		</g>
	</g>
	<g>
		<g>
			<path class="st1" d="M11.7,5.6c-0.9,0-1.7-0.7-1.7-1.7c0-0.1,0-0.1,0-0.2c0-0.2,0.2-0.3,0.4-0.3c0.2,0,0.3,0.2,0.3,0.4
				c0,0,0,0.1,0,0.1c0,0.5,0.4,1,1,1c0.4,0,0.6-0.2,0.6-0.6c0-0.3-0.2-0.5-0.5-0.5c-0.2,0-0.4-0.2-0.4-0.4c0-0.2,0.2-0.4,0.4-0.4
				c0.7,0,1.2,0.5,1.2,1.2C13,5,12.5,5.6,11.7,5.6z"/>
		</g>
		<g>
			<path class="st1" d="M11.4,8c-0.2,0-0.4-0.2-0.4-0.4s0.2-0.4,0.4-0.4c0.9,0,2.3-0.8,2.3-3c0-1.3-0.9-1.7-1.7-1.7
				c-0.7,0-1.2,0.5-1.3,1.2c0,0.2-0.2,0.3-0.4,0.3c-0.2,0-0.3-0.2-0.3-0.4c0.1-1,1-1.8,2-1.8c1.4,0,2.4,1,2.4,2.4
				C14.4,7,12.6,8,11.4,8z"/>
		</g>
	</g>
</g>
</svg>
