<?xml version="1.0" encoding="utf-8"?>
<!-- Generator: Adobe Illustrator 25.2.1, SVG Export Plug-In . SVG Version: 6.00 Build 0)  -->
<svg version="1.1" id="圖層_1" xmlns="http://www.w3.org/2000/svg" xmlns:xlink="http://www.w3.org/1999/xlink" x="0px" y="0px"
	 viewBox="0 0 120 50" style="enable-background:new 0 0 120 50;" xml:space="preserve">
<style type="text/css">
	.st0{fill:#43CCFA;}
	.st1{fill:#FFFFFF;}
	.st2{fill:#FFFDFD;}
</style>
<path class="st0" d="M23,0.8h67c12.7,0,23,10.3,23,23l0,0c0,12.7-10.3,23-23,23H23c-12.7,0-23-10.3-23-23l0,0
	C0,11.1,10.3,0.8,23,0.8z"/>
<circle class="st1" cx="23" cy="23.8" r="18"/>
<g>
	<path class="st2" d="M48.6,18.8c-0.7,4.6-1.9,8.5-3.5,11.8L43,29.4c1.6-3,2.8-6.7,3.5-11.2L48.6,18.8z M54.3,32.2v0.6
		c0,1-0.2,1.7-0.6,2.1c-0.4,0.4-1.2,0.5-2.2,0.5h-2.8l-0.5-2.6l3,0.1c0.5,0,0.8-0.2,0.8-0.5v0c0-0.1,0-0.2,0-0.3V13.3h2.3V32.2z
		 M60.6,30.3c-1.3-5.2-2.4-9-3.4-11.4l1.9-0.9c1.3,3.1,2.4,6.3,3.3,9.6c0.1,0.5,0.3,1.1,0.5,1.8L60.6,30.3z"/>
	<path class="st2" d="M71.4,34.4c-0.2,0.1-0.4,0.1-0.6,0.2c-1.9,0.5-3.6,0.9-5.3,1.1l-1.1,0.1l-0.6-2c3-0.2,5.3-0.6,6.9-1L71.4,34.4
		z M75,21.4v0.8h2.1v-1.3h-4.3v-1.3h1.1l-1.2-0.9c1-0.7,1.7-1.5,2.1-2.4H66v1h6.6v1.4h-3.1v1h2.6v1.3h-2.6v1l1.5-0.1l1.6-0.1v1.4
		c-1.3,0.2-2.7,0.3-4,0.3c-1.1,0-2.6,0-4.3,0.1L64,22l1.9,0l1.9,0v-1h-2.9v-1.3h2.9v-1h-2.7V18h-1v-3.3h8.5l-0.3-0.5l-0.4-0.6
		l2.1-0.3l0.5,0.7l0.4,0.6H83V18h-1v0.5h-3.2v1.1H83v1.3h-4.3v1.3h2v-0.8h1.5v2.1h-8.8v-2.1H75z M66,32.6v-8.4h15.3v8.4H66z
		 M79.4,25.6H67.9v1h11.4V25.6z M67.9,28.8h11.4v-1H67.9V28.8z M67.9,31.1h11.4V30H67.9V31.1z M77.1,19.6v-1.1h-2L74.7,19l-0.5,0.6
		H77.1z M76.1,32.7c0.5,0.1,0.9,0.1,1.2,0.1c2.3,0.3,4.2,0.6,5.9,1l-0.6,2c-1.2-0.3-2.3-0.6-3.4-0.8l-3.6-0.7L76.1,32.7z M76.4,16.3
		l-0.5,1h5.2v-1H76.4z"/>
	<path class="st2" d="M88.1,29.4c-0.2,2.5-0.5,4.6-1,6.2L85.2,35c0.6-1.8,1-3.7,1.2-5.8L88.1,29.4z M93.4,18c-1.3,3.2-2.9,6-4.6,8.2
		l1.6-0.2c0.5,0,1-0.1,1.5-0.2c-0.1-0.3-0.2-0.6-0.3-0.9L91.2,24l1.5-0.5c0.5,0.9,1.1,2,1.6,3.4c0.1,0.2,0.1,0.4,0.3,0.7l-1.8,0.6
		l-0.2-0.9c-0.7,0.1-1.8,0.3-3.1,0.5l-3.5,0.5l-0.6-2.1h0.6l0.7,0c0.6-0.8,1.2-1.5,1.6-2.3l1.2-2l-1.6,0.2l-2,0.2l-0.4-2.1
		c0.1,0,0.2,0,0.4,0c0.1,0,0.1,0,0.2,0l0.5,0c1.2-2.4,2.1-4.6,2.7-6.7l2,0.6c-0.8,2.2-1.7,4.2-2.7,6l1-0.1l1-0.1
		c0.2-0.4,0.4-0.9,0.6-1.4l0.5-1.3L93.4,18z M89.1,34.4c0-0.1,0-0.3,0-0.4c0-0.8-0.1-1.5-0.1-2.1c0-0.9-0.1-1.8-0.3-2.6l1.6-0.2
		c0.3,1,0.5,2.6,0.7,4.7c0,0.1,0,0.3,0,0.5L89.1,34.4z M92.3,33.1c-0.3-1.8-0.7-3.2-1.1-4.1l1.5-0.4c0.5,1.1,0.9,2.1,1.2,3.3
		c0,0.1,0.1,0.3,0.1,0.5L92.3,33.1z M94.8,32.9V14.5h8.9v18.4h1.4v2H93.4v-2H94.8z M101.7,16.6h-5v3.9h5V16.6z M96.7,26.6h5v-4.2h-5
		V26.6z M96.7,32.9h5v-4.4h-5V32.9z"/>
</g>
<g>
	<g>
		<path class="st0" d="M22.9,34.4c-1.1,0-2.2-0.4-2.9-1c-0.2-0.2-0.2-0.5,0-0.7c0.2-0.2,0.5-0.2,0.7,0c0.5,0.4,1.3,0.7,2.2,0.7
			c0.9,0,1.7-0.3,2.2-0.7c0.2-0.2,0.5-0.2,0.7,0c0.2,0.2,0.2,0.5,0,0.7C25.1,34,24,34.4,22.9,34.4z"/>
	</g>
	<g>
		<path class="st0" d="M22.8,37.8c-4.3,0-8.3-2.7-9.8-6.8c-0.1-0.3,0-0.6,0.3-0.7c0.3-0.1,0.6,0,0.7,0.3c1.4,3.6,5,6.1,8.9,6.1
			c3.9,0,7.5-2.5,8.9-6.1c0.1-0.3,0.4-0.4,0.7-0.3c0.3,0.1,0.4,0.4,0.3,0.7C31.1,35.1,27.1,37.8,22.8,37.8z"/>
	</g>
	<g>
		<g>
			<path class="st0" d="M12.3,25.2c-0.3,0-0.5-0.2-0.5-0.5l0,0c0,0,0,0,0-0.1c0-6.1,5-11.1,11.1-11.1c6.1,0,11.1,5,11.1,11.1
				c0,0,0,0,0,0c0,0.3-0.2,0.5-0.5,0.5c-0.3,0-0.5-0.2-0.5-0.5c0,0,0,0,0,0c0-5.5-4.5-10-10.1-10c-5.5,0-10.1,4.5-10.1,10.1l0,0.1
				C12.8,25,12.6,25.2,12.3,25.2C12.3,25.2,12.3,25.2,12.3,25.2z"/>
		</g>
		<g>
			<path class="st0" d="M13.4,31.3C13.4,31.3,13.4,31.3,13.4,31.3C10.1,31.2,9,28.7,9,27.1c0-1.8,1.1-3,2.7-3c0.3,0,0.5,0,0.8,0.1
				c0.3,0.1,0.4,0.4,0.4,0.6c-0.1,0.3-0.4,0.4-0.6,0.4c-0.2,0-0.3-0.1-0.5-0.1c-1.1,0-1.7,1-1.7,2c0,0.9,0.6,3.1,3.4,3.2
				c0.3,0,0.5,0.3,0.5,0.5C13.9,31.1,13.7,31.3,13.4,31.3z"/>
		</g>
		<g>
			<path class="st0" d="M32.1,31.3c-0.3,0-0.5-0.2-0.5-0.5c0-0.3,0.2-0.5,0.5-0.6c2.6-0.2,3.3-2.2,3.3-3.2c0-1-0.5-2-1.7-2
				c-0.1,0-0.2,0-0.2,0c-0.3,0-0.5-0.2-0.6-0.5c0-0.3,0.2-0.5,0.5-0.6c0.1,0,0.3,0,0.4,0c1.6,0,2.7,1.2,2.7,3
				C36.5,28.7,35.3,31.1,32.1,31.3C32.2,31.3,32.2,31.3,32.1,31.3z"/>
		</g>
	</g>
	<g>
		<g>
			<path class="st0" d="M27.7,29.3c-0.4,0-0.8-0.3-0.8-0.8v-1.1c0-0.4,0.3-0.8,0.8-0.8c0.4,0,0.8,0.3,0.8,0.8v1.1
				C28.5,29,28.1,29.3,27.7,29.3z"/>
		</g>
		<g>
			<path class="st0" d="M17.9,29.3c-0.4,0-0.8-0.3-0.8-0.8v-1.1c0-0.4,0.3-0.8,0.8-0.8c0.4,0,0.8,0.3,0.8,0.8v1.1
				C18.7,29,18.3,29.3,17.9,29.3z"/>
		</g>
	</g>
	<g>
		<g>
			<path class="st0" d="M22.3,13.3c-1.4,0-2.5-1.1-2.5-2.5c0-0.1,0-0.2,0-0.3c0-0.3,0.3-0.5,0.6-0.5c0.3,0,0.5,0.3,0.5,0.6
				c0,0.1,0,0.1,0,0.2c0,0.8,0.6,1.4,1.4,1.4c0.6,0,0.9-0.3,0.9-0.9c0-0.4-0.3-0.7-0.7-0.7c-0.3,0-0.5-0.2-0.5-0.5
				c0-0.3,0.2-0.5,0.5-0.5c1,0,1.8,0.8,1.8,1.8C24.2,12.5,23.4,13.3,22.3,13.3z"/>
		</g>
		<g>
			<path class="st0" d="M21.8,16.9c-0.3,0-0.5-0.2-0.5-0.5s0.2-0.5,0.5-0.5c1.4,0,3.4-1.2,3.4-4.4c0-1.9-1.3-2.5-2.5-2.5
				c-1,0-1.8,0.7-1.9,1.7c0,0.3-0.3,0.5-0.6,0.5c-0.3,0-0.5-0.3-0.5-0.6C20,9,21.2,7.8,22.8,7.8c2.1,0,3.6,1.4,3.6,3.6
				C26.3,15.4,23.6,16.9,21.8,16.9z"/>
		</g>
	</g>
</g>
</svg>
