<?xml version="1.0" encoding="utf-8"?>
<!-- Generator: Adobe Illustrator 25.2.1, SVG Export Plug-In . SVG Version: 6.00 Build 0)  -->
<svg version="1.1" id="圖層_1" xmlns="http://www.w3.org/2000/svg" xmlns:xlink="http://www.w3.org/1999/xlink" x="0px" y="0px"
	 viewBox="0 0 120 50" style="enable-background:new 0 0 120 50;" xml:space="preserve">
<style type="text/css">
	.st0{fill:#EB67AA;}
	.st1{fill:#FFFFFF;}
	.st2{fill:#FFFDFD;}
</style>
<path class="st0" d="M23,0.8h67c12.7,0,23,10.3,23,23l0,0c0,12.7-10.3,23-23,23H23c-12.7,0-23-10.3-23-23l0,0
	C0,11.1,10.3,0.8,23,0.8z"/>
<circle class="st1" cx="23" cy="23.8" r="18"/>
<g>
	<g>
		<path class="st0" d="M15,24.5c-1.1,0-2-0.3-3-0.5l-0.2-0.1c-0.3-0.1-0.4-0.4-0.4-0.6c0.1-0.3,0.4-0.4,0.6-0.4l0.3,0.1
			c0.9,0.3,1.7,0.5,2.7,0.5c3.4,0,6.6-1.5,8.6-4.1c0.2-0.2,0.5-0.3,0.7-0.1c0.2,0.2,0.3,0.5,0.1,0.7C22.3,22.8,18.8,24.5,15,24.5z"
			/>
	</g>
	<g>
		<path class="st0" d="M32.5,23.9c-3.5,0-6.7-1.4-8.9-3.9c-0.2-0.2-0.2-0.5,0-0.7c0.2-0.2,0.5-0.2,0.7,0c2,2.2,4.9,3.5,8.1,3.5
			c0.1,0,0.2,0,0.3,0l0.1,0c0.3,0,0.5,0.2,0.5,0.5c0,0.3-0.2,0.5-0.5,0.5l-0.1,0C32.7,23.9,32.6,23.9,32.5,23.9z"/>
	</g>
	<g>
		<path class="st0" d="M22.4,33.1c-1.1,0-2.2-0.4-2.9-1c-0.2-0.2-0.2-0.5,0-0.7c0.2-0.2,0.5-0.2,0.7,0c0.5,0.4,1.3,0.7,2.2,0.7
			c0.9,0,1.7-0.3,2.2-0.7c0.2-0.2,0.5-0.2,0.7,0c0.2,0.2,0.2,0.5,0,0.7C24.6,32.7,23.6,33.1,22.4,33.1z"/>
	</g>
	<g>
		<path class="st0" d="M22.3,36.4c-4.3,0-8.3-2.7-9.8-6.7c-0.1-0.3,0-0.6,0.3-0.7c0.3-0.1,0.6,0,0.7,0.3c1.4,3.6,4.9,6.1,8.8,6.1
			c3.9,0,7.4-2.4,8.8-6.1c0.1-0.3,0.4-0.4,0.7-0.3c0.3,0.1,0.4,0.4,0.3,0.7C30.6,33.7,26.7,36.4,22.3,36.4z"/>
	</g>
	<g>
		<g>
			<path class="st0" d="M11.9,23.9c-0.3,0-0.5-0.2-0.5-0.5l0,0c0,0,0,0,0-0.1c0-6.1,5-11.1,11.1-11.1s11.1,5,11.1,11.1c0,0,0,0,0,0
				c0,0.3-0.2,0.5-0.5,0.5s-0.5-0.2-0.5-0.5c0,0,0,0,0,0c0-5.5-4.5-10-10-10s-10,4.5-10,10l0,0.1C12.4,23.7,12.2,23.9,11.9,23.9
				C11.9,23.9,11.9,23.9,11.9,23.9z"/>
		</g>
		<g>
			<path class="st0" d="M13,30C13,30,13,30,13,30c-3.3-0.1-4.4-2.6-4.4-4.2c0-1.8,1.1-3,2.7-3c0.3,0,0.5,0,0.8,0.1
				c0.3,0.1,0.4,0.4,0.4,0.6c-0.1,0.3-0.4,0.4-0.6,0.4c-0.2,0-0.3-0.1-0.5-0.1c-1.1,0-1.7,1-1.7,2c0,0.8,0.6,3.1,3.4,3.2
				c0.3,0,0.5,0.3,0.5,0.5C13.5,29.8,13.3,30,13,30z"/>
		</g>
		<g>
			<path class="st0" d="M31.7,30c-0.3,0-0.5-0.2-0.5-0.5c0-0.3,0.2-0.5,0.5-0.6c2.6-0.2,3.3-2.2,3.3-3.2c0-1-0.5-2-1.7-2
				c-0.1,0-0.2,0-0.2,0c-0.3,0-0.5-0.2-0.6-0.4c0-0.3,0.2-0.5,0.4-0.6c0.1,0,0.3,0,0.4,0c1.6,0,2.7,1.2,2.7,3
				C36,27.4,34.8,29.8,31.7,30C31.7,30,31.7,30,31.7,30z"/>
		</g>
	</g>
	<g>
		<path class="st0" d="M23.5,13.3C23.5,13.3,23.5,13.3,23.5,13.3c-0.3,0-0.5-0.2-0.5-0.4c0,0-0.5-2.3-1.9-2.3
			c-0.3,0-0.5-0.2-0.5-0.5c0-0.3,0.2-0.5,0.5-0.5c1.4,0,2.2,1.1,2.6,2c0.4-0.5,1-1,1.8-1c0.3,0,0.5,0.2,0.5,0.5
			c0,0.3-0.2,0.5-0.5,0.5C24.6,11.6,24,13,24,13C23.9,13.2,23.7,13.3,23.5,13.3z"/>
	</g>
	<g>
		<g>
			<path class="st0" d="M27.2,28c-0.4,0-0.8-0.3-0.8-0.8v-1.1c0-0.4,0.3-0.8,0.8-0.8s0.8,0.3,0.8,0.8v1.1C28,27.7,27.6,28,27.2,28z"
				/>
		</g>
		<g>
			<path class="st0" d="M17.4,28c-0.4,0-0.8-0.3-0.8-0.8v-1.1c0-0.4,0.3-0.8,0.8-0.8c0.4,0,0.8,0.3,0.8,0.8v1.1
				C18.2,27.7,17.9,28,17.4,28z"/>
		</g>
	</g>
</g>
<g>
	<path class="st2" d="M54.6,20.9c0.4,1.9,1,3.6,1.8,5.2c0.8,1.6,1.9,3.1,3.2,4.4c1.3,1.3,2.1,2,2.2,2l-1.6,2.2c-0.2,0-1-0.7-2.3-2.2
		c-1.3-1.4-2.4-3-3.2-4.7c-0.8-1.7-1.6-4-2.3-7H52l-0.3,1.2c-0.5,2-1.1,3.8-2,5.4c-0.8,1.6-2,3.2-3.6,4.8c-1.6,1.6-2.5,2.5-2.7,2.5
		l-1.6-2.3c0.3,0,1.1-0.7,2.5-2s2.6-2.8,3.4-4.3c0.8-1.5,1.4-3.3,1.9-5.3h-7.3v-2.5H50c0.2-0.9,0.2-1.9,0.2-3c0-1.1,0-2.1,0-3h2.2
		l0,3.2c0,0.9,0,1.8-0.1,2.7h8.9v2.5H54.6z"/>
	<path class="st2" d="M71.4,33.5c-0.2,0.1-0.4,0.1-0.6,0.2c-1.9,0.5-3.6,0.9-5.3,1.1l-1.1,0.1l-0.6-2c3-0.2,5.3-0.6,6.9-1L71.4,33.5
		z M75,20.5v0.8H77V20h-4.3v-1.3h1.1l-1.2-0.9c1-0.7,1.7-1.5,2.1-2.4H66v1h6.6v1.4h-3.1v1h2.6V20h-2.6v1l1.5-0.1l1.6-0.1v1.4
		c-1.3,0.2-2.7,0.3-4,0.3c-1.1,0-2.6,0-4.3,0.1L64,21.1l1.9,0l1.9,0v-1h-2.9v-1.3h2.9v-1h-2.7v-0.6h-1v-3.3h8.5l-0.3-0.5l-0.4-0.6
		l2.1-0.3l0.5,0.7l0.4,0.6H83v3.3h-1v0.5h-3.2v1.1H83V20h-4.3v1.3h2v-0.8h1.5v2.1h-8.8v-2.1H75z M66,31.7v-8.4h15.3v8.4H66z
		 M79.3,24.7H67.9v1h11.4V24.7z M67.9,27.9h11.4v-1H67.9V27.9z M67.9,30.2h11.4v-1.1H67.9V30.2z M77,18.7v-1.1h-2l-0.4,0.5l-0.5,0.6
		H77z M76.1,31.8c0.5,0.1,0.9,0.1,1.2,0.1c2.3,0.3,4.2,0.6,5.9,1l-0.6,2c-1.2-0.3-2.3-0.6-3.4-0.8l-3.6-0.7L76.1,31.8z M76.3,15.4
		l-0.5,1H81v-1H76.3z"/>
	<path class="st2" d="M88,28.5c-0.2,2.5-0.5,4.6-1,6.2l-1.9-0.7c0.6-1.8,1-3.7,1.2-5.8L88,28.5z M93.3,17.1c-1.3,3.2-2.9,6-4.6,8.2
		l1.6-0.2c0.5,0,1-0.1,1.5-0.2c-0.1-0.3-0.2-0.6-0.3-0.9l-0.4-0.8l1.5-0.5c0.5,0.9,1.1,2,1.6,3.4c0.1,0.2,0.1,0.4,0.3,0.7l-1.8,0.6
		l-0.2-0.9c-0.7,0.1-1.8,0.3-3.1,0.5l-3.5,0.5l-0.6-2.1h0.6l0.7,0c0.6-0.8,1.2-1.5,1.6-2.3l1.2-2l-1.6,0.2l-2,0.2l-0.4-2.1
		c0.1,0,0.2,0,0.4,0c0.1,0,0.1,0,0.2,0l0.5,0c1.2-2.4,2.1-4.6,2.7-6.7l2,0.6c-0.8,2.2-1.7,4.2-2.7,6l1-0.1l1-0.1
		c0.2-0.4,0.4-0.9,0.6-1.4l0.5-1.3L93.3,17.1z M89.1,33.5c0-0.1,0-0.3,0-0.4c0-0.8-0.1-1.5-0.1-2.1c0-0.9-0.1-1.8-0.3-2.6l1.6-0.2
		c0.3,1,0.5,2.6,0.7,4.7c0,0.1,0,0.3,0,0.5L89.1,33.5z M92.3,32.2c-0.3-1.8-0.7-3.2-1.1-4.1l1.5-0.4c0.5,1.1,0.9,2.1,1.2,3.3
		c0,0.1,0.1,0.3,0.1,0.5L92.3,32.2z M94.7,32V13.6h8.9V32h1.4v2H93.3v-2H94.7z M101.7,15.7h-5v3.9h5V15.7z M96.7,25.7h5v-4.2h-5
		V25.7z M96.7,32h5v-4.4h-5V32z"/>
</g>
</svg>
