<svg width="30" height="30" viewBox="0 0 30 30" fill="none" xmlns="http://www.w3.org/2000/svg">
<circle cx="15" cy="15" r="15" fill="#32B437"/>
<path d="M21.1356 13.2194C21.2062 13.2169 21.2766 13.2287 21.3425 13.2541C21.4084 13.2794 21.4686 13.3178 21.5194 13.3668C21.5702 13.4159 21.6106 13.4747 21.6382 13.5397C21.6658 13.6048 21.68 13.6747 21.68 13.7453C21.68 13.816 21.6658 13.8859 21.6382 13.9509C21.6106 14.0159 21.5702 14.0747 21.5194 14.1238C21.4686 14.1729 21.4084 14.2112 21.3425 14.2366C21.2766 14.2619 21.2062 14.2737 21.1356 14.2713H19.6737V15.2088H21.1356C21.2066 15.2053 21.2776 15.2163 21.3443 15.2411C21.4109 15.2659 21.4718 15.3039 21.5233 15.353C21.5748 15.402 21.6158 15.461 21.6438 15.5263C21.6718 15.5917 21.6862 15.662 21.6862 15.7331C21.6862 15.8042 21.6718 15.8746 21.6438 15.9399C21.6158 16.0053 21.5748 16.0643 21.5233 16.1133C21.4718 16.1623 21.4109 16.2004 21.3443 16.2252C21.2776 16.25 21.2066 16.261 21.1356 16.2575H19.15C19.0112 16.257 18.8782 16.2016 18.7802 16.1033C18.6822 16.005 18.627 15.8719 18.6269 15.7331V11.7581C18.6269 11.4688 18.8612 11.2313 19.15 11.2313H21.1394C21.2743 11.2382 21.4014 11.2969 21.4944 11.395C21.5873 11.4931 21.6389 11.6232 21.6385 11.7584C21.6381 11.8935 21.5857 12.0233 21.4922 12.1209C21.3987 12.2185 21.2712 12.2763 21.1362 12.2825H19.6744V13.22L21.1356 13.2194ZM17.9269 15.7325C17.9257 15.8717 17.8697 16.0048 17.7709 16.1029C17.6721 16.201 17.5386 16.2561 17.3994 16.2563C17.317 16.2571 17.2355 16.2387 17.1614 16.2025C17.0873 16.1664 17.0226 16.1136 16.9725 16.0481L14.9381 13.2813V15.7319C14.9381 15.871 14.8829 16.0043 14.7845 16.1027C14.6862 16.201 14.5528 16.2563 14.4137 16.2563C14.2747 16.2563 14.1413 16.201 14.043 16.1027C13.9446 16.0043 13.8894 15.871 13.8894 15.7319V11.7569C13.8894 11.5325 14.0363 11.3313 14.2475 11.2594C14.2997 11.241 14.3547 11.2319 14.41 11.2325C14.5725 11.2325 14.7225 11.3206 14.8231 11.4444L16.8737 14.2175V11.7569C16.8737 11.4675 17.1081 11.23 17.3981 11.23C17.6881 11.23 17.9256 11.4675 17.9256 11.7569L17.9269 15.7325ZM13.1419 15.7325C13.1412 15.8719 13.0853 16.0054 12.9865 16.1037C12.8876 16.202 12.7538 16.257 12.6144 16.2569C12.476 16.2557 12.3437 16.2 12.2462 16.1018C12.1487 16.0036 12.0939 15.8709 12.0938 15.7325V11.7575C12.0938 11.4681 12.3281 11.2306 12.6181 11.2306C12.9075 11.2306 13.1425 11.4681 13.1425 11.7575L13.1419 15.7325ZM11.0875 16.2569H9.09812C8.95886 16.2566 8.82535 16.2013 8.72659 16.1031C8.62782 16.0049 8.57178 15.8718 8.57062 15.7325V11.7575C8.57062 11.4681 8.80813 11.2306 9.09812 11.2306C9.38812 11.2306 9.6225 11.4681 9.6225 11.7575V15.2081H11.0875C11.2266 15.2081 11.3599 15.2634 11.4583 15.3617C11.5566 15.4601 11.6119 15.5934 11.6119 15.7325C11.6119 15.8716 11.5566 16.005 11.4583 16.1033C11.3599 16.2016 11.2266 16.2569 11.0875 16.2569ZM25 13.5931C25 9.11751 20.5106 5.47501 15 5.47501C9.48937 5.47501 5 9.11751 5 13.5931C5 17.6038 8.55813 20.9631 13.3625 21.6013C13.6881 21.6694 14.1306 21.8163 14.245 22.0931C14.3456 22.3431 14.31 22.7306 14.2775 22.995L14.1406 23.8444C14.1012 24.095 13.9388 24.8313 15.0131 24.3819C16.0906 23.9325 20.7781 20.9838 22.8775 18.5675C24.3131 16.9956 25 15.3806 25 13.5931Z" fill="white"/>
</svg>
