<svg id="etmallLogo" data-name="etmallLogo" xmlns="http://www.w3.org/2000/svg" viewBox="0 0 83.87 83.87"><defs><style>.logo__outer{fill:#b50005;}.logo__word{fill:#fff;}</style></defs><g id="logoOuter" data-name="logoOuter"><path class="logo__outer" d="M1001.84,546.3s0,.06,0,.09,0-.23,0-.36-.49-3.59-.65-6.1a42.83,42.83,0,0,1,.62-6.19c0-.1,0-.19,0-.28a2.77,2.77,0,0,0-.27-1.19,1.82,1.82,0,0,0-.2-.36c-1.83-2.81-13.86-2.58-13.86-2.58,1.82-1.25,7.22-5.12,9.16-9a6,6,0,0,0-.69-5.8c-1.37-1.84-3.77-3-5-3.92a10.78,10.78,0,0,1-2-1.84,36,36,0,0,0-3.62-4.79,6.23,6.23,0,0,0-3.19-1.67c-3.28-.26-9.39,8.35-10.51,9.86-.16-4.84-.76-10.09-2.41-12.61,0,0-1.41-1.73-3.15-1.5-.15,0-.52.05-.64.07h0c-.39.07-1.36.22-2.36.35a15.45,15.45,0,0,1-2.49.25l-.36,0h0l-.36,0a15.45,15.45,0,0,1-2.49-.25c-1-.13-2-.28-2.36-.35h0c-.12,0-.49,0-.64-.07a3.59,3.59,0,0,0-3,1.45c-1.65,2.52-2.21,7.58-2.37,12.42-1.12-1.51-5.65-9.85-10.46-9.7a5.07,5.07,0,0,0-4,1.75,35.87,35.87,0,0,0-3.61,4.79,10.92,10.92,0,0,1-2,1.84c-1.21.89-3.61,2.08-5,3.92a5.07,5.07,0,0,0-.78,1.45l0,.1a4.72,4.72,0,0,0,.42,3.94,14,14,0,0,0,2.42,3.28,55.2,55.2,0,0,0,7,5.84,35.61,35.61,0,0,0-7.9.12c-3.22.49-6,2-6.49,2.69a1.43,1.43,0,0,0-.2.36,2.78,2.78,0,0,0-.28,1.19c0,.09,0,.18,0,.28a42.83,42.83,0,0,1,.62,6.19c-.16,2.51-.65,6.1-.65,6.1s0,.24,0,.36a.29.29,0,0,1,0-.09,4.08,4.08,0,0,0,1.65,3.6c2.26,1.54,6.41,2.88,11.55,3-2,1.51-7.78,5.92-7.94,9.51a4.75,4.75,0,0,0,1.42,3.85c2,2,4.24,2.87,5.5,4.14a25.6,25.6,0,0,1,2.45,3.36h0a15.25,15.25,0,0,0,3.28,3.65c5.61,4,13.17-8.7,13.17-8.7.17,5,.7,9.58,2.49,12a3,3,0,0,0,2.35,1.15H954a3.5,3.5,0,0,0,.69,0h0a1.31,1.31,0,0,0,.27-.05h0l.85-.13-.24,0a43.47,43.47,0,0,1,4.34-.48h0a43.47,43.47,0,0,1,4.34.48l-.24,0,.85.13h0a1.19,1.19,0,0,0,.27.05h0a3.5,3.5,0,0,0,.69,0h.06a3,3,0,0,0,2.36-1.15c1.79-2.41,3.08-7.32,3.25-12.34,0,0,5.39,8.94,9.62,9.62s8-6.43,8.86-7.25c2.14-2.37,7.71-4.2,7.48-8.24s-5.82-8-7.86-9.55c5.14-.15,8.73-1.21,11-2.75,1-.72,1.36-2.37,1.22-3.91" transform="translate(-918 -498)"/><path class="logo__word" d="M937.22,554.67a20.06,20.06,0,0,1,1.43,2.7l1.34-.55a15.92,15.92,0,0,0-1.51-2.67Z" transform="translate(-918 -498)"/><path class="logo__word" d="M949.49,551.19a1.34,1.34,0,0,0-1.28-1.21H945.7v-.51h-1.41V550h-3.67v4.13h-.82v1.11h.82V558h1.5v-2.8h5.82v1.29h0v0a.24.24,0,0,1-.24.24h-1.85l.48,1.28c1.84,0,2.45,0,2.84-.43a1.09,1.09,0,0,0,.32-.86v-1.54h.82v-1.11h-.82Zm-5.2,2.92h-2.13v-1h2.13Zm0-2.07h-2.13v-1h2.13Zm3.67,2.07h-2.13v-1H948Zm0-2.07h-2.13v-1H948Z" transform="translate(-918 -498)"/><path class="logo__word" d="M944.22,549h5.9v-1.16h-2.51v-.89h2.14v-1.1h-2.14v-.93h2.14v-1.15h-2.14v-.88a.58.58,0,0,0-.58-.58h-1v1.46H944v-.87a.58.58,0,0,0-.58-.58h-1v1.45h-2.14v1.15h2.14v.93h-2.14v1.1h2.14v.89h-2.5V549h4.29Zm-.24-4.08h2.08v.93H944Zm0,2h2.08v.89H944Z" transform="translate(-918 -498)"/><path class="logo__word" d="M939.51,544.18a1.33,1.33,0,0,0-1.31-1.31h-3.91v10.75h1.06a1.89,1.89,0,0,1-.11.46,11.12,11.12,0,0,1-1.86,3l1.17.8a10.11,10.11,0,0,0,1.82-3,5.36,5.36,0,0,0,.35-1.31h2.79Zm-3.76,0h2.3v1.91h-2.3Zm0,3.12h2.3v1.9h-2.3Zm0,5.06v-2h2.3v2Z" transform="translate(-918 -498)"/><path class="logo__word" d="M967.75,545.29h-6a17.26,17.26,0,0,0,.58-3l-1.63-.32s0,2.29-2.27,7.44l1.72.33s.57-1.29,1.11-3h1c-.65,3.16-1.91,6.86-3.66,8.8l1.5.71c1.66-2.14,2.95-6.23,3.57-9.51h3.44c-.27,6.45-.56,8.85-1,9.4a.75.75,0,0,1-.58.29h-1.11L965,558h0c1.27,0,2-.12,2.55-.79s.91-3.48,1.23-10.94h0a1,1,0,0,0-1-1" transform="translate(-918 -498)"/><path class="logo__word" d="M964.64,547.34c-.49,3.49-1.5,7.39-3.18,9.61l1.49.7c1.54-2.34,2.54-6.49,3-10Z" transform="translate(-918 -498)"/><path class="logo__word" d="M959.22,550.54l-1.94.34v-4h1.86v-1.55h-1.86v-2.7a.59.59,0,0,0-.58-.58h-1.06v3.28h-1.18c.08-.57.1-.92.14-1.41h0l0-.65-1.44-.28a28.59,28.59,0,0,1-1.11,6.41l1.53.29a17.8,17.8,0,0,0,.65-2.81h1.36v4.33c-1.21.23-2.67.51-3.54.65l.57,1.55,3-.64v5.32h1.64v-5.68l2.42-.52Z" transform="translate(-918 -498)"/><path class="logo__word" d="M974.76,549.76c.24.58.4,1,.49,1.27a6.18,6.18,0,0,1-1.84.25,22.27,22.27,0,0,0,3.54-6.13l-1.52-.51a15.2,15.2,0,0,1-1,2.21,8.14,8.14,0,0,1-1.36.11,28.62,28.62,0,0,0,2.08-4.28l-1.56-.41a23.62,23.62,0,0,1-2.05,4.72l-.32,0h-.52l.25,1.4c.54,0,1.5-.08,2.87-.2a15.65,15.65,0,0,1-2.17,3.16l-.4,0h-.52l.4,1.48.62-.06a28.89,28.89,0,0,1-1.12,4.7l1.38.42a26,26,0,0,0,1-5.26c1.08-.12,1.9-.23,2.47-.34a.92.92,0,0,1,.07.29,2.75,2.75,0,0,0,.07.3l1.36-.38a16.62,16.62,0,0,0-1.09-3.12Z" transform="translate(-918 -498)"/><path class="logo__word" d="M973.36,553.56a18.71,18.71,0,0,1,.14,2.2c0,.57,0,1.14,0,1.71l1.5-.07a19.88,19.88,0,0,0-.36-3.92Z" transform="translate(-918 -498)"/><path class="logo__word" d="M984.69,542.81h-7.51v15.24h1.47v-6.34h1.11v1.67a2.26,2.26,0,0,0,.42,1.59,2.23,2.23,0,0,0,1.52.41h2.35v-.54a.81.81,0,0,0-.86-.75h-1.43c-.42,0-.64-.26-.64-.79v-1.59h3.59v4.07c0,.36-.2.54-.61.54l-1.76-.08.47,1.57h1.65a1.68,1.68,0,0,0,1.36-.42,2.61,2.61,0,0,0,.33-1.56V544.1a1.39,1.39,0,0,0-1.47-1.29m0,7.6h-2.05a12.4,12.4,0,0,0-.89-1.75l-1.35.27a9.71,9.71,0,0,1,.74,1.48h-2.5v-1.95h6.05Zm0-3.25h-1.24a10.93,10.93,0,0,0,.69-2.27l-1.42-.28a11.67,11.67,0,0,1-.7,2.55h-.73a25.91,25.91,0,0,0-.82-2.52l-1.38.24a16.59,16.59,0,0,1,.84,2.28h-1.29v-3h6.05Z" transform="translate(-918 -498)"/><path class="logo__word" d="M974.94,553.4a23.24,23.24,0,0,1,.78,3.65l1.31-.37a18.56,18.56,0,0,0-.94-3.5Z" transform="translate(-918 -498)"/><path class="logo__word" d="M963.52,529.64a15.23,15.23,0,0,0,6.34-4.25v4.75h1.92V525h6.69v-1.55h-6.69v-1.27a.64.64,0,0,0-.64-.64h-1.28v1.91h-6.69V525h4.89a14.91,14.91,0,0,1-5.62,3.23Z" transform="translate(-918 -498)"/><path class="logo__word" d="M970.12,531.5h-2.93v-1.43a.65.65,0,0,0-.64-.64h-1.12v2.07H962v1.55h2.63a7,7,0,0,1-2.92,3.5l1.05,1.33a8.8,8.8,0,0,0,2.71-3.34v4.39h1.76v-5.88h2.93Z" transform="translate(-918 -498)"/><path class="logo__word" d="M968.65,533.82l-.94,1c.59.51,1.15,1,1.46,1.34l1.07-1.2c-.25-.18-.92-.75-1.59-1.19" transform="translate(-918 -498)"/><path class="logo__word" d="M979.72,531.5h-3.56v-1.42h0a.64.64,0,0,0-.64-.65H974.4v2.07h-3.46v1.55h2.65c-.54,1.48-2.14,2.57-3.64,3.59l1,1.27a9.43,9.43,0,0,0,3.44-3.37v4.39h1.76v-5.88h3.56Z" transform="translate(-918 -498)"/><path class="logo__word" d="M972.79,526.86a17.16,17.16,0,0,0,5.44,3l1-1.43a16.16,16.16,0,0,1-5.48-2.71Z" transform="translate(-918 -498)"/><path class="logo__word" d="M977.73,533.86l-1,1.12a13.48,13.48,0,0,0,2.37,2.83l1.12-1.27a12.22,12.22,0,0,1-2.5-2.68" transform="translate(-918 -498)"/><path class="logo__word" d="M956.85,527.42a1.3,1.3,0,0,0-1.3-1.26h-4.94v-1h7.64V523.5h-7.64v-1.31a.62.62,0,0,0-.6-.61h-1.37v1.92H941v1.62h7.61v1h-6.25v6.89h4.85a19.36,19.36,0,0,1-6.53,4.1l1.17,1.49a19.88,19.88,0,0,0,6.76-4.5v4.8h2v-5.89h6.24Zm-8.21,4.22H944.2V530.3h4.44Zm0-2.74H944.2v-1.34h4.44Zm6.35,2.74h-4.38V530.3H955Zm0-2.74h-4.38v-1.34H955Z" transform="translate(-918 -498)"/><path class="logo__word" d="M951.19,534.85a20.59,20.59,0,0,0,6,3.82l1.32-1.5a19,19,0,0,1-6.21-3.52Z" transform="translate(-918 -498)"/></g></svg>