<svg width="120" height="50" viewBox="0 0 120 50" fill="none" xmlns="http://www.w3.org/2000/svg">
<rect x="0.0329361" y="0.810791" width="113" height="46" rx="23" fill="#EB67AA"/>
<circle cx="23.0329" cy="23.8108" r="18" fill="white"/>
<path fill-rule="evenodd" clip-rule="evenodd" d="M17.5571 28.3437C16.8171 29.7787 16.2482 31.169 15.4252 32.3979C14.7002 33.4803 13.8117 34.9773 12.2058 34.2052C10.7032 33.4852 11.2922 31.9113 11.6219 30.6997C12.0347 29.1804 12.6665 27.7206 13.1221 26.4619C11.6773 24.4535 6.70357 20.0269 9.31375 17.4252C10.0085 16.7325 12.2939 17.0726 13.409 18.1029C14.2749 18.9048 14.9343 19.9401 15.6165 20.9182C16.0041 21.4743 16.2533 22.1248 16.6988 22.9937C17.4615 22.0528 18.1109 21.3154 18.6873 20.5284C21.3553 16.8864 28.5667 14.5056 32.8054 15.8189C38.4335 17.5642 39.6619 25.1089 34.7486 28.448C31.9068 30.377 28.2621 29.9972 25.0151 29.6769C24.4312 29.6173 17.396 28.6565 17.5571 28.3437ZM33.3013 22.2017C33.2761 20.9679 32.1787 19.9847 30.895 20.0493C29.6138 20.1138 28.6397 21.0374 28.6296 22.1992C28.6195 23.4554 29.7799 24.4932 31.1341 24.4386C32.3473 24.3889 33.3239 23.3835 33.3013 22.2017Z" fill="#EB67AA"/>
<path d="M69.7709 20.1748H56.5369V35.5668H58.9029V34.3968H67.4049V35.5668H69.7709V20.1748ZM58.9029 32.1348V28.3128H62.0229V32.1348H58.9029ZM64.3109 32.1348V28.3128H67.4049V32.1348H64.3109ZM58.9029 26.1028V22.4628H62.0229V26.1028H58.9029ZM64.3109 22.4628H67.4049V26.1028H64.3109V22.4628ZM54.8989 13.4408H47.9309V33.4868H50.2969V31.4328H52.5849V32.8628H54.8989V13.4408ZM50.2969 29.1188V15.7808H52.5849V29.1188H50.2969ZM55.8349 14.3768V16.6388H58.5389V19.1348H60.9309V16.6388H62.6209V14.3768H60.9309V11.5688H58.5389V14.3768H55.8349ZM65.1429 11.5688V14.3768H63.4009V16.6388H65.1429V19.1348H67.5349V16.6388H70.4729V14.3768H67.5349V11.5688H65.1429ZM95.3549 12.3748H84.2789V32.6808H82.4849V35.0468H96.9669V32.6808H95.3549V12.3748ZM86.6189 32.6808V28.2868H93.0149V32.6808H86.6189ZM86.6189 26.0248V21.4748H93.0149V26.0248H86.6189ZM86.6189 19.2128V14.6628H93.0149V19.2128H86.6189ZM74.2169 29.0408C74.0609 31.1208 73.7229 32.9668 73.1769 34.5788L75.3869 35.2808C75.8549 33.5388 76.1669 31.5628 76.3229 29.3268L74.2169 29.0408ZM79.1829 28.7288L77.1809 29.1708C77.4929 30.6788 77.7789 32.4208 78.0389 34.3968L80.2229 33.8768C79.9109 32.0308 79.5729 30.3148 79.1829 28.7288ZM81.7049 21.9688L79.8329 22.5928C80.0669 23.2168 80.3009 23.8408 80.5349 24.4908C79.3389 24.8548 78.1169 25.1668 76.9209 25.4008C78.4289 23.5548 80.2749 20.6168 82.4589 16.5608L80.2749 15.7288C79.7029 16.8728 79.1309 17.9388 78.6109 18.9268C77.7269 19.0828 76.8689 19.2128 76.0109 19.3168C77.2069 17.5488 78.4029 15.2608 79.5729 12.4528L77.2849 11.5688C76.4269 14.1688 75.4129 16.5348 74.2689 18.6668C73.9569 19.0828 73.6449 19.3688 73.2809 19.5248L73.8529 21.6308C75.0749 21.4748 76.2449 21.2928 77.3889 21.1108C76.2449 23.0348 75.3089 24.3868 74.5289 25.1928C74.2689 25.4528 73.9309 25.6608 73.5149 25.8428L74.1129 27.9488C76.3229 27.6628 78.6629 27.1428 81.1069 26.3628L81.4709 27.7928L83.4469 27.2728C82.9269 25.2708 82.3549 23.5028 81.7049 21.9688ZM82.1729 28.0268L80.3269 28.6248C80.7689 29.8468 81.1329 31.1468 81.3929 32.4988L83.3949 31.9788C83.0309 30.4708 82.6409 29.1708 82.1729 28.0268Z" fill="white"/>
</svg>
