<svg id="etmallLogo" data-name="etmallLogo" xmlns="http://www.w3.org/2000/svg" viewBox="0 0 83.87 83.87"><defs><style>.logo__outer{fill:#000;}.logo__inner{fill: none;}.logo__word{fill:#000;}</style></defs><path class="logo__inner" d="M920.42,546.11a.3.3,0,0,1,0,.1c0-.12,0-.24,0-.36s-.48-3.53-.63-6a42.3,42.3,0,0,1,.6-6.09,2.4,2.4,0,0,0,0-.28,2.64,2.64,0,0,0-.27-1.16,1.43,1.43,0,0,0-.2-.36c-1.8-2.76-13.6-2.54-13.6-2.54,1.79-1.23,7.09-5,9-8.9a6,6,0,0,0-.68-5.7c-1.34-1.81-3.69-3-4.88-3.86a10.83,10.83,0,0,1-1.94-1.8,34.9,34.9,0,0,0-3.55-4.71,6,6,0,0,0-3.14-1.65c-3.21-.26-9.38,7.75-10.49,9.23-.15-4.75-.57-9.46-2.19-11.94,0,0-1.38-1.7-3.09-1.47l-.63.07h0c-.38.06-1.33.22-2.31.34a15.07,15.07,0,0,1-2.45.25h-.71a14.84,14.84,0,0,1-2.45-.25c-1-.12-1.93-.28-2.32-.34h0l-.63-.07a3.52,3.52,0,0,0-2.93,1.43c-1.61,2.47-2.16,7.46-2.32,12.21-1.1-1.48-5.54-9.69-10.26-9.54a5,5,0,0,0-4,1.73,33.91,33.91,0,0,0-3.54,4.71,11,11,0,0,1-1.95,1.8c-1.18.88-3.54,2.05-4.88,3.86a4.82,4.82,0,0,0-.77,1.43l0,.1a4.71,4.71,0,0,0-.25,1.46,4.81,4.81,0,0,0,.66,2.41,13.78,13.78,0,0,0,2.37,3.23c2.09,2.15,3.84,4.53,5.46,5.64a25.47,25.47,0,0,0-6.36.22c-3.16.49-5.84,1.93-6.37,2.65a1.82,1.82,0,0,0-.2.36,2.64,2.64,0,0,0-.27,1.16,2.4,2.4,0,0,0,0,.28,40.87,40.87,0,0,1,.6,6.09c-.15,2.47-.63,6-.63,6s0,.24,0,.36a.3.3,0,0,1,0-.1,4,4,0,0,0,1.62,3.55,18.69,18.69,0,0,0,10.47,3.26c-2,1.48-6.77,5.54-6.92,9.07a4.66,4.66,0,0,0,1.39,3.78c2,1.92,4.16,2.83,5.4,4.08a25.63,25.63,0,0,1,2.4,3.3h0a15.12,15.12,0,0,0,3.22,3.6c5.51,3.94,12.95-8,12.95-8,.17,4.94.67,8.88,2.42,11.25a2.93,2.93,0,0,0,2.32,1.13h.06a4.58,4.58,0,0,0,.68,0h0l.26,0h0l.84-.13H875c1.07-.16,2.78-.4,4.26-.47h0c1.48.07,3.19.31,4.26.47h-.23l.83.13h0l.26,0h0a4.65,4.65,0,0,0,.68,0h.07a2.92,2.92,0,0,0,2.31-1.13,19.8,19.8,0,0,0,3.44-11.06s5,7.71,9.2,8.39,7.87-6.33,8.69-7.14c2.1-2.33,7.57-4.13,7.34-8.11s-5.71-7.91-7.71-9.39c5-.14,8.57-1.19,10.79-2.7,1-.72,1.33-2.34,1.19-3.86" transform="translate(-837.44 -497.91)"/><path class="logo__outer" d="M965.76,500.4a2.8,2.8,0,0,1,2.21,1.38,22.91,22.91,0,0,1,3,11.07c1-1.4,6.61-8.45,9.73-8.44h.15a5.85,5.85,0,0,1,3,1.57,33.21,33.21,0,0,1,3.4,4.51,10.6,10.6,0,0,0,1.86,1.73c1.13.84,3.39,1.95,4.68,3.69a5.7,5.7,0,0,1,.65,5.44c-1.83,3.69-6.91,7.33-8.62,8.51h.61c2.38,0,10.94.16,12.43,2.42a1.66,1.66,0,0,1,.18.35,2.55,2.55,0,0,1,.26,1.11,2.06,2.06,0,0,1,0,.26,41.14,41.14,0,0,0-.58,5.82c.15,2.37.61,5.75.61,5.75s0,.22,0,.34a.36.36,0,0,0,0-.1,3.83,3.83,0,0,1-1.55,3.39,17.05,17.05,0,0,1-9.82,3.17c1.92,1.41,6.77,6.27,6.78,8.63a4.69,4.69,0,0,1-1.69,3.6c-1.89,1.84-4,2.71-5.17,3.9a23.67,23.67,0,0,0-2.3,3.16h0a22.91,22.91,0,0,1-3.87,4.29,1.52,1.52,0,0,1-.79.2c-3.33,0-9.84-8.32-9.84-8.32a18.1,18.1,0,0,1-3.31,10.36,2.8,2.8,0,0,1-2.21,1.08h-.18a3.83,3.83,0,0,1-.53,0h0l-.26,0h0l-.8-.13a.75.75,0,0,0,.2,0h0a39,39,0,0,0-4.08-.45h0a39,39,0,0,0-4.08.45h0a.75.75,0,0,0,.2,0l-.8.13h0l-.25,0h0a3.83,3.83,0,0,1-.53,0h-.18a2.82,2.82,0,0,1-2.22-1.08c-1.68-2.27-2.18-6-2.34-10.74,0,0-5.69,8-10.33,8a3.58,3.58,0,0,1-2.12-.67,14.65,14.65,0,0,1-3-3.13h0a23.67,23.67,0,0,0-2.3-3.16c-1.19-1.19-3.28-2.06-5.17-3.9a4.69,4.69,0,0,1-1.69-3.6c0-2.36,5.26-7.22,7.18-8.63a18.51,18.51,0,0,1-10.22-3.17,3.83,3.83,0,0,1-1.56-3.39l0,.1a1.88,1.88,0,0,1,0-.34s.46-3.38.61-5.75a39.65,39.65,0,0,0-.58-5.82,2.11,2.11,0,0,1,0-.26,2.42,2.42,0,0,1,.26-1.11,1.66,1.66,0,0,1,.18-.35c.51-.68,3.08-1.74,6.11-2.2a46,46,0,0,1,6.6-.44h.83a53.37,53.37,0,0,1-7-5.5,7.83,7.83,0,0,1-1.84-3.09,4.61,4.61,0,0,1-.63-2.3,5,5,0,0,1,.23-1.4l0-.09a4.48,4.48,0,0,1,.74-1.36c1.29-1.74,3.54-2.85,4.68-3.69a10.6,10.6,0,0,0,1.86-1.73A33.21,33.21,0,0,1,936,506a5.85,5.85,0,0,1,3-1.57h.15c3.13,0,9.2,7.26,10.24,8.65.15-4.55.93-8.91,2.48-11.28a2.78,2.78,0,0,1,2.21-1.38,1.62,1.62,0,0,1,.31,0l.61.06h0c.37.06,1.28.21,2.22.33a14.84,14.84,0,0,0,2.35.24h.68a15,15,0,0,0,2.35-.24c.94-.12,1.84-.27,2.22-.33h0l.61-.06a1.62,1.62,0,0,1,.31,0m0-2.5h0a4.73,4.73,0,0,0-.65,0l-.18,0-.39,0h-.14c-.35.06-1.21.2-2.1.31l-.14,0a12.39,12.39,0,0,1-1.95.2h-.54a12.4,12.4,0,0,1-2-.2l-.15,0c-.91-.12-1.78-.26-2.12-.31l-.13,0-.38,0-.18,0a4.49,4.49,0,0,0-.64,0,5.2,5.2,0,0,0-4.35,2.58,18.57,18.57,0,0,0-2.25,6.57c-2.47-2.52-5.69-5.14-8.33-5.14h-.34a8.08,8.08,0,0,0-4.57,2.29,21.43,21.43,0,0,0-2.82,3.59c-.27.42-.54.81-.78,1.14a8,8,0,0,1-1.38,1.26c-.23.18-.58.4-.95.63a15.39,15.39,0,0,0-4.24,3.56,7.25,7.25,0,0,0-1.11,2.07.24.24,0,0,0,0,.08l0,.08a6.93,6.93,0,0,0-.35,2.14,7.15,7.15,0,0,0,.87,3.38l0,0a9.73,9.73,0,0,0,2.29,3.72c.52.53,1.11,1.07,1.74,1.6l-.76.11c-.62.09-6.12,1-7.74,3.19a4.11,4.11,0,0,0-.45.8,5,5,0,0,0-.48,2.14,2.92,2.92,0,0,0,0,.51.88.88,0,0,0,0,.16,36.92,36.92,0,0,1,.55,5.25c-.14,2.15-.55,5.24-.59,5.54,0,.13-.05.26-.07.4a6.32,6.32,0,0,0,2.58,5.62l.06,0a20.09,20.09,0,0,0,6,2.79c-2,2.1-4.06,4.74-4.06,7a7.17,7.17,0,0,0,2.51,5.45,22.74,22.74,0,0,0,3.41,2.6,7,7,0,0,1,2.93,2.91l.67,1,.09.13a16.68,16.68,0,0,0,3.64,3.75A6,6,0,0,0,939.4,578c3,0,6-2.16,8.36-4.4a14.16,14.16,0,0,0,2.31,6.11,5.22,5.22,0,0,0,4.12,2.09h.28a6.07,6.07,0,0,0,.85-.06h.06a2.69,2.69,0,0,0,.36-.06l.4-.06.32-.05.28-.06c1.23-.18,2.33-.3,3.19-.34s2,.16,3.19.34l.27.06.34.05.39.06a2.69,2.69,0,0,0,.36.06h0a6.33,6.33,0,0,0,.86.06h.27a5.25,5.25,0,0,0,4.13-2.08,18.8,18.8,0,0,0,3-6.14c2.51,2.58,5.63,5.11,8.19,5.11a4,4,0,0,0,2.05-.54l.13-.08a24,24,0,0,0,4.51-4.92.55.55,0,0,0,.09-.14c.24-.34.47-.68.68-1a11.41,11.41,0,0,1,1.25-1.67,10.6,10.6,0,0,1,1.69-1.24,22.74,22.74,0,0,0,3.41-2.6,7.18,7.18,0,0,0,2.51-5.45c0-2.22-1.91-4.84-3.83-6.93a19.46,19.46,0,0,0,5.78-2.81l.06,0a6.32,6.32,0,0,0,2.57-5.62,2.28,2.28,0,0,0-.06-.39c0-.29-.46-3.4-.59-5.54a35.49,35.49,0,0,1,.55-5.26s0-.09,0-.14a4.64,4.64,0,0,0-.46-2.71,4,4,0,0,0-.38-.69c-.48-.73-1.78-2.52-8.33-3.22a19.6,19.6,0,0,0,4.09-5.19,8.16,8.16,0,0,0-.91-8.07,15.33,15.33,0,0,0-4.23-3.56c-.37-.23-.72-.45-.95-.62a8.34,8.34,0,0,1-1.38-1.27c-.25-.33-.51-.72-.79-1.14a20.92,20.92,0,0,0-2.82-3.59,8,8,0,0,0-4.56-2.29h-.35c-2.57,0-5.58,2.45-8,5a21.13,21.13,0,0,0-2.57-6.44,5.18,5.18,0,0,0-4.34-2.57Z" transform="translate(-918 -497.9)"/><path class="logo__word" d="M938.63,553.78a19.72,19.72,0,0,1,1.34,2.54l1.27-.52a15.74,15.74,0,0,0-1.42-2.51Z" transform="translate(-918 -497.9)"/><path class="logo__word" d="M950.17,550.5a1.26,1.26,0,0,0-1.21-1.13h-2.35v-.48h-1.33v.48h-3.45v3.88h-.77v1h.77v2.63h1.41V554.3h5.47v1.21h0v0a.22.22,0,0,1-.23.22h-1.73l.45,1.21c1.73,0,2.3-.05,2.67-.4a1,1,0,0,0,.3-.81V554.3h.77v-1h-.77Zm-4.89,2.76h-2v-.91h2Zm0-2h-2v-.9h2Zm3.45,2h-2v-.91h2Zm0-2h-2v-.9h2Z" transform="translate(-918 -497.9)"/><path class="logo__word" d="M945.21,548.44h5.55v-1.09H948.4v-.83h2v-1h-2v-.87h2v-1.09h-2v-.83a.54.54,0,0,0-.55-.54h-.91v1.37h-2v-.82a.56.56,0,0,0-.55-.55h-.91v1.37h-2v1.09h2v.87h-2v1h2v.83h-2.35v1.09h4Zm-.22-3.83h2v.87h-2Zm0,1.91h2v.83h-2Z" transform="translate(-918 -497.9)"/><path class="logo__word" d="M940.79,543.91a1.28,1.28,0,0,0-1.24-1.23h-3.68v10.11h1a2,2,0,0,1-.1.44,10.89,10.89,0,0,1-1.76,2.84l1.11.75a9.37,9.37,0,0,0,1.71-2.79,5.11,5.11,0,0,0,.33-1.24h2.63Zm-3.54,0h2.16v1.79h-2.16Zm0,2.93h2.16v1.79h-2.16Zm0,4.76v-1.83h2.16v1.83Z" transform="translate(-918 -497.9)"/><path class="logo__word" d="M967.38,545h-5.63a16.25,16.25,0,0,0,.55-2.81l-1.54-.29s0,2.15-2.13,7l1.62.31s.54-1.21,1-2.78h.93c-.61,3-1.8,6.45-3.44,8.28l1.41.66c1.56-2,2.78-5.86,3.36-8.94h3.23c-.25,6.06-.52,8.32-1,8.84a.66.66,0,0,1-.54.27h-1l.54,1.46h0c1.2,0,1.93-.11,2.4-.73s.86-3.28,1.15-10.3h0A1,1,0,0,0,967.38,545Z" transform="translate(-918 -497.9)"/><path class="logo__word" d="M964.45,546.89c-.46,3.28-1.41,7-3,9l1.4.66c1.45-2.21,2.39-6.11,2.84-9.43Z" transform="translate(-918 -497.9)"/><path class="logo__word" d="M959.35,549.89l-1.82.33v-3.8h1.75V545h-1.75v-2.54a.55.55,0,0,0-.55-.54h-1V545h-1.11c.07-.54.1-.86.13-1.32h0l0-.62-1.35-.26a26.61,26.61,0,0,1-1,6l1.44.28a17.59,17.59,0,0,0,.61-2.64H956v4.07c-1.14.21-2.51.48-3.33.61l.53,1.46L956,552v5h1.54v-5.34l2.28-.49Z" transform="translate(-918 -497.9)"/><path class="logo__word" d="M973.83,549.14c.22.54.38.94.46,1.19a5.84,5.84,0,0,1-1.72.24,21.11,21.11,0,0,0,3.32-5.77l-1.42-.48a13.67,13.67,0,0,1-.94,2.08,7.23,7.23,0,0,1-1.28.1,26.18,26.18,0,0,0,2-4l-1.47-.39a21.75,21.75,0,0,1-1.93,4.44l-.3,0H970l.24,1.32c.5,0,1.41-.08,2.7-.19a14.88,14.88,0,0,1-2,3h-.87l.38,1.4.58,0a25.88,25.88,0,0,1-1,4.41l1.29.4a24.18,24.18,0,0,0,1-5c1-.11,1.78-.22,2.32-.31a1,1,0,0,1,.06.27c0,.11,0,.21.07.28l1.28-.36a15.8,15.8,0,0,0-1-2.93Z" transform="translate(-918 -497.9)"/><path class="logo__word" d="M972.52,552.71a16.43,16.43,0,0,1,.13,2.07c0,.53,0,1.07,0,1.61l1.41-.07a19.33,19.33,0,0,0-.33-3.69Z" transform="translate(-918 -497.9)"/><path class="logo__word" d="M983.17,542.6h-7.06v14.33h1.38v-6h1v1.57a2.18,2.18,0,0,0,.39,1.5,2.13,2.13,0,0,0,1.43.38h2.21v-.5a.76.76,0,0,0-.81-.71h-1.34q-.6,0-.6-.75V551h3.37v3.83q0,.51-.57.51l-1.66-.08.44,1.48H983a1.58,1.58,0,0,0,1.28-.4,2.39,2.39,0,0,0,.32-1.46v-11A1.31,1.31,0,0,0,983.17,542.6Zm0,7.14h-1.93a11.84,11.84,0,0,0-.84-1.64l-1.26.26a9.84,9.84,0,0,1,.69,1.38h-2.35v-1.83h5.69Zm0-3H982a9.57,9.57,0,0,0,.65-2.13l-1.33-.27a11.34,11.34,0,0,1-.66,2.4H980a24.45,24.45,0,0,0-.78-2.37l-1.3.22a15.65,15.65,0,0,1,.8,2.15h-1.22v-2.86h5.69Z" transform="translate(-918 -497.9)"/><path class="logo__word" d="M974,552.56a23,23,0,0,1,.73,3.43l1.23-.35a17.49,17.49,0,0,0-.89-3.29Z" transform="translate(-918 -497.9)"/><path class="logo__word" d="M963.36,530.24a14.43,14.43,0,0,0,6-4v4.47h1.8v-4.8h6.3v-1.46h-6.3v-1.18a.6.6,0,0,0-.61-.6h-1.19v1.78H963v1.46h4.6a13.81,13.81,0,0,1-5.29,3Z" transform="translate(-918 -497.9)"/><path class="logo__word" d="M969.57,532h-2.76v-1.35a.6.6,0,0,0-.6-.59h-1.05V532h-3.27v1.46h2.48a6.65,6.65,0,0,1-2.75,3.29l1,1.25a8.35,8.35,0,0,0,2.55-3.14V539h1.65v-5.53h2.76Z" transform="translate(-918 -497.9)"/><path class="logo__word" d="M968.18,534.18l-.87,1c.55.48,1.07,1,1.36,1.26l1-1.13C969.45,535.12,968.81,534.59,968.18,534.18Z" transform="translate(-918 -497.9)"/><path class="logo__word" d="M978.6,532h-3.35v-1.34h0a.6.6,0,0,0-.6-.6h-1.06V532h-3.25v1.46h2.49c-.5,1.39-2,2.42-3.42,3.38l1,1.19a8.77,8.77,0,0,0,3.23-3.17V539h1.66v-5.53h3.35Z" transform="translate(-918 -497.9)"/><path class="logo__word" d="M972.08,527.63a15.46,15.46,0,0,0,5.12,2.81l1-1.34a15.32,15.32,0,0,1-5.15-2.54Z" transform="translate(-918 -497.9)"/><path class="logo__word" d="M976.73,534.21l-.94,1.06a12.77,12.77,0,0,0,2.23,2.65l1.06-1.19A11.22,11.22,0,0,1,976.73,534.21Z" transform="translate(-918 -497.9)"/><path class="logo__word" d="M957.09,528.16a1.23,1.23,0,0,0-1.22-1.19h-4.65v-1h7.19v-1.52h-7.19v-1.24a.56.56,0,0,0-.56-.56h-1.3v1.8h-7.14V526h7.14v1h-5.87v6.48h4.56a17.92,17.92,0,0,1-6.14,3.85l1.1,1.4a18.53,18.53,0,0,0,6.35-4.22V539h1.86v-5.54h5.87Zm-7.73,4h-4.17v-1.26h4.17Zm0-2.58h-4.17v-1.27h4.17Zm6,2.58h-4.12v-1.26h4.12Zm0-2.58h-4.12v-1.27h4.12Z" transform="translate(-918 -497.9)"/><path class="logo__word" d="M951.77,535.14a19,19,0,0,0,5.6,3.59l1.25-1.41a17.92,17.92,0,0,1-5.85-3.31Z" transform="translate(-918 -497.9)"/></svg>